<?xml version="1.0" encoding="UTF-8" standalone="no"?>
<svg
   xmlns:dc="http://purl.org/dc/elements/1.1/"
   xmlns:cc="http://creativecommons.org/ns#"
   xmlns:rdf="http://www.w3.org/1999/02/22-rdf-syntax-ns#"
   xmlns:svg="http://www.w3.org/2000/svg"
   xmlns="http://www.w3.org/2000/svg"
   xmlns:sodipodi="http://sodipodi.sourceforge.net/DTD/sodipodi-0.dtd"
   xmlns:inkscape="http://www.inkscape.org/namespaces/inkscape"
   id="svg"
   version="1.1"
   width="1850"
   height="2550"
   viewBox="0 0 1850 2550"
   sodipodi:docname="chaosean-full.svg"
   inkscape:version="0.92.1 r15371">
  <metadata
     id="metadata4561">
    <rdf:RDF>
      <cc:Work
         rdf:about="">
        <dc:format>image/svg+xml</dc:format>
        <dc:type
           rdf:resource="http://purl.org/dc/dcmitype/StillImage" />
        <dc:title></dc:title>
      </cc:Work>
    </rdf:RDF>
  </metadata>
  <defs
     id="defs4559" />
  <sodipodi:namedview
     pagecolor="#ffffff"
     bordercolor="#666666"
     borderopacity="1"
     objecttolerance="10"
     gridtolerance="10"
     guidetolerance="10"
     inkscape:pageopacity="0"
     inkscape:pageshadow="2"
     inkscape:window-width="1044"
     inkscape:window-height="480"
     id="namedview4557"
     showgrid="false"
     inkscape:zoom="0.14625966"
     inkscape:cx="-98.960802"
     inkscape:cy="1588.0025"
     inkscape:window-x="1805"
     inkscape:window-y="258"
     inkscape:window-maximized="0"
     inkscape:current-layer="svgg" />
  <g
     id="svgg"
     transform="translate(0,2150)">
    <path
       id="path1"
       d="m 1620.5449,-2147.8336 c -12.4269,3.6593 -21.6251,11.1877 -34.341,28.1143 -6.7068,8.9182 -34.6998,39.4519 -62.2045,67.8462 -35.7362,36.8824 -56.0359,60.5276 -71.1037,82.8331 -44.9044,66.4864 -120.5424,132.9328 -204.2424,179.4234 -58.6668,32.5934 -75.4287,33.5132 -106.8897,5.9288 -99.007,-86.8423 -102.7341,-89.1918 -117.6026,-74.2749 -16.0644,16.1068 -5.8498,50.2298 24.9336,83.3031 51.7109,55.5486 38.8853,68.626 -95.10056,96.9002 -93.04765,19.6359 -250.76128,22.6754 -420.862,8.1183 -45.10375,-3.8592 -71.52222,-8.2183 -188.3774,-31.0636 -42.6921,-8.3483 -89.18105,-23.2752 -141.59945,-45.4607 -56.75339,-24.0152 -76.21597,-25.9648 -87.45703,-8.7583 -20.279743,31.0537 13.6826,62.7373 107.07905,99.8996 14.87845,5.9188 37.1214,15.8168 49.4188,21.9855 26.1793,13.1474 62.66291,25.5748 103.91002,35.4128 65.17421,15.5369 68.19375,31.9735 11.73933,63.897 -132.65046,75.0247 -230.17261,172.2749 -272.53585,271.7747 -70.505748,165.626 -52.617717,378.46275 42.51272,505.66684 56.82315,75.9845 120.52247,122.9348 201.17308,148.2998 27.00644,8.4882 36.03516,17.2964 40.1808,39.1919 14.98807,79.1039 51.31223,125.3344 118.30017,150.5693 39.66259,14.947 47.46556,33.0333 28.38167,65.7966 -27.90333,47.89019 -33.22489,68.06619 -26.87689,101.83919 5.23188,27.8044 -5.07242,32.8634 -36.74271,18.0763 -37.17122,-17.3664 -53.79364,-40.6816 -61.52685,-86.3123 -15.92483,-93.92089 -51.56137,-159.44749 -138.81909,-255.27799 -48.74114,-53.5291 -69.59888,-63.2671 -97.93073,-45.7107 -26.48824,16.4067 -30.47443,54.8788 -13.49326,130.2735 6.65694,29.5739 56.46439,132.043 85.60345,176.12409 54.21219,82.0132 45.21336,135.2724 -42.41307,251.088799 -20.13026,26.6146 -61.40727,89.711698 -81.88632,125.174398 -17.85814,30.943799 -59.812794,85.342603 -92.848349,120.425493 -64.825424,68.816 -47.7844585,115.5265 44.43606,121.8352 37.260919,2.5495 79.773639,-13.2474 145.216929,-53.979 112.05181,-69.7358 230.92998,-90.8915 387.12886,-68.876 24.2759,3.4293 64.63608,6.9186 89.68929,7.7684 115.62942,3.9193 172.53229,30.3938 323.17043,150.3194 25.8305,20.5658 53.9132,42.1514 62.3939,47.9503 47.8442,32.7632 97.1135,-8.3983 71.303,-59.5779 -6.6072,-13.0974 -22.4124,-28.8242 -59.5737,-59.238 -16.4928,-13.5072 -40.8883,-34.3629 -54.1922,-46.3305 C 991.57385,171.94342 963.17224,152.71732 894.73932,119.10423 810.6008,77.782726 780.19613,70.604027 669.80855,66.005027 c -65.65256,-2.7295 -84.32786,-5.1789 -122.92415,-16.0967 -23.88725,-6.7587 -25.23259,-6.8386 -41.96462,-2.4895 -9.50707,2.4695 -38.55643,7.6384 -64.55636,11.4876 -25.99993,3.8492 -60.92892,10.328 -77.6211,14.4071 -33.96234,8.298299 -50.24593,9.528099 -59.60351,4.509099 -20.65843,-11.087699 10.89227,-72.2651981 43.76837,-84.8625979 22.48212,-8.6083001 96.56547,3.7991 144.08086,24.1449999 39.43339,16.876499 61.66637,12.057499 76.18607,-16.48670001 C 588.34078,-41.023171 549.64483,-78.36557 480.66381,-82.87457 c -65.3237,-4.2792 -82.12549,-13.9772 -74.71118,-43.1213 5.49098,-21.5756 26.66761,-20.9457 72.62839,2.1897 35.71627,17.9662 38.17774,18.7561 66.46973,21.2856 16.15404,1.4496 46.66833,6.6287 67.8051,11.5176 66.57935,15.3969 78.23896,16.966599 159.58714,21.485699 145.18703,8.0583 300.19011,-18.746299 363.56051,-62.887299 11.3308,-7.8983 40.0513,-27.8543 63.8189,-44.3509 142.8751,-99.1698 222.6587,-264.80599 189.374,-393.14979 -47.047,-181.4531 -115.9683,-270.8948 -229.6644,-298.02929 -47.5154,-11.3476 -148.9839,-4.4291 -227.2926,15.4868 -39.49318,10.03799 -64.60618,19.45609 -102.98323,38.62209 -39.51311,19.726 -119.29672,51.5996 -134.15524,53.5992 -30.4246,4.0991 -34.74962,-3.6593 -37.04168,-66.2665 -2.7405,-74.84479 -13.02488,-113.55689 -41.97458,-157.94779 -8.95897,-13.7472 -21.23643,-33.99315 -27.28548,-44.99095 -65.46321,-119.1256 -140.45342,-173.7644 -282.27212,-205.668 -47.1068,-10.6077 -58.12862,-17.6364 -58.10869,-37.0624 0.03,-26.1847 81.93615,-103.9288 161.11186,-152.9489 18.65537,-11.5476 42.88144,-26.9944 53.84347,-34.3329 66.00135,-44.201 105.69384,-61.0375 178.43185,-75.6946 117.70224,-23.7251 134.7731,-5.9987 63.59967,66.0365 -29.0394,29.3841 -47.98377,40.1819 -84.5172,48.1402 -47.17657,10.2779 -56.9527,27.7544 -45.24327,80.9036 3.02951,13.7371 6.91604,37.8222 8.6301,53.529 6.40781,58.4381 21.76461,81.4135 54.41151,81.4135 28.48133,0 39.72238,-18.6663 42.31341,-70.2857 1.92334,-38.4722 7.05556,-50.0198 26.67758,-60.0778 24.34566,-12.4775 40.53956,-26.0247 55.60736,-46.5405 8.73972,-11.8976 23.36904,-31.1037 32.51735,-42.6813 24.07659,-30.5037 30.53422,-44.8909 33.63348,-74.9547 3.71712,-36.0626 9.28782,-42.5314 36.65302,-42.5314 53.84347,0 168.27703,42.4714 213.04193,79.0639 13.9517,11.4077 53.6741,56.4385 79.7936,90.4516 18.9842,24.725 63.1413,110.2975 74.6614,144.7105 16.5925,49.5799 12.1578,156.248 -10.105,242.74045 -12.417,48.2402 5.9294,81.0335 45.313,80.9835 27.9233,-0.03 76.0565,-47.9402 132.5907,-131.97315 6.7366,-10.008 21.4158,-28.6441 32.6269,-41.4215 11.2112,-12.7674 27.2855,-32.0134 35.7163,-42.7712 9.1583,-11.6877 27.0164,-28.6142 44.3962,-42.0715 15.9846,-12.3774 41.7254,-34.183 57.1919,-48.4501 70.3164,-64.8268 130.8766,-93.041 213.3807,-99.3997 50.6546,-3.8993 65.3038,-14.3771 65.3038,-46.6905 0,-40.9617 -29.8167,-51.8495 -112.3807,-41.0516 -75.5084,9.8779 -128.1062,35.9327 -199.3992,98.7898 -16.443,14.4971 -42.7021,36.1027 -58.3678,48.0003 -15.6557,11.9076 -40.6392,33.3731 -55.5177,47.7003 -54.9795,52.9491 -73.3758,44.2009 -54.3915,-25.8748 2.9697,-10.9677 8.2414,-32.7933 11.7194,-48.5001 19.4725,-87.972 32.4974,-103.1789 68.393,-79.8937 58.4575,37.9222 79.9331,-27.7743 27.4151,-83.8729 -32.2483,-34.443 -33.8328,-45.8407 -15.3668,-110.4675 5.3814,-18.8562 13.1046,-45.8506 17.1506,-59.9878 4.046,-14.1371 12.5665,-45.2707 18.9444,-69.1759 18.6753,-69.9857 29.3383,-99.3898 61.5966,-169.8253 16.7519,-36.5626 41.6856,-94.1508 55.4279,-127.984 13.7325,-33.8231 30.3948,-73.615 37.0318,-88.422 23.9869,-53.529 8.7297,-92.1611 -31.7102,-80.2536 m -208.1688,383.4018 c 11.819,11.8677 -21.655,158.5778 -40.1609,176.0142 -15.2771,14.397 -13.1644,15.7668 -96.2266,-62.6273 -20.8179,-19.636 -16.6025,-32.5433 16.7021,-51.1796 8.9789,-5.0289 28.3717,-18.1662 43.1007,-29.194 42.9512,-32.1834 67.0477,-42.5713 76.5847,-33.0133 m -229.9833,135.2425 c 21.3361,10.8178 111.8725,100.6695 130.3783,129.3936 20.0506,31.1237 21.1966,52.0394 5.7402,104.7186 -19.9509,68.0062 -37.2809,68.816 -73.3858,3.4294 -34.2912,-62.0974 -93.8947,-133.5128 -136.1384,-163.1268 -44.5058,-31.1936 -43.1106,-43.1512 7.8428,-66.9963 32.7267,-15.3169 46.8278,-16.9166 65.5629,-7.4185 m -188.94544,400.0584 c -42.433,9.3682 -58.40766,18.8862 -102.98323,61.4175 -35.34755,33.7331 -41.25708,36.6226 -80.90971,39.6419 -59.87258,4.5491 -81.38804,26.2847 -62.15467,62.7671 12.04826,22.8654 36.88223,34.373 74.41221,34.483 8.00228,0.03 22.24294,1.9096 31.64039,4.1892 48.80094,11.8176 67.47624,2.0196 99.74445,-52.3593 33.00566,-55.6187 49.8673,-64.9667 106.6804,-59.1179 47.2563,4.859 51.1429,-26.0148 8.9092,-70.8156 -20.2499,-21.4756 -42.5227,-27.4544 -75.33904,-20.2059 m -672.43049,93.7209 c 17.22035,7.4585 39.6327,16.7366 49.79749,20.6158 54.59088,20.8656 124.70797,90.2516 155.08274,153.45875 20.80792,43.2811 22.06357,50.5796 23.54842,136.27209 2.01303,116.6762 2.01303,116.6762 -84.97561,123.065 -87.96526,6.4587 -102.50489,-4.1992 -91.86176,-67.3763 17.37979,-103.20899 -30.95277,-175.58419 -136.10848,-203.83839 -35.07848,-9.4281 -42.42303,-13.4973 -48.8408,-27.06455 -10.28437,-21.7356 -8.29128,-104.7386 3.04944,-127.134 14.67914,-28.9741 73.51531,-32.5934 130.30856,-7.9984 m 825.81913,374.51364 c 36.2145,9.1981 82.6437,39.6619 93.9844,61.6674 9.806,19.0162 4.8831,33.8732 -23.1797,70.0657 -39.2739,50.6598 -52.4084,51.8494 -58.0389,5.2589 -8.8095,-72.9451 -49.0003,-120.9752 -75.1497,-89.7916 -11.261,13.4173 -11.8489,24.2451 -3.458,63.437 4.1257,19.2661 8.7497,41.2216 10.2744,48.7801 2.6608,13.2472 14.4998,33.9331 23.8972,41.7515 26.8171,22.3354 -65.3636,77.6941 -136.23804,81.8233 -14.2008,0.82 -40.79866,3.4893 -59.10524,5.9188 -24.13638,3.2094 -50.74421,4.1491 -96.80464,3.4293 -100.43207,-1.5697 -105.34505,-6.7386 -112.34081,-118.2059 -2.65082,-42.1714 3.46798,-51.0296 44.54568,-64.5268 10.17475,-3.3394 33.88262,-13.5773 52.67751,-22.7354 62.45364,-30.4638 77.35202,-29.604 74.5019,4.2991 -6.87618,81.5434 18.47599,158.7576 52.11944,158.7576 29.48784,0 38.5066,-30.9137 29.8765,-102.3691 -6.33805,-52.5293 -13.20426,-66.8463 -40.04129,-83.483 -12.50667,-7.7584 -12.24757,-14.4271 0.9866,-25.3848 18.23683,-15.0969 45.05392,-23.7551 127.41859,-41.1316 15.2372,-3.2194 78.239,-1.5797 94.0741,2.4395 m -537.83679,160.3273 c 23.52849,11.2077 44.64534,90.2816 27.67413,103.6788 -17.38976,13.7272 -121.96747,-18.916 -143.19393,-44.7008 -17.32,-21.0457 -17.32,-41.9115 0,-50.8996 19.49247,-10.1079 99.48535,-15.7068 115.5198,-8.0784 m 694.07549,49.8299 c 31.5109,37.5722 0.628,148.4697 -60.8591,218.54539 -49.5384,56.4585 -64.7358,56.6984 -78.528,1.2298 -4.0858,-16.4767 -11.3407,-38.97209 -16.0942,-49.98989 -18.4162,-42.5913 -13.1744,-52.4293 49.6081,-93.141 16.9712,-10.9977 26.4085,-19.9459 41.277,-39.142 37.6695,-48.5801 49.5284,-55.4687 64.5962,-37.5023 m -242.7191,165.5462 c 15.9647,4.4491 25.681,18.0463 37.5798,52.59929 5.8298,16.9465 15.0379,39.6319 20.4392,50.4097 20.0705,39.9619 6.5872,53.869 -82.6935,85.3127 -104.56779,36.8324 -296.17401,38.1221 -421.42012,2.8493 -52.6775,-14.8469 -58.66676,-22.1454 -38.82549,-47.3403 11.58985,-14.7271 36.09495,-53.8491 56.13553,-89.6418 23.64807,-42.22139 35.7063,-50.03979 69.54906,-45.06079 8.62013,1.2598 28.73046,4.1092 44.70512,6.3087 55.99601,7.7485 62.33406,17.2266 54.59088,81.60349 -4.09581,34.0329 -0.9069,47.9601 14.53963,63.447 30.51429,30.6138 57.87949,-2.0196 69.95765,-83.443 7.65348,-51.53949 12.16784,-54.83879 95.24005,-69.56579 63.17119,-11.1977 65.94159,-11.4577 80.20219,-7.4785"
       inkscape:connector-curvature="0"
       style="fill:#fb0404;fill-rule:evenodd;stroke:none;stroke-width:1" />
  </g>
</svg>
