<?xml version="1.0" encoding="UTF-8" standalone="no"?>
<svg
   width="5.3299999in"
   height="5.3299999in"
   viewBox="0 0 480 480.48768"
   version="1.1"
   id="svg6354"
   sodipodi:docname="apache.svg"
   inkscape:version="1.2.2 (b0a8486541, 2022-12-01)"
   xmlns:inkscape="http://www.inkscape.org/namespaces/inkscape"
   xmlns:sodipodi="http://sodipodi.sourceforge.net/DTD/sodipodi-0.dtd"
   xmlns:xlink="http://www.w3.org/1999/xlink"
   xmlns="http://www.w3.org/2000/svg"
   xmlns:svg="http://www.w3.org/2000/svg">
  <sodipodi:namedview
     id="namedview6356"
     pagecolor="#ffffff"
     bordercolor="#666666"
     borderopacity="1.0"
     inkscape:showpageshadow="2"
     inkscape:pageopacity="0.0"
     inkscape:pagecheckerboard="0"
     inkscape:deskcolor="#d1d1d1"
     inkscape:document-units="in"
     showgrid="false"
     inkscape:zoom="0.88922766"
     inkscape:cx="200.736"
     inkscape:cy="607.83085"
     inkscape:window-width="2560"
     inkscape:window-height="1374"
     inkscape:window-x="1050"
     inkscape:window-y="43"
     inkscape:window-maximized="1"
     inkscape:current-layer="g6352" />
  <defs
     id="defs6212">
    <path
       id="h"
       fill="#bd202e"
       d="m 560,793 c -3.3,0.6 -6.6,1.1 -10,1.5 3.4,-0.3 6.8,-0.9 10,-1.5 z" />
    <path
       id="j"
       fill="#bd202e"
       d="m 587,710 c 1,-0.1 2.1,-0.3 3.1,-0.5 -1,0.1 -2,0.4 -3.1,0.5 z" />
    <path
       id="l"
       fill="#bd202e"
       d="m 587,710 c 0.1,0 0.1,-0.1 0,0 0.1,-0.1 0.1,0 0,0 z" />
  </defs>
  <defs
     id="defs6302">
    <linearGradient
       id="a"
       x1="-6874"
       x2="-6636"
       y1="2774"
       y2="2497"
       gradientTransform="matrix(0.18377326,-0.39464671,-0.39464671,-0.18377326,2108.1179,-2215.2965)"
       gradientUnits="userSpaceOnUse">
      <stop
         offset="0"
         stop-color="#f59723"
         id="stop6214" />
      <stop
         offset=".312"
         stop-color="#f69822"
         id="stop6216" />
      <stop
         offset=".838"
         stop-color="#e87726"
         id="stop6218" />
    </linearGradient>
    <linearGradient
       id="b"
       x1="-8631"
       x2="-6937"
       y1="2805"
       y2="2805"
       gradientTransform="matrix(0.18377326,-0.39464671,-0.39464671,-0.18377326,2108.1179,-2215.2965)"
       gradientUnits="userSpaceOnUse">
      <stop
         offset=".323"
         stop-color="#9c2063"
         id="stop6221" />
      <stop
         offset=".63"
         stop-color="#c82037"
         id="stop6223" />
      <stop
         offset=".751"
         stop-color="#cc2135"
         id="stop6225" />
      <stop
         offset="1"
         stop-color="#e87726"
         id="stop6227" />
    </linearGradient>
    <linearGradient
       id="c"
       x1="-8426"
       x2="-7417"
       y1="2635"
       y2="2635"
       gradientTransform="matrix(0.18377326,-0.39464671,-0.39464671,-0.18377326,2108.1179,-2215.2965)"
       gradientUnits="userSpaceOnUse">
      <stop
         offset="0"
         stop-color="#282661"
         id="stop6230" />
      <stop
         offset=".0955"
         stop-color="#662e8c"
         id="stop6232" />
      <stop
         offset=".788"
         stop-color="#9e2064"
         id="stop6234" />
      <stop
         offset=".949"
         stop-color="#cc2032"
         id="stop6236" />
    </linearGradient>
    <linearGradient
       id="d"
       x1="-8536"
       x2="-6842"
       y1="2821"
       y2="2821"
       gradientTransform="matrix(0.18377326,-0.39464671,-0.39464671,-0.18377326,2108.1179,-2215.2965)"
       gradientUnits="userSpaceOnUse">
      <stop
         offset=".323"
         stop-color="#9c2063"
         id="stop6239" />
      <stop
         offset=".63"
         stop-color="#c82037"
         id="stop6241" />
      <stop
         offset=".751"
         stop-color="#cc2135"
         id="stop6243" />
      <stop
         offset="1"
         stop-color="#e87726"
         id="stop6245" />
    </linearGradient>
    <linearGradient
       id="e"
       x1="-8412"
       x2="-7522"
       y1="2798"
       y2="2798"
       gradientTransform="matrix(0.18377326,-0.39464671,-0.39464671,-0.18377326,2108.1179,-2215.2965)"
       gradientUnits="userSpaceOnUse">
      <stop
         offset="0"
         stop-color="#282661"
         id="stop6248" />
      <stop
         offset=".0955"
         stop-color="#662e8c"
         id="stop6250" />
      <stop
         offset=".788"
         stop-color="#9e2064"
         id="stop6252" />
      <stop
         offset=".949"
         stop-color="#cc2032"
         id="stop6254" />
    </linearGradient>
    <linearGradient
       id="f"
       x1="-8536"
       x2="-6842"
       y1="2645"
       y2="2645"
       gradientTransform="matrix(0.18377326,-0.39464671,-0.39464671,-0.18377326,2108.1179,-2215.2965)"
       gradientUnits="userSpaceOnUse">
      <stop
         offset=".323"
         stop-color="#9c2063"
         id="stop6257" />
      <stop
         offset=".63"
         stop-color="#c82037"
         id="stop6259" />
      <stop
         offset=".751"
         stop-color="#cc2135"
         id="stop6261" />
      <stop
         offset="1"
         stop-color="#e87726"
         id="stop6263" />
    </linearGradient>
    <linearGradient
       id="g"
       x1="-8641"
       x2="-6947"
       y1="2654"
       y2="2654"
       gradientTransform="matrix(0.18377326,-0.39464671,-0.39464671,-0.18377326,2108.1179,-2215.2965)"
       gradientUnits="userSpaceOnUse">
      <stop
         offset=".323"
         stop-color="#9c2063"
         id="stop6266" />
      <stop
         offset=".63"
         stop-color="#c82037"
         id="stop6268" />
      <stop
         offset=".751"
         stop-color="#cc2135"
         id="stop6270" />
      <stop
         offset="1"
         stop-color="#e87726"
         id="stop6272" />
    </linearGradient>
    <linearGradient
       id="i"
       x1="-8536"
       x2="-6842"
       y1="2593"
       y2="2593"
       gradientTransform="matrix(0.18377326,-0.39464671,-0.39464671,-0.18377326,2108.1179,-2215.2965)"
       gradientUnits="userSpaceOnUse">
      <stop
         offset=".323"
         stop-color="#9c2063"
         id="stop6275" />
      <stop
         offset=".63"
         stop-color="#c82037"
         id="stop6277" />
      <stop
         offset=".751"
         stop-color="#cc2135"
         id="stop6279" />
      <stop
         offset="1"
         stop-color="#e87726"
         id="stop6281" />
    </linearGradient>
    <linearGradient
       id="k"
       x1="-8536"
       x2="-6842"
       y1="2599"
       y2="2599"
       gradientTransform="matrix(0.18377326,-0.39464671,-0.39464671,-0.18377326,2108.1179,-2215.2965)"
       gradientUnits="userSpaceOnUse">
      <stop
         offset=".323"
         stop-color="#9c2063"
         id="stop6284" />
      <stop
         offset=".63"
         stop-color="#c82037"
         id="stop6286" />
      <stop
         offset=".751"
         stop-color="#cc2135"
         id="stop6288" />
      <stop
         offset="1"
         stop-color="#e87726"
         id="stop6290" />
    </linearGradient>
    <linearGradient
       id="m"
       x1="-7584"
       x2="-7210"
       y1="2601"
       y2="2601"
       gradientTransform="matrix(0.18377326,-0.39464671,-0.39464671,-0.18377326,2108.1179,-2215.2965)"
       gradientUnits="userSpaceOnUse">
      <stop
         offset=".323"
         stop-color="#9c2063"
         id="stop6293" />
      <stop
         offset=".63"
         stop-color="#c82037"
         id="stop6295" />
      <stop
         offset=".751"
         stop-color="#cc2135"
         id="stop6297" />
      <stop
         offset="1"
         stop-color="#e87726"
         id="stop6299" />
    </linearGradient>
  </defs>
  <g
     transform="matrix(0.467,0,0,0.464,-32.61963,-215.85301)"
     id="g6352">
    <g
       transform="matrix(0.53372292,0,0,0.53372292,353.44715,507.37655)"
       id="g6346">
      <path
         fill="url(#a)"
         d="m 736,8.1 c -27.1,16 -72.2,61.3 -126,127 l 49.3,93.2 c 34.7,-49.5 69.9,-94.2 105,-132 2.8,-3 4.1,-4.4 4.1,-4.4 -1.3,1.4 -2.8,3 -4.1,4.4 -11.5,12.6 -46.4,53.4 -99,134 50.7,-2.5 128,-12.9 192,-23.7 19,-106 -18.5,-154 -18.5,-154 0,0 -47.6,-77 -103,-44.1 z"
         id="path6304"
         style="fill:url(#a)" />
      <path
         fill="none"
         d="m 652,540 c 0.3,-0.1 0.7,-0.1 1.1,-0.2 l -7.1,0.8 -1.2,0.6 c 2.3,-0.5 4.8,-0.9 7.2,-1.2 z m -50,167 c -4,0.9 -8.1,1.6 -12.3,2.3 4.2,-0.7 8.3,-1.5 12.3,-2.3 z m -343,374 c 0.5,-1.3 1,-2.8 1.5,-4.1 10.9,-28.7 21.7,-56.6 32.3,-83.8 11.9,-30.5 23.7,-60 35.5,-88.6 12.3,-30.1 24.5,-59.3 36.4,-87.5 12.5,-29.5 24.9,-58 37.1,-85.4 9.9,-22.3 19.6,-43.9 29.2,-64.8 3.2,-7 6.4,-13.9 9.6,-20.7 6.3,-13.6 12.5,-26.8 18.7,-39.8 5.7,-11.9 11.3,-23.6 17,-35.2 1.9,-3.8 3.7,-7.6 5.6,-11.4 0.3,-0.6 0.6,-1.2 0.9,-1.9 l -6.1,0.6 -4.8,-9.5 c -0.5,0.9 -0.9,1.9 -1.4,2.8 -8.6,17.3 -17.3,34.6 -25.8,52.1 -4.9,10.2 -9.8,20.4 -14.7,30.5 -13.5,28.3 -26.7,57 -39.8,85.6 -13.2,29.1 -26.1,58.3 -38.9,87.6 -12.4,28.8 -24.7,57.6 -36.6,86.3 -11.9,28.7 -23.6,57.3 -35,85.6 -11.9,29.6 -23.4,59 -34.6,88 -2.6,6.6 -5,13.1 -7.6,19.6 -9,23.4 -17.8,46.6 -26.3,69.4 l 7.6,15 6.8,-0.7 c 0.2,-0.7 0.5,-1.3 0.7,-2.1 11.1,-29.8 22,-59.1 32.7,-87.6 z"
         id="path6306" />
      <path
         fill="#bd202e"
         d="m 570,791 c -6.3,1.1 -12.7,2.3 -19.4,3.4 0,0 -0.1,0 -0.1,0.1 3.4,-0.5 6.7,-1 10,-1.5 3.1,-0.7 6.3,-1.3 9.5,-2 z"
         id="path6308" />
      <path
         d="m 570,791 c -6.3,1.1 -12.7,2.3 -19.4,3.4 0,0 -0.1,0 -0.1,0.1 3.4,-0.5 6.7,-1 10,-1.5 3.1,-0.7 6.3,-1.3 9.5,-2 z"
         id="path6310" />
      <path
         fill="#bd202e"
         d="m 587,710 c -0.1,0 -0.1,0 -0.1,0.1 1,-0.1 2.1,-0.3 3.1,-0.5 4.2,-0.6 8.3,-1.3 12.3,-2.3 -5,0.9 -10,1.8 -15.3,2.7 z"
         id="path6312" />
      <path
         d="m 587,710 c -0.1,0 -0.1,0 -0.1,0.1 1,-0.1 2.1,-0.3 3.1,-0.5 4.2,-0.6 8.3,-1.3 12.3,-2.3 -5,0.9 -10,1.8 -15.3,2.7 z"
         id="path6314" />
      <path
         fill="url(#b)"
         d="m 514,469 c 15,-28.1 30.2,-55.5 45.5,-82.1 15.9,-27.8 32.1,-54.6 48.4,-80.6 0.9,-1.5 2,-3.1 2.9,-4.6 16.1,-25.5 32.4,-50.1 48.7,-73.5 L 610.2,135 c -3.7,4.5 -7.4,9.1 -11.2,13.9 -14.3,17.8 -29,36.8 -44.2,57.1 -17.1,22.8 -34.6,47.2 -52.5,72.8 -16.4,23.6 -33.2,48.3 -50,74 -14.3,21.8 -28.5,44.2 -42.7,67.2 -0.5,0.8 -1,1.7 -1.5,2.6 l 64.3,127 C 486,522.1 500,495.2 514,469 Z"
         id="path6316"
         style="fill:url(#b)" />
      <path
         fill="url(#c)"
         d="m 221,1184 c -8.5,23.3 -17.1,47.2 -25.6,71.5 -0.1,0.3 -0.2,0.7 -0.4,1 -1.2,3.4 -2.5,6.9 -3.6,10.3 -5.8,16.4 -10.8,31.2 -22.3,64.7 18.9,8.6 34.1,31.4 48.5,57.2 -1.5,-26.7 -12.5,-51.8 -33.6,-71.2 93.3,4.2 174,-19.4 215,-87.6 3.7,-6.1 7.1,-12.4 10.2,-19.3 -18.9,24 -42.4,34.1 -86.5,31.7 -0.1,0 -0.2,0.1 -0.3,0.1 0.1,0 0.2,-0.1 0.3,-0.1 65,-29.1 97.5,-57 126,-103 6.8,-11 13.5,-22.9 20.3,-36.2 -56.8,58.3 -122,74.9 -192,62.3 l -52,5.7 c -1.7,4.4 -3.2,8.7 -4.9,13.1 z"
         id="path6318"
         style="fill:url(#c)" />
      <path
         fill="url(#d)"
         d="m 246,1068 c 11.2,-29 22.8,-58.4 34.6,-88 11.4,-28.4 23,-57 35,-85.6 12,-28.6 24.2,-57.5 36.6,-86.3 12.6,-29.3 25.6,-58.5 38.9,-87.6 13.1,-28.8 26.3,-57.4 39.8,-85.6 4.8,-10.2 9.8,-20.4 14.7,-30.5 8.5,-17.5 17.1,-34.9 25.8,-52.1 0.5,-0.9 0.9,-1.9 1.4,-2.8 l -64.3,-127 c -1,1.7 -2.1,3.5 -3.2,5.1 -15,24.5 -29.9,49.5 -44.5,75 -14.8,25.8 -29.3,52.1 -43.5,78.8 -11.9,22.5 -23.6,45.1 -35.1,68.1 -2.3,4.6 -4.5,9.3 -6.8,13.9 -14,28.9 -26.6,56.6 -38.1,83.5 -13,30.3 -24.4,59.3 -34.3,86.8 -6.6,18.1 -12.5,35.5 -18,52.3 -4.5,14.3 -8.7,28.7 -12.9,43 -9.6,33.6 -17.9,67.2 -24.7,101 l 64.6,128 c 8.5,-22.8 17.3,-46 26.3,-69.4 2.7,-6.7 5.1,-13.3 7.7,-19.7 z"
         id="path6320"
         style="fill:url(#d)" />
      <path
         fill="url(#e)"
         d="m 146,1034 c -8.1,40.8 -13.9,81.4 -16.8,122 l -0.3,4.2 c -20.2,-32.3 -74.1,-63.8 -74,-63.5 38.7,56 68,112 72.3,166 -20.7,4.2 -49,-1.9 -81.7,-13.9 34.1,31.4 59.7,40 69.8,42.4 -31.4,2 -64,23.5 -96.9,48.3 48.1,-19.6 87,-27.4 115,-21.1 -44.2,125 -19.60156,42.9402 -64.20156,189.9402 13.6,-4 21.7,-13.2 26.2,-25.5 7.9,-26.5 -8.59844,19.0598 73.20156,-208.9402 2.4,-6.5 4.7,-13.1 7.1,-19.6 0.6,-1.9 1.3,-3.7 2,-5.4 8.6,-24 17.7,-48.5 26.9,-73.5 2.1,-5.7 4.2,-11.4 6.4,-17.1 0,-0.1 0.1,-0.2 0.1,-0.3 l -64.7,-128 c -0.2,1.3 -0.5,2.8 -0.8,4.3 z"
         id="path6322"
         style="fill:url(#e)"
         sodipodi:nodetypes="cscccccccccccccccccc" />
      <path
         fill="url(#f)"
         d="m 482,560 c -1.9,3.8 -3.7,7.6 -5.6,11.4 -5.6,11.5 -11.2,23.2 -17,35.2 -6.2,13 -12.4,26.2 -18.7,39.8 -3.2,6.8 -6.4,13.7 -9.6,20.7 -9.6,20.9 -19.3,42.5 -29.2,64.8 -12.1,27.3 -24.6,55.8 -37.1,85.4 -11.9,28.2 -24.2,57.3 -36.4,87.5 -11.7,28.6 -23.5,58.2 -35.5,88.6 -10.7,27.1 -21.5,55.1 -32.3,83.8 -0.5,1.3 -1,2.8 -1.5,4.1 -10.8,28.5 -21.7,57.8 -32.6,87.8 -0.2,0.7 -0.5,1.3 -0.7,2.1 l 52,-5.7 c -1,-0.2 -2.1,-0.3 -3.1,-0.5 62.1,-7.7 145,-54.2 198,-112 24.6,-26.4 46.9,-57.6 67.5,-94.1 15.3,-27.1 29.8,-57.3 43.6,-90.6 12,-29.1 23.5,-60.7 34.6,-94.8 -14.3,7.5 -30.6,13.1 -48.6,16.9 -3.2,0.7 -6.4,1.3 -9.7,1.9 -3.3,0.6 -6.6,1.1 -10,1.5 0,0 0.1,0 0.1,-0.1 58,-22.3 94.5,-65.3 121,-118 -15.2,10.4 -40,24 -69.7,30.5 -4,0.9 -8.1,1.6 -12.3,2.3 -1,0.1 -2.1,0.3 -3.1,0.5 h 0.2 c 20.2,-8.4 37.1,-17.9 51.8,-29 3.2,-2.4 6.3,-4.8 9.1,-7.4 4.5,-3.9 8.7,-8 12.9,-12.2 2.6,-2.8 5.1,-5.6 7.6,-8.5 5.8,-6.9 11.2,-14.3 16.2,-22.3 1.5,-2.5 3.1,-4.9 4.5,-7.5 2,-3.7 3.8,-7.4 5.6,-10.9 8.1,-16.2 14.6,-30.8 19.7,-43.5 2.6,-6.4 4.8,-12.2 6.8,-17.8 0.8,-2.2 1.5,-4.3 2.2,-6.4 2.1,-6.1 3.7,-11.5 5,-16.3 2,-7.2 3.2,-12.9 3.8,-17 -2,1.5 -4.2,3.1 -6.8,4.6 -17.5,10.5 -47.5,19.9 -71.7,24.4 l 47.7,-5.2 -47.7,5.2 c -0.3,0.1 -0.7,0.1 -1.1,0.2 -2.5,0.4 -4.8,0.8 -7.3,1.1 l 1.2,-0.6 -163,17.9 c 0,0.4 -0.3,1.1 -0.6,1.7 z"
         id="path6324"
         style="fill:url(#f)" />
      <path
         fill="url(#g)"
         d="m 666,230 c -14.5,22.3 -30.3,47.6 -47.5,76.3 -0.9,1.4 -1.9,3.1 -2.7,4.5 -14.7,24.8 -30.3,52 -46.9,81.9 -14.2,25.8 -29,53.4 -44.4,83.1 -13.4,25.9 -27.2,53.4 -41.5,82.5 l 163,-17.9 c 47.6,-21.9 68.8,-41.6 89.4,-70.3 5.4,-7.9 11,-16.1 16.4,-24.7 16.8,-26.2 33.2,-55 47.9,-83.7 14.2,-27.7 26.7,-55.1 36.3,-79.9 6.1,-15.7 11,-30.3 14.4,-43.2 3,-11.3 5.3,-22.1 7.1,-32.4 -63.3,10.9 -141,21.3 -192,23.8 z"
         id="path6326"
         style="fill:url(#g)" />
      <use
         xlink:href="#h"
         id="use6328" />
      <use
         xlink:href="#h"
         opacity="0.35"
         id="use6330" />
      <path
         fill="url(#i)"
         d="m 560,793 c -3.3,0.6 -6.6,1.1 -10,1.5 3.4,-0.3 6.8,-0.9 10,-1.5 z"
         id="path6332"
         style="fill:url(#i)" />
      <use
         xlink:href="#j"
         id="use6334" />
      <use
         xlink:href="#j"
         opacity="0.35"
         id="use6336" />
      <path
         fill="url(#k)"
         d="m 587,710 c 1,-0.1 2.1,-0.3 3.1,-0.5 -1,0.1 -2,0.4 -3.1,0.5 z"
         id="path6338"
         style="fill:url(#k)" />
      <use
         xlink:href="#l"
         id="use6340" />
      <use
         xlink:href="#l"
         opacity="0.35"
         id="use6342" />
      <path
         fill="url(#m)"
         d="m 587,710 c 0.1,0 0.1,-0.1 0,0 0.1,-0.1 0.1,0 0,0 z"
         id="path6344"
         style="fill:url(#m)" />
    </g>
    <path
       fill="#aa0000"
       d="m 619.7178,1429.7384 c -1.4421,-0.2591 -6.89147,-1.6591 -7.72099,-1.9845 -2.00363,-0.7721 -8.86958,-4.2944 -9.69911,-4.958 -1.07839,-0.887 -1.21877,-0.9955 -3.18411,-2.4631 -1.94621,-1.4485 -6.11937,-5.628 -7.59338,-7.5934 -0.6196,-0.8295 -1.29534,-1.7229 -1.50592,-1.9717 -0.20802,-0.2527 -0.55642,-0.6764 -0.7721,-0.9444 -0.45815,-0.5609 -4.33269,-7.0829 -4.33269,-7.3381 0,-0.079 -0.40264,-1.0401 -0.89334,-2.1377 -0.49261,-1.0975 -1.19324,-2.8459 -1.55058,-3.886 -0.3618,-1.0401 -0.804,-2.2333 -0.98267,-2.648 -0.40009,-0.9317 -1.49315,-6.0747 -1.88877,-8.8696 -0.41732,-2.9736 -0.40456,-11.1029 0.0217,-13.783 1.12306,-7.019 2.01001,-10.0181 4.57517,-15.5058 0.39562,-0.8486 0.72105,-1.742 0.72105,-1.9845 0,-0.2463 0.17038,-0.4479 0.3784,-0.4479 0.20802,0 0.37839,-0.2195 0.37839,-0.4888 0,-0.2686 1.05286,-2.0802 2.33544,-4.0264 2.08021,-3.1586 6.82766,-8.4229 9.95435,-10.9753 3.23516,-2.6928 9.63529,-6.1959 13.46389,-7.4019 1.12305,-0.3459 2.46944,-0.7785 2.9863,-0.9572 1.92068,-0.6636 5.61527,-1.1486 10.40101,-1.3591 6.17042,-0.2751 12.63437,0.5302 17.22868,2.144 3.41383,1.206 6.50861,2.6481 6.76385,3.1139 0.0695,0.1563 0.29161,0.284 0.49325,0.284 0.79762,0 5.09203,3.2543 7.65719,5.8067 2.97992,2.9607 4.9325,5.5514 6.50861,8.6143 0.96991,1.9143 0.98267,2.0036 0.30373,2.4694 -0.38669,0.2668 -0.88057,0.6184 -1.09753,0.7785 -0.21695,0.1602 -0.84229,0.552 -1.38467,0.8614 -0.54239,0.3121 -1.76754,1.0529 -2.73107,1.6463 -1.95258,1.2061 -2.69916,1.1231 -3.27344,-0.3898 -1.60163,-4.2179 -8.93339,-11.1668 -13.97437,-13.1449 -5.51318,-2.2078 -8.86958,-2.865 -14.54866,-2.8587 -6.01089,0.01 -9.89054,0.7402 -14.67628,2.8077 -1.63991,0.7019 -5.14308,2.7949 -5.88327,3.5159 -0.27502,0.2674 -0.61577,0.4862 -0.75934,0.4862 -0.402,0 -4.60708,4.1541 -6.4448,6.3746 -2.00363,2.4057 -5.48127,8.6144 -6.30442,11.2306 -0.32671,1.0401 -0.74019,2.2333 -0.92524,2.6481 -1.60801,3.6627 -2.5524,12.5067 -1.96535,18.4411 0.40073,4.0455 1.2443,8.2952 1.97173,9.9543 0.18441,0.416 0.44794,1.1805 0.58641,1.7037 0.60939,2.2907 4.17317,8.9334 6.03642,11.2305 1.86325,2.3163 5.26432,5.8897 6.82766,7.1467 1.76753,1.4485 7.52957,5.041 8.04005,5.041 0.1391,0 0.68914,0.2316 1.23153,0.5118 0.53728,0.2801 2.49496,0.9188 4.35183,1.4165 2.83316,0.7594 4.18593,0.8998 8.48672,0.8615 7.21052,-0.064 11.74102,-1.3018 17.80296,-4.8368 3.95622,-2.3099 9.44387,-7.6572 11.35817,-11.1029 0.72743,-1.2954 1.49315,-2.361 1.70372,-2.3674 0.804,-0.011 8.10386,3.9754 8.10386,4.422 0,0.5297 -2.20144,4.7347 -2.63535,5.0283 -0.15314,0.104 -0.47411,0.5615 -0.71467,1.0145 -0.89972,1.7165 -5.04098,5.7621 -8.93339,8.742 -2.06744,1.5825 -7.52957,4.3646 -11.35816,5.762 -5.04736,1.8569 -8.10386,2.3546 -15.12295,2.4631 -3.74564,0.057 -7.21052,0.028 -7.721,-0.066 z m -301.82084,-0.529 c 0,-0.2106 0.16399,-0.6764 0.36499,-1.0401 0.20037,-0.3612 0.72105,-1.5059 1.15496,-2.546 0.43455,-1.0401 0.93801,-2.2334 1.12306,-2.6481 0.18313,-0.4161 1.37191,-3.2224 2.64173,-6.2406 1.26981,-3.0183 2.46306,-5.8259 2.65449,-6.2407 0.18887,-0.416 0.78486,-1.8632 1.32086,-3.216 0.53856,-1.3527 1.12944,-2.8012 1.32087,-3.216 0.19143,-0.4148 0.70191,-1.608 1.14219,-2.6481 0.44221,-1.0401 1.04649,-2.4248 1.34639,-3.082 0.29991,-0.6573 0.53984,-1.3017 0.53984,-1.4421 0,-0.2144 0.72743,-1.9589 1.89515,-4.556 0.1876,-0.416 0.77848,-1.8632 1.32086,-3.216 0.54239,-1.3528 1.13582,-2.8013 1.32087,-3.216 0.18952,-0.4161 0.78486,-1.8633 1.32086,-3.216 0.53856,-1.3528 1.13582,-2.8013 1.32087,-3.2161 0.1876,-0.416 0.70191,-1.608 1.13582,-2.6481 0.43901,-1.0401 0.95076,-2.2333 1.12943,-2.6481 0.18314,-0.416 1.11667,-2.629 2.0802,-4.9134 0.95715,-2.2907 1.90154,-4.4986 2.08659,-4.9133 0.18696,-0.4161 1.0401,-2.4567 1.88877,-4.5369 0.85505,-2.0802 1.70373,-4.1221 1.88877,-4.5369 0.18569,-0.416 0.93163,-2.2014 1.65906,-3.969 4.07745,-9.8905 5.00908,-12.1238 5.91518,-14.1658 0.18441,-0.416 0.77848,-1.8632 1.32087,-3.216 0.54238,-1.3527 1.31448,-3.1841 1.72286,-4.0647 l 0.73382,-1.608 h 8.23147 l 0.84229,1.9845 c 1.05287,2.4695 2.20783,5.1495 2.6545,6.1449 1.28896,2.8906 1.88877,4.3391 1.88877,4.5369 0,0.2112 0.72743,1.927 2.10573,4.9708 0.29671,0.6572 0.53983,1.3017 0.53983,1.4421 0,0.2137 0.5845,1.6208 1.88877,4.556 1.28896,2.8906 1.88877,4.3391 1.88877,4.5369 0,0.127 0.35287,1.0273 0.78487,2.0036 0.43199,0.9763 1.0401,2.3738 1.34639,3.1012 0.31139,0.7274 0.71467,1.6654 0.89972,2.0802 0.18441,0.416 0.77848,1.8632 1.31448,3.216 0.53855,1.3528 1.12943,2.8013 1.31448,3.216 0.18569,0.4161 1.3783,3.2224 2.6545,6.2406 1.27619,3.0182 2.46944,5.8259 2.65449,6.2406 0.18568,0.4161 0.61449,1.4358 0.95076,2.2717 3.47764,8.5505 4.85594,11.8686 5.28985,12.8895 0.27948,0.6241 1.206,2.8332 2.06744,4.9134 0.85505,2.0802 1.7101,4.1221 1.89515,4.5369 0.18505,0.4147 0.69553,1.608 1.13582,2.6481 0.43901,1.0401 0.95076,2.2333 1.13581,2.6481 0.18505,0.4147 0.77848,1.8632 1.32087,3.216 0.53855,1.3528 1.13581,2.8013 1.32086,3.216 1.83135,4.0583 4.16041,9.7629 4.16041,10.2096 0,0.4582 -0.92524,0.552 -5.45575,0.552 -5.33451,0 -5.46213,-0.02 -5.71736,-0.8487 -0.23227,-0.7593 -1.1103,-2.897 -2.06106,-5.0091 -0.18761,-0.416 -0.78487,-1.8632 -1.32725,-3.216 -0.92524,-2.3035 -1.67182,-4.0838 -2.46306,-5.8641 -0.18441,-0.4161 -0.77848,-1.8633 -1.31449,-3.2161 -0.53855,-1.3527 -1.13581,-2.8012 -1.32086,-3.216 -1.14858,-2.546 -1.89516,-4.339 -1.89516,-4.5369 0,-0.1269 -0.31649,-0.9443 -0.70191,-1.8185 -0.38668,-0.8742 -0.938,-2.1377 -1.22515,-2.8141 l -0.52451,-1.2315 h -44.73075 l -0.76571,1.7994 c -0.41987,0.9891 -1.23154,2.9864 -1.79944,4.4412 -0.56919,1.4549 -1.35277,3.3628 -1.74201,4.237 -0.38924,0.8742 -0.70829,1.691 -0.70829,1.8186 0,0.2003 -0.74658,1.9908 -1.89516,4.5369 -0.1876,0.416 -0.77848,1.8632 -1.32086,3.216 -0.54239,1.3528 -1.13582,2.8012 -1.33363,3.216 -0.19398,0.416 -0.96991,2.2908 -1.71649,4.1604 -0.75295,1.8696 -1.45486,3.618 -1.56334,3.8733 -0.24886,0.6004 -11.10292,0.6891 -11.10292,0.089 z m 66.3623,-39.7535 c 0,-0.3612 -0.5577,-1.7229 -2.10573,-5.1431 -0.29671,-0.6572 -0.53983,-1.3081 -0.53983,-1.4549 0,-0.1454 -0.24758,-0.7976 -0.5494,-1.4548 -0.30246,-0.6573 -1.49954,-3.5734 -2.65449,-6.5086 -1.15496,-2.9098 -2.26526,-5.6345 -2.45669,-6.0492 -0.1927,-0.4161 -1.13581,-2.8013 -2.08658,-5.2962 -0.95715,-2.495 -1.88877,-4.8815 -2.07382,-5.2963 -0.18505,-0.416 -0.59088,-1.3527 -0.89972,-2.0802 -0.31139,-0.7274 -0.91886,-2.1248 -1.34639,-3.1011 -0.43136,-0.9763 -0.78486,-1.9143 -0.78486,-2.0802 0,-0.1672 -0.22206,-0.7275 -0.4907,-1.2507 -0.26864,-0.5201 -0.89972,-2.0547 -1.39744,-3.4011 -0.50027,-1.3527 -1.12943,-2.8842 -1.39743,-3.401 -0.26864,-0.5201 -0.48943,-1.1614 -0.4907,-1.4166 -0.006,-0.7976 -0.68915,-0.5252 -0.96353,0.3784 -0.14102,0.4677 -0.48177,1.3591 -0.75934,1.9845 -0.27502,0.624 -1.19963,2.8395 -2.05468,4.9133 -0.85505,2.0802 -2.05468,4.9708 -2.66087,6.4448 -0.60492,1.4549 -3.81583,9.1887 -7.14671,17.2287 -3.31812,7.9762 -6.3108,15.1868 -6.63623,15.9525 l -0.59981,1.4166 h 20.03631 c 13.78294,0 20.03631,-0.1245 20.03631,-0.3989 z m 37.07355,-10.5925 v -50.665 l 21.05727,0.01 c 22.01442,0.01 26.03444,0.2093 29.54399,1.525 2.49496,0.9316 6.35546,2.8459 7.0829,3.4968 0.27055,0.2508 1.05924,0.8806 1.75477,1.3974 4.88146,3.6308 9.57148,10.8477 11.29435,17.6116 1.72287,6.5086 1.01458,15.3782 -1.7101,21.5677 -3.91793,8.8696 -10.52864,14.9953 -18.82393,17.5477 -1.67181,0.506 -4.98993,0.6241 -20.99345,0.7466 l -19.01535,0.1423 v 37.3925 h -10.20959 v -50.665 z m 44.85837,3.7521 c 6.95528,-0.9636 12.63436,-6.2789 15.44199,-14.5487 0.96991,-2.8395 1.19325,-10.6563 0.39052,-13.8467 -1.09115,-4.2753 -3.0884,-7.8487 -6.05556,-10.7839 -1.47401,-1.4549 -3.18411,-2.9034 -3.80945,-3.216 -0.62151,-0.3114 -1.21239,-0.6573 -1.32087,-0.7721 -0.10401,-0.1123 -0.95715,-0.5335 -1.88877,-0.938 -1.58887,-0.6828 -2.88421,-0.7402 -19.58964,-0.8551 l -17.86677,-0.1212 v 45.4326 h 15.82485 c 9.31625,0 17.10106,-0.1691 18.82392,-0.409 z m 21.18488,46.6449 c -0.0912,-0.1557 0.48624,-1.8122 1.28258,-3.6882 0.79763,-1.8696 2.91612,-6.9553 4.71555,-11.3581 1.79306,-4.371 3.49041,-8.4229 3.77117,-9.061 0.28076,-0.6241 1.21239,-2.8396 2.07382,-4.9134 1.50592,-3.6436 2.32268,-5.5769 3.03097,-7.2105 0.18378,-0.416 1.03372,-2.4566 1.88878,-4.5368 0.85505,-2.0803 1.78029,-4.2945 2.05467,-4.9134 0.27439,-0.619 1.3783,-3.2607 2.4503,-5.8641 1.07201,-2.5971 2.44392,-5.9216 3.04374,-7.402 1.28258,-3.1012 5.57698,-13.2724 6.06832,-14.3572 0.18569,-0.4161 0.77848,-1.8633 1.31448,-3.216 0.53856,-1.3528 1.12944,-2.8013 1.32087,-3.2161 0.1876,-0.416 0.70191,-1.608 1.1422,-2.6481 0.4422,-1.0401 1.04648,-2.4247 1.34638,-3.082 0.29672,-0.6572 0.53984,-1.3017 0.53984,-1.4421 0,-0.2138 0.58449,-1.6208 1.88877,-4.556 0.75296,-1.6846 1.83134,-4.288 2.66725,-6.4448 0.48879,-1.2507 1.04649,-2.4822 1.23792,-2.7438 0.24056,-0.3274 1.59524,-0.4729 4.41564,-0.4729 h 4.07107 l 0.49325,1.2316 c 0.98906,2.4694 5.33451,12.7619 6.38099,15.2505 0.18378,0.4161 1.03372,2.4567 1.8824,4.5369 0.84867,2.0802 1.7101,4.1221 1.90153,4.5369 0.19143,0.416 1.63992,3.9052 3.20964,7.7848 1.5761,3.8477 3.01821,7.3381 3.20326,7.721 0.18696,0.416 1.22515,2.8842 2.30353,5.4813 2.55878,6.1449 5.21327,12.4429 5.6408,13.4 0.18569,0.4161 0.69553,1.6081 1.13582,2.6482 0.43901,1.0401 0.95076,2.2333 1.13581,2.6481 0.1876,0.416 0.78486,1.8632 1.32725,3.2159 0.92524,2.3036 1.67182,4.0839 2.46306,5.8642 0.18441,0.416 0.77848,1.8632 1.32087,3.216 0.54238,1.3527 1.23153,2.9927 1.53143,3.6499 0.29927,0.6572 0.54366,1.3081 0.54366,1.4485 0,0.1429 0.51048,1.3655 1.13582,2.7119 0.62406,1.3464 1.13582,2.5396 1.13582,2.6545 0,0.1149 0.24439,0.7338 0.54366,1.3911 0.29926,0.6572 0.98905,2.2971 1.53143,3.6499 0.54239,1.3528 1.1422,2.8012 1.32725,3.216 1.3081,2.9097 1.89515,4.3582 1.89515,4.7092 0,0.6081 -10.40101,0.5373 -10.84768,-0.074 -0.20866,-0.2604 -1.86963,-4.1349 -3.68183,-8.6144 -1.81858,-4.4731 -3.52869,-8.6143 -3.80307,-9.2524 -0.27438,-0.6241 -0.94439,-2.2397 -1.48677,-3.5925 -0.54239,-1.3528 -1.1422,-2.8013 -1.32725,-3.216 -0.51303,-1.1359 -1.7101,-4.0009 -2.25887,-5.392 l -0.48495,-1.2315 -44.98599,0.1953 -2.23972,5.4812 c -1.23153,3.0182 -2.40564,5.8769 -2.60345,6.3619 -0.20036,0.4817 -0.36435,0.9571 -0.36435,1.0592 0,0.1621 -0.82315,2.1057 -1.89516,4.4922 -0.1876,0.4161 -0.78486,1.8633 -1.32724,3.2161 -0.54239,1.3527 -1.21239,2.9671 -1.48039,3.5924 -0.27311,0.6241 -1.05925,2.5397 -1.75477,4.2562 l -1.25706,3.1203 h -5.20051 c -2.85868,0 -5.2707,-0.1276 -5.36641,-0.2833 z m 65.7242,-39.6259 c 0,-0.1863 -1.30172,-3.4265 -2.42477,-6.0364 -0.26864,-0.624 -0.88696,-2.2397 -1.3783,-3.5925 -0.48878,-1.3527 -1.11029,-2.8842 -1.37829,-3.401 -0.26864,-0.5201 -0.48942,-1.0848 -0.4907,-1.2507 -0.006,-0.2635 -0.67,-1.8824 -1.89515,-4.6135 -0.1876,-0.416 -0.78486,-1.8632 -1.32725,-3.216 -0.54238,-1.3528 -1.206,-2.9671 -1.48039,-3.5925 -0.27247,-0.624 -0.81038,-1.9845 -1.19324,-3.0246 -0.38222,-1.0401 -0.91248,-2.3163 -1.18049,-2.8395 -0.26672,-0.5201 -0.48623,-1.0912 -0.4875,-1.2634 0,-0.1768 -0.24822,-0.8551 -0.54877,-1.5123 -0.30054,-0.6573 -1.1741,-2.8077 -1.93982,-4.7858 -0.76572,-1.9781 -1.68458,-4.2752 -2.0483,-5.1048 -0.36116,-0.8295 -0.89334,-2.0674 -1.18048,-2.7438 -0.65724,-1.5314 -1.08477,-1.4102 -1.72925,0.4945 -0.27693,0.8232 -0.66362,1.8314 -0.86143,2.2461 -0.19654,0.4161 -0.71467,1.608 -1.15496,2.6481 -0.43901,1.0401 -0.95077,2.2334 -1.1422,2.6482 -0.30756,0.6827 -4.42203,10.5286 -9.50768,22.7163 -1.0401,2.4949 -2.04191,4.8814 -2.22696,5.2962 -0.18505,0.4148 -1.03372,2.4567 -1.88239,4.5369 -0.84867,2.0802 -1.79306,4.3391 -2.09935,5.0218 -0.30629,0.6828 -0.55515,1.3209 -0.55515,1.4166 0,0.097 8.9972,0.1761 20.03631,0.1761 11.03912,0 20.03631,-0.091 20.03631,-0.2003 z m 126.98171,39.4345 c -0.10145,-0.2661 -0.14038,-23.0354 -0.0868,-50.6012 l 0.097,-50.0908 h 9.82673 l 0.0976,22.3973 0.0976,22.3973 h 59.34321 v -44.986 h 10.20958 v 101.4577 h -10.20958 v -47.2831 H 690.1141 l -0.19462,47.0917 -4.83041,0.1059 c -3.65631,0.08 -4.87508,-0.012 -5.01546,-0.3784 z m 102.09585,-50.2183 v -50.6651 h 66.36231 v 9.4439 h -56.34416 v 35.5421 h 49.13364 v 9.061 h -49.13364 v 37.8392 h 57.49277 v 9.4439 H 782.0502 Z"
       id="path6348"
       style="stroke-width:0;stroke:#ffffff;stroke-dasharray:none" />
  </g>
</svg>
