<?xml version="1.0" encoding="UTF-8" standalone="no"?>
<svg
   width="240"
   height="240"
   viewBox="0 0 240 240"
   version="1.1"
   preserveAspectRatio="xMidYMid"
   id="svg3074"
   inkscape:version="1.2.2 (b0a8486541, 2022-12-01)"
   sodipodi:docname="kafka.svg"
   xmlns:inkscape="http://www.inkscape.org/namespaces/inkscape"
   xmlns:sodipodi="http://sodipodi.sourceforge.net/DTD/sodipodi-0.dtd"
   xmlns="http://www.w3.org/2000/svg"
   xmlns:svg="http://www.w3.org/2000/svg"
   xmlns:rdf="http://www.w3.org/1999/02/22-rdf-syntax-ns#"
   xmlns:cc="http://creativecommons.org/ns#"
   xmlns:dc="http://purl.org/dc/elements/1.1/">
  <title
     id="title4230">Apache Kafka logo</title>
  <metadata
     id="metadata4232">
    <rdf:RDF>
      <cc:Work
         rdf:about="">
        <dc:format>image/svg+xml</dc:format>
        <dc:type
           rdf:resource="http://purl.org/dc/dcmitype/StillImage" />
        <dc:title>Apache Kafka logo</dc:title>
      </cc:Work>
    </rdf:RDF>
  </metadata>
  <defs
     id="defs4234" />
  <sodipodi:namedview
     pagecolor="#ffffff"
     bordercolor="#666666"
     borderopacity="1"
     objecttolerance="10"
     gridtolerance="10"
     guidetolerance="10"
     inkscape:pageopacity="0"
     inkscape:pageshadow="2"
     inkscape:window-width="2560"
     inkscape:window-height="1374"
     id="namedview3080"
     showgrid="false"
     inkscape:zoom="1.4038443"
     inkscape:cx="-299.53464"
     inkscape:cy="231.15099"
     inkscape:window-x="1050"
     inkscape:window-y="43"
     inkscape:window-maximized="1"
     inkscape:current-layer="g4243"
     inkscape:showpageshadow="2"
     inkscape:pagecheckerboard="0"
     inkscape:deskcolor="#d1d1d1" />
  <g
     transform="matrix(1.1458335,0,0,1.1458344,-8.815396,-4.3755997)"
     id="g4243"
     style="stroke:#ff0000;stroke-width:1.00014;stroke-dasharray:none">
    <path
       inkscape:connector-curvature="0"
       d="m 92.74751,23.757392 v 0 c -2.241603,-2.291505 -5.35403,-3.702646 -8.82102,-3.702646 -3.459217,0 -6.546144,1.411141 -8.759708,3.702646 h -0.05773 c -2.234611,2.274002 -3.621589,5.448084 -3.621589,8.955339 0,3.528085 1.386978,6.682227 3.621589,8.933851 l 0.05773,0.06246 c 2.213564,2.271567 5.300491,3.662996 8.759708,3.662996 3.46699,0 6.579417,-1.391429 8.82102,-3.662996 l 0.02736,-0.06246 c 2.244875,-2.251624 3.613314,-5.405766 3.613314,-8.933851 0,-3.507255 -1.368439,-6.681337 -3.613314,-8.955339 z M 83.92649,197.03685 v 0 c 3.46699,0 6.579417,-1.43728 8.82102,-3.68649 l 0.02736,-0.0649 c 2.244875,-2.24544 3.613314,-5.41973 3.613314,-8.90794 0,-3.5272 -1.368439,-6.68732 -3.613314,-8.97283 h -0.02736 c -2.241603,-2.313 -5.35403,-3.7113 -8.82102,-3.7113 -3.459217,0 -6.546144,1.3983 -8.759708,3.7113 h -0.05773 c -2.234611,2.28551 -3.621589,5.44563 -3.621589,8.97283 0,3.48821 1.386978,6.6625 3.621589,8.90794 l 0.05773,0.0649 c 2.213564,2.24921 5.300491,3.68649 8.759708,3.68649 z m 67.77404,-38.35322 v 0 c 3.08106,-0.82475 5.87106,-2.83668 7.57347,-5.88006 l 0.22956,-0.44485 v 0 c 1.51447,-2.88166 1.79249,-6.21412 0.98222,-9.17 -0.81636,-3.15767 -2.81567,-5.95892 -5.80052,-7.70082 l -0.17501,-0.12027 c -2.9084,-1.62603 -6.21894,-1.98003 -9.26059,-1.13623 -3.09365,0.78576 -5.87452,2.88254 -7.56755,5.90001 -1.71522,2.99839 -2.07333,6.44518 -1.25347,9.61837 0.84858,3.12224 2.83179,5.94143 5.79788,7.70325 h 0.0181 c 2.97201,1.74033 6.33368,2.05092 9.4552,1.2306 v 0 z M 96.685662,95.573577 v 0 c -3.265475,-3.313432 -7.771789,-5.390268 -12.759172,-5.390268 -4.980703,0 -9.47397,2.076836 -12.732632,5.390268 -3.250206,3.310088 -5.252804,7.875593 -5.252804,12.950843 0,5.07525 2.002598,9.66069 5.252804,13.00978 3.258662,3.29348 7.751929,5.35128 12.732632,5.35128 4.987383,0 9.493697,-2.0578 12.759172,-5.35128 3.256066,-3.34909 5.258678,-7.93453 5.258678,-13.00978 0,-5.07525 -2.002612,-9.640755 -5.258678,-12.950843 z M 89.510811,74.000341 v 0 c 7.238399,1.213318 13.740549,4.741402 18.709249,9.835699 h 0.0364 c 0.79069,0.801273 1.55958,1.683848 2.27384,2.566641 L 122.95099,79.0922 c -1.67103,-5.134171 -1.74763,-10.50206 -0.40592,-15.538319 1.77054,-6.739375 6.0659,-12.775174 12.50402,-16.555801 l 0.21092,-0.136684 c 6.36849,-3.666541 13.60691,-4.429047 20.14105,-2.62823 6.61693,1.804362 12.58657,6.195079 16.30176,12.737075 v 0.01909 c 3.69908,6.50655 4.4484,13.973651 2.68463,20.693981 -1.76027,6.740265 -6.07175,12.815061 -12.5038,16.575968 l -1.69654,1.018365 h -0.17183 c -5.95069,2.882549 -12.49099,3.333356 -18.49896,1.723732 -4.93296,-1.330733 -9.45779,-4.134637 -13.00147,-8.109986 l -12.40106,7.288769 c 1.42524,3.8389 2.21265,7.97352 2.21265,12.3443 0,4.34842 -0.78741,8.5444 -2.21265,12.40213 l 12.40106,7.26995 c 3.54368,-4.03783 8.06851,-6.77926 13.00147,-8.11265 6.62015,-1.84069 13.95455,-1.05847 20.36747,2.74475 l 0.41139,0.19474 v 0.0191 c 6.19326,3.82316 10.35169,9.71962 12.09236,16.38124 1.76377,6.68224 1.01446,14.15176 -2.68463,20.67139 l -0.22366,0.45434 v 0 l -0.0272,-0.0391 c -3.71432,6.28591 -9.56993,10.54349 -16.03374,12.3443 -6.62953,1.77822 -13.96743,1.01837 -20.37074,-2.72947 v -0.0519 c -6.43815,-3.78681 -10.73349,-9.83547 -12.50403,-16.56289 -1.3419,-5.01276 -1.26525,-10.38066 0.40592,-15.51484 l -12.42066,-7.29142 c -0.71426,0.88279 -1.48317,1.72638 -2.27384,2.52765 l -0.0364,0.0391 c -4.96871,5.07524 -11.470843,8.60332 -18.709251,9.77766 v 14.6028 c 5.159396,1.09724 9.776939,3.72281 13.396161,7.40573 v 0 l 0.0181,0.0388 c 4.85069,4.91264 7.85424,11.7568 7.85424,19.28172 0,7.50011 -3.00355,14.30529 -7.85424,19.24386 l -0.0181,0.0767 v 0 c -4.885549,4.93592 -11.584708,7.99324 -18.980528,7.99324 -7.356593,0 -14.075334,-3.05732 -18.94803,-7.99324 h -0.01819 v -0.0767 c -4.856377,-4.93857 -7.866707,-11.74375 -7.866707,-19.24386 0,-7.52492 3.01033,-14.36908 7.866707,-19.28172 v -0.0388 h 0.01819 c 3.61568,-3.68292 8.242635,-6.30849 13.384164,-7.40573 v -14.6028 c -7.239268,-1.17434 -13.728589,-4.70242 -18.690518,-9.77766 l -0.05091,-0.0391 c -6.195867,-6.32733 -10.076953,-15.04674 -10.076953,-24.70743 0,-9.64076 3.881086,-18.361052 10.076953,-24.688393 h 0.05091 c 4.961929,-5.094297 11.45125,-8.622381 18.690518,-9.8357 V 59.459111 C 73.21964,58.323786 68.59273,55.698214 64.977005,52.034337 h -0.01819 v -0.03909 c -4.856377,-4.958276 -7.866709,-11.756582 -7.866709,-19.282614 0,-7.486153 3.010332,-14.343829 7.866709,-19.281723 v 0 l 0.01819,-0.02 c 4.872696,-4.9556233 11.591439,-8.0105159 18.948074,-8.0105159 7.395777,0 14.094934,3.0548926 18.980481,8.0105159 v 0.02 h 0.0181 c 4.85068,4.937894 7.85424,11.79557 7.85424,19.281723 0,7.526032 -3.00356,14.324338 -7.85424,19.282614 l -0.0181,0.03909 c -3.61923,3.663877 -8.236762,6.289449 -13.396157,7.424793 z M 159.274,64.300659 159.16938,64.141387 c -1.71263,-2.935932 -4.44582,-4.89603 -7.46896,-5.74072 -3.12152,-0.842702 -6.48319,-0.489803 -9.47393,1.256516 h 0.0181 c -2.98483,1.723058 -4.98066,4.543134 -5.81661,7.699931 -0.81985,3.135088 -0.46174,6.600923 1.25348,9.619262 l 0.0573,0.07797 c 1.71937,2.978466 4.45495,4.977327 7.51051,5.782146 3.06716,0.882575 6.48909,0.509738 9.43566,-1.236579 l 0.15998,-0.07797 c 2.90142,-1.761827 4.83437,-4.54557 5.64051,-7.6029 0.82308,-3.154142 0.49393,-6.600922 -1.21192,-9.618381 v 0"
       style="fill:#231f20;fill-opacity:1;fill-rule:nonzero;stroke:#ffffff;stroke-width:3.16337;stroke-dasharray:none"
       id="path3139" />
  </g>
</svg>
