<?xml version="1.0" encoding="UTF-8" standalone="no"?>
<svg
   role="img"
   viewBox="-144.32 -224.32 472.65389 458.66081"
   version="1.1"
   id="svg1338"
   sodipodi:docname="kubernetes.svg"
   width="472.6539"
   height="458.66083"
   inkscape:version="1.2.2 (b0a8486541, 2022-12-01)"
   xmlns:inkscape="http://www.inkscape.org/namespaces/inkscape"
   xmlns:sodipodi="http://sodipodi.sourceforge.net/DTD/sodipodi-0.dtd"
   xmlns="http://www.w3.org/2000/svg"
   xmlns:svg="http://www.w3.org/2000/svg"
   xmlns:rdf="http://www.w3.org/1999/02/22-rdf-syntax-ns#"
   xmlns:cc="http://creativecommons.org/ns#"
   xmlns:dc="http://purl.org/dc/elements/1.1/">
  <defs
     id="defs1342" />
  <sodipodi:namedview
     id="namedview1340"
     pagecolor="#ffffff"
     bordercolor="#666666"
     borderopacity="1.0"
     inkscape:showpageshadow="2"
     inkscape:pageopacity="0.0"
     inkscape:pagecheckerboard="0"
     inkscape:deskcolor="#d1d1d1"
     showgrid="false"
     inkscape:zoom="1.9841269"
     inkscape:cx="155.98801"
     inkscape:cy="173.62801"
     inkscape:window-width="2560"
     inkscape:window-height="1374"
     inkscape:window-x="1050"
     inkscape:window-y="43"
     inkscape:window-maximized="1"
     inkscape:current-layer="svg1338" />
  <title
     id="title1318">Kubernetes logo</title>
  <g
     id="g1336"
     transform="matrix(1.8462588,0,0,1.8462588,-65.51281,173.33304)">
    <path
       fill="#ffffff"
       d="m 85.304,-204.478 93.973,44.872 23.22,100.85 -65.02,80.882 -104.298,0.01 -65.037,-80.868 23.197,-100.853 z"
       id="path1326" />
    <path
       fill="none"
       d="m 85.304,-204.478 93.973,44.872 23.22,100.85 -65.02,80.881 -104.298,0.011 -65.037,-80.868 23.197,-100.853 z"
       id="path1328" />
    <path
       fill="#326ce5"
       d="m 84.433,-215.362 a 17.14,17.14 0 0 0 -6.524,1.651 l -89.009,42.529 c -4.589,2.191 -8.077,6.528 -9.21,11.451 l -21.958,95.533 c -1.012,4.388 -0.158,9.168 2.31,12.944 0.301,0.462 0.622,0.911 0.968,1.343 l 61.61,76.603 c 3.175,3.947 8.214,6.354 13.306,6.352 l 98.801,-0.023 c 5.089,0.004 10.128,-2.398 13.307,-6.341 l 61.586,-76.613 c 3.178,-3.949 4.424,-9.359 3.29,-14.287 l -21.994,-95.532 c -1.133,-4.925 -4.621,-9.261 -9.208,-11.453 l -89.021,-42.506 a 17.214,17.214 0 0 0 -8.254,-1.651 z"
       id="path1330" />
    <path
       fill="#ffffff"
       d="m 85.142,-61.364 a 4.667,4.667 0 0 1 2.199,0.468 4.656,4.656 0 0 1 2.106,2.003 h 0.101 l 13.559,24.498 a 56.57,56.57 0 0 1 -5.42,1.514 c -10.368,2.355 -20.704,1.642 -30.064,-1.547 l 13.524,-24.454 h 0.023 a 4.704,4.704 0 0 1 3.972,-2.482 z M 61.909,-72.645 a 4.697,4.697 0 0 1 4.507,3.653 4.65,4.65 0 0 1 -0.261,2.892 l 0.08,0.102 -10.655,25.751 C 45.617,-46.64 37.682,-56.211 33.438,-67.954 l 27.502,-4.667 0.046,0.057 a 4.61,4.61 0 0 1 0.923,-0.081 z m 46.593,-0.114 c 0.365,-0.02 0.728,0.014 1.081,0.08 l 0.046,-0.057 27.743,4.689 c -4.061,11.407 -11.831,21.29 -22.211,27.903 l -10.768,-26.012 0.034,-0.046 a 4.701,4.701 0 0 1 2.277,-6.09 4.652,4.652 0 0 1 1.798,-0.467 z m -27.479,-22.79 h 8.572 l 5.327,6.66 -1.912,8.31 -7.697,3.7 -7.718,-3.71 -1.912,-8.31 z m 51.238,-20.15 a 55.569,55.569 0 0 1 6.864,16.768 55.43,55.43 0 0 1 1.162,17.862 l -26.956,-7.764 -0.023,-0.114 a 4.699,4.699 0 0 1 -3.335,-5.578 4.659,4.659 0 0 1 1.49,-2.494 l -0.01,-0.057 z m -94.041,-0.01 20.923,18.714 -0.023,0.114 a 4.69,4.69 0 0 1 0.592,6.466 4.715,4.715 0 0 1 -2.437,1.606 l -0.023,0.091 -26.819,7.741 a 54.855,54.855 0 0 1 7.787,-34.732 z m 53.776,-25.82 c 12.122,1.492 23.331,6.98 31.921,15.391 l -22.768,16.142 -0.08,-0.034 a 4.7,4.7 0 0 1 -6.442,-0.864 4.652,4.652 0 0 1 -1.025,-2.722 l -0.023,-0.01 z m -13.353,0 -1.583,27.947 -0.114,0.057 a 4.695,4.695 0 0 1 -4.688,4.497 4.675,4.675 0 0 1 -2.768,-0.898 l -0.044,0.023 -22.916,-16.246 c 7.042,-6.926 16.051,-12.044 26.431,-14.401 1.898,-0.43 3.793,-0.75 5.682,-0.979 z m 6.67,-41.323 c -2.942,0.002 -5.327,2.652 -5.327,5.92 0,0.051 0.011,0.099 0.013,0.149 -0.005,0.443 -0.027,0.978 -0.013,1.366 0.071,1.885 0.482,3.328 0.729,5.066 0.448,3.717 0.823,6.8 0.592,9.664 -0.226,1.081 -1.021,2.069 -1.731,2.755 l -0.127,2.254 a 69.515,69.515 0 0 0 -9.63,1.48 68.533,68.533 0 0 0 -34.811,19.888 90.731,90.731 0 0 1 -1.925,-1.366 c -0.952,0.128 -1.912,0.422 -3.164,-0.308 -2.383,-1.604 -4.555,-3.82 -7.182,-6.489 -1.204,-1.275 -2.076,-2.492 -3.508,-3.723 -0.324,-0.28 -0.82,-0.657 -1.183,-0.945 -1.119,-0.891 -2.437,-1.355 -3.712,-1.4 -1.636,-0.057 -3.214,0.584 -4.246,1.878 -1.834,2.3 -1.247,5.817 1.309,7.855 0.027,0.021 0.053,0.037 0.08,0.057 0.351,0.285 0.781,0.649 1.105,0.887 1.517,1.121 2.905,1.695 4.416,2.585 3.186,1.968 5.827,3.6 7.922,5.568 0.818,0.872 0.963,2.408 1.071,3.074 l 1.708,1.524 c -9.141,13.757 -13.372,30.749 -10.872,48.063 l -2.23,0.649 c -0.589,0.76 -1.42,1.955 -2.29,2.31 -2.741,0.863 -5.825,1.181 -9.55,1.571 -1.75,0.146 -3.259,0.059 -5.112,0.411 -0.408,0.076 -0.977,0.224 -1.423,0.329 l -0.046,0.013 c -0.023,0.005 -0.055,0.016 -0.078,0.021 -3.141,0.76 -5.159,3.646 -4.509,6.489 0.649,2.846 3.718,4.575 6.877,3.893 0.023,-0.005 0.055,-0.005 0.08,-0.01 0.036,-0.009 0.066,-0.025 0.101,-0.034 0.441,-0.098 0.993,-0.204 1.379,-0.308 1.821,-0.489 3.141,-1.206 4.781,-1.834 3.524,-1.263 6.444,-2.32 9.288,-2.732 1.188,-0.092 2.44,0.734 3.063,1.081 l 2.321,-0.398 c 5.345,16.568 16.544,29.961 30.726,38.363 l -0.968,2.323 c 0.348,0.902 0.733,2.122 0.473,3.013 -1.034,2.681 -2.805,5.511 -4.822,8.666 -0.977,1.458 -1.976,2.59 -2.856,4.258 -0.212,0.398 -0.48,1.012 -0.683,1.434 -1.37,2.931 -0.367,6.305 2.264,7.57 2.647,1.275 5.932,-0.07 7.355,-3.004 10e-4,-0.005 0.009,-0.007 0.01,-0.012 0.002,-0.002 -0.002,-0.007 0,-0.011 0.203,-0.416 0.489,-0.964 0.66,-1.355 0.756,-1.729 1.007,-3.211 1.537,-4.883 1.411,-3.541 2.184,-7.257 4.125,-9.571 0.532,-0.633 1.398,-0.878 2.296,-1.119 l 1.206,-2.186 c 12.364,4.746 26.202,6.019 40.027,2.881 a 69.517,69.517 0 0 0 9.141,-2.755 c 0.338,0.601 0.969,1.757 1.138,2.049 0.913,0.297 1.908,0.45 2.719,1.651 1.453,2.479 2.446,5.415 3.656,8.96 0.53,1.672 0.793,3.154 1.547,4.882 0.173,0.395 0.457,0.95 0.66,1.366 1.42,2.946 4.716,4.294 7.366,3.017 2.631,-1.266 3.636,-4.64 2.266,-7.57 -0.204,-0.421 -0.484,-1.035 -0.696,-1.433 -0.88,-1.668 -1.88,-2.789 -2.856,-4.246 -2.017,-3.156 -3.691,-5.778 -4.724,-8.46 -0.432,-1.382 0.073,-2.243 0.409,-3.141 -0.201,-0.231 -0.633,-1.537 -0.887,-2.152 14.738,-8.702 25.608,-22.594 30.713,-38.636 0.69,0.108 1.889,0.32 2.277,0.398 0.802,-0.528 1.539,-1.219 2.983,-1.105 2.844,0.411 5.765,1.468 9.291,2.732 1.638,0.628 2.958,1.357 4.781,1.845 0.384,0.103 0.935,0.199 1.377,0.295 0.036,0.009 0.067,0.027 0.103,0.034 0.023,0.005 0.057,0.007 0.078,0.012 3.159,0.679 6.227,-1.05 6.877,-3.894 0.649,-2.844 -1.368,-5.731 -4.507,-6.489 -0.457,-0.103 -1.105,-0.281 -1.55,-0.365 -1.853,-0.35 -3.362,-0.263 -5.11,-0.409 -3.725,-0.391 -6.811,-0.708 -9.552,-1.571 -1.117,-0.434 -1.912,-1.764 -2.3,-2.312 l -2.15,-0.626 a 68.782,68.782 0 0 0 -1.117,-24.874 68.975,68.975 0 0 0 -9.982,-23.074 c 0.551,-0.502 1.594,-1.425 1.889,-1.697 0.087,-0.955 0.012,-1.958 1.001,-3.017 2.096,-1.967 4.737,-3.598 7.924,-5.567 1.512,-0.889 2.91,-1.462 4.427,-2.583 0.343,-0.255 0.813,-0.657 1.172,-0.946 2.556,-2.039 3.145,-5.553 1.309,-7.855 -1.834,-2.3 -5.39,-2.517 -7.945,-0.477 -0.363,0.288 -0.857,0.663 -1.183,0.944 -1.432,1.231 -2.315,2.446 -3.518,3.723 -2.627,2.668 -4.799,4.895 -7.182,6.499 -1.034,0.602 -2.547,0.393 -3.234,0.352 l -2.026,1.446 c -11.555,-12.116 -27.287,-19.863 -44.226,-21.367 -0.048,-0.71 -0.11,-1.992 -0.127,-2.378 -0.692,-0.663 -1.53,-1.231 -1.741,-2.665 -0.231,-2.864 0.155,-5.946 0.603,-9.664 0.247,-1.738 0.66,-3.181 0.729,-5.066 0.016,-0.429 -0.009,-1.051 -0.01,-1.515 -0.002,-3.264 -2.385,-5.916 -5.329,-5.916 z"
       id="path1332" />
    <path
       fill="none"
       d="m 85.142,-61.364 a 4.667,4.667 0 0 1 2.199,0.468 4.656,4.656 0 0 1 2.106,2.003 h 0.101 l 13.559,24.498 a 56.57,56.57 0 0 1 -5.42,1.514 c -10.368,2.355 -20.704,1.642 -30.064,-1.547 l 13.524,-24.454 h 0.023 a 4.704,4.704 0 0 1 3.972,-2.482 z M 61.909,-72.645 a 4.697,4.697 0 0 1 4.507,3.653 4.65,4.65 0 0 1 -0.261,2.892 l 0.08,0.102 -10.655,25.751 C 45.617,-46.64 37.682,-56.211 33.438,-67.954 l 27.502,-4.667 0.046,0.057 a 4.61,4.61 0 0 1 0.923,-0.081 z m 46.593,-0.114 c 0.365,-0.02 0.728,0.014 1.081,0.08 l 0.046,-0.057 27.743,4.689 c -4.061,11.407 -11.831,21.29 -22.211,27.903 l -10.768,-26.012 0.034,-0.046 a 4.701,4.701 0 0 1 2.277,-6.09 4.652,4.652 0 0 1 1.798,-0.467 z m -27.479,-22.79 h 8.572 l 5.327,6.66 -1.912,8.31 -7.697,3.7 -7.718,-3.71 -1.912,-8.31 z m 51.238,-20.15 a 55.569,55.569 0 0 1 6.864,16.768 55.43,55.43 0 0 1 1.162,17.862 l -26.956,-7.764 -0.023,-0.114 a 4.699,4.699 0 0 1 -3.335,-5.578 4.659,4.659 0 0 1 1.49,-2.494 l -0.01,-0.057 z m -94.041,-0.01 20.923,18.714 -0.023,0.114 a 4.69,4.69 0 0 1 0.592,6.466 4.715,4.715 0 0 1 -2.437,1.606 l -0.023,0.091 -26.819,7.741 a 54.855,54.855 0 0 1 7.787,-34.732 z m 53.776,-25.82 c 12.122,1.492 23.331,6.98 31.921,15.391 l -22.768,16.142 -0.08,-0.034 a 4.7,4.7 0 0 1 -6.442,-0.864 4.652,4.652 0 0 1 -1.025,-2.722 l -0.023,-0.01 z m -13.353,0 -1.583,27.947 -0.114,0.057 a 4.695,4.695 0 0 1 -4.688,4.497 4.675,4.675 0 0 1 -2.768,-0.898 l -0.044,0.023 -22.916,-16.246 c 7.042,-6.926 16.051,-12.044 26.431,-14.401 1.898,-0.43 3.793,-0.75 5.682,-0.979 z m 6.67,-41.323 c -2.942,0.002 -5.327,2.652 -5.327,5.92 0,0.051 0.011,0.099 0.013,0.149 -0.005,0.443 -0.027,0.978 -0.013,1.366 0.071,1.885 0.482,3.328 0.729,5.066 0.448,3.717 0.823,6.8 0.592,9.664 -0.226,1.081 -1.021,2.069 -1.731,2.755 l -0.127,2.254 a 69.515,69.515 0 0 0 -9.63,1.48 68.533,68.533 0 0 0 -34.811,19.888 90.731,90.731 0 0 1 -1.925,-1.366 c -0.952,0.128 -1.912,0.422 -3.164,-0.308 -2.383,-1.604 -4.555,-3.82 -7.182,-6.489 -1.204,-1.275 -2.076,-2.492 -3.508,-3.723 -0.324,-0.28 -0.82,-0.657 -1.183,-0.945 -1.119,-0.891 -2.437,-1.355 -3.712,-1.4 -1.636,-0.057 -3.214,0.584 -4.246,1.878 -1.834,2.3 -1.247,5.817 1.309,7.855 0.027,0.021 0.053,0.037 0.08,0.057 0.351,0.285 0.781,0.649 1.105,0.887 1.517,1.121 2.905,1.695 4.416,2.585 3.186,1.968 5.827,3.6 7.922,5.568 0.818,0.872 0.963,2.408 1.071,3.074 l 1.708,1.524 c -9.141,13.757 -13.372,30.749 -10.872,48.063 l -2.23,0.649 c -0.589,0.76 -1.42,1.955 -2.29,2.31 -2.741,0.863 -5.825,1.181 -9.55,1.571 -1.75,0.146 -3.259,0.059 -5.112,0.411 -0.408,0.076 -0.977,0.224 -1.423,0.329 l -0.046,0.013 c -0.023,0.005 -0.055,0.016 -0.078,0.021 -3.141,0.76 -5.159,3.646 -4.509,6.489 0.649,2.846 3.718,4.575 6.877,3.893 0.023,-0.005 0.055,-0.005 0.08,-0.01 0.036,-0.009 0.066,-0.025 0.101,-0.034 0.441,-0.098 0.993,-0.204 1.379,-0.308 1.821,-0.489 3.141,-1.206 4.781,-1.834 3.524,-1.263 6.444,-2.32 9.288,-2.732 1.188,-0.092 2.44,0.734 3.063,1.081 l 2.321,-0.398 c 5.345,16.568 16.544,29.961 30.726,38.363 l -0.968,2.323 c 0.348,0.902 0.733,2.122 0.473,3.013 -1.034,2.681 -2.805,5.511 -4.822,8.666 -0.977,1.458 -1.976,2.59 -2.856,4.258 -0.212,0.398 -0.48,1.012 -0.683,1.434 -1.37,2.931 -0.367,6.305 2.264,7.57 2.647,1.275 5.932,-0.07 7.355,-3.004 10e-4,-0.005 0.009,-0.007 0.01,-0.012 0.002,-0.002 -0.002,-0.007 0,-0.011 0.203,-0.416 0.489,-0.964 0.66,-1.355 0.756,-1.729 1.007,-3.211 1.537,-4.883 1.411,-3.541 2.184,-7.257 4.125,-9.571 0.532,-0.633 1.398,-0.878 2.296,-1.119 l 1.206,-2.186 c 12.364,4.746 26.202,6.019 40.027,2.881 a 69.517,69.517 0 0 0 9.141,-2.755 c 0.338,0.601 0.969,1.757 1.138,2.049 0.913,0.297 1.908,0.45 2.719,1.651 1.453,2.479 2.446,5.415 3.656,8.96 0.53,1.672 0.793,3.154 1.547,4.882 0.173,0.395 0.457,0.95 0.66,1.366 1.42,2.946 4.716,4.294 7.366,3.017 2.631,-1.266 3.636,-4.64 2.266,-7.57 -0.204,-0.421 -0.484,-1.035 -0.696,-1.433 -0.88,-1.668 -1.88,-2.789 -2.856,-4.246 -2.017,-3.156 -3.691,-5.778 -4.724,-8.46 -0.432,-1.382 0.073,-2.243 0.409,-3.141 -0.201,-0.231 -0.633,-1.537 -0.887,-2.152 14.738,-8.702 25.608,-22.594 30.713,-38.636 0.69,0.108 1.889,0.32 2.277,0.398 0.802,-0.528 1.539,-1.219 2.983,-1.105 2.844,0.411 5.765,1.468 9.291,2.732 1.638,0.628 2.958,1.357 4.781,1.845 0.384,0.103 0.935,0.199 1.377,0.295 0.036,0.009 0.067,0.027 0.103,0.034 0.023,0.005 0.057,0.007 0.078,0.012 3.159,0.679 6.227,-1.05 6.877,-3.894 0.649,-2.844 -1.368,-5.731 -4.507,-6.489 -0.457,-0.103 -1.105,-0.281 -1.55,-0.365 -1.853,-0.35 -3.362,-0.263 -5.11,-0.409 -3.725,-0.391 -6.811,-0.708 -9.552,-1.571 -1.117,-0.434 -1.912,-1.764 -2.3,-2.312 l -2.15,-0.626 a 68.782,68.782 0 0 0 -1.117,-24.874 68.975,68.975 0 0 0 -9.982,-23.074 c 0.551,-0.502 1.594,-1.425 1.889,-1.697 0.087,-0.955 0.012,-1.958 1.001,-3.017 2.096,-1.967 4.737,-3.598 7.924,-5.567 1.512,-0.889 2.91,-1.462 4.427,-2.583 0.343,-0.255 0.813,-0.657 1.172,-0.946 2.556,-2.039 3.145,-5.553 1.309,-7.855 -1.834,-2.3 -5.39,-2.517 -7.945,-0.477 -0.363,0.288 -0.857,0.663 -1.183,0.944 -1.432,1.231 -2.315,2.446 -3.518,3.723 -2.627,2.668 -4.799,4.895 -7.182,6.499 -1.034,0.602 -2.547,0.393 -3.234,0.352 l -2.026,1.446 c -11.555,-12.116 -27.287,-19.863 -44.226,-21.367 -0.048,-0.71 -0.11,-1.992 -0.127,-2.378 -0.692,-0.663 -1.53,-1.231 -1.741,-2.665 -0.231,-2.864 0.155,-5.946 0.603,-9.664 0.247,-1.738 0.66,-3.181 0.729,-5.066 0.016,-0.429 -0.009,-1.051 -0.01,-1.515 -0.002,-3.264 -2.385,-5.916 -5.329,-5.916 z"
       id="path1334" />
  </g>
  <metadata
     id="metadata1461">
    <rdf:RDF>
      <cc:Work
         rdf:about="">
        <dc:title>Kubernetes logo</dc:title>
      </cc:Work>
    </rdf:RDF>
  </metadata>
</svg>
