<svg xmlns="http://www.w3.org/2000/svg" xmlns:xlink="http://www.w3.org/1999/xlink" width="1000" height="1192.327"><defs><linearGradient id="r"><stop offset="0" style="stop-color:#b98309"/><stop offset="1" style="stop-color:#382605"/></linearGradient><linearGradient id="s"><stop offset="0" style="stop-color:#ebc40c"/><stop offset="1" style="stop-color:#ebc40c;stop-opacity:0"/></linearGradient><linearGradient id="p"><stop offset="0" style="stop-color:#7c7c7c"/><stop offset="1" style="stop-color:#7c7c7c;stop-opacity:.32941177"/></linearGradient><linearGradient id="z"><stop offset="0" style="stop-color:#110800"/><stop offset="0.59066743" style="stop-color:#a65a00;stop-opacity:.80000001"/><stop offset="1" style="stop-color:#ff921e;stop-opacity:0"/></linearGradient><linearGradient id="k"><stop offset="0" style="stop-color:#000"/><stop offset="1" style="stop-color:#000;stop-opacity:0"/></linearGradient><linearGradient id="l"><stop offset="0" style="stop-color:#3e2a06"/><stop offset="1" style="stop-color:#ad780a"/></linearGradient><linearGradient id="o"><stop offset="0" style="stop-color:#f3cd0c"/><stop offset="1" style="stop-color:#f3cd0c;stop-opacity:0"/></linearGradient><linearGradient id="y"><stop offset="0" style="stop-color:#000"/><stop offset="1" style="stop-color:#000;stop-opacity:.24886878"/></linearGradient><linearGradient id="x"><stop offset="0" style="stop-color:#c8c8c8"/><stop offset="1" style="stop-color:#797978"/></linearGradient><linearGradient id="v"><stop offset="0" style="stop-color:#d2940a"/><stop offset="0.75143719" style="stop-color:#d89c08"/><stop offset="0.86579126" style="stop-color:#b67e07"/><stop offset="1" style="stop-color:#946106"/></linearGradient><linearGradient id="g"><stop offset="0" style="stop-color:#ad780a"/><stop offset="0.11972899" style="stop-color:#d89e08"/><stop offset="0.25514477" style="stop-color:#edb80b"/><stop offset="0.39194193" style="stop-color:#ebc80d"/><stop offset="0.52741116" style="stop-color:#f5d838"/><stop offset="0.76906693" style="stop-color:#f6d811"/><stop offset="1" style="stop-color:#f5cd31"/></linearGradient><linearGradient id="w"><stop offset="0" style="stop-color:#3a2903"/><stop offset="0.55472803" style="stop-color:#735208"/><stop offset="1" style="stop-color:#ac8c04"/></linearGradient><linearGradient id="i"><stop offset="0" style="stop-color:#f5ce2d"/><stop offset="1" style="stop-color:#d79b08"/></linearGradient><linearGradient id="f"><stop offset="0" style="stop-color:#757574;stop-opacity:0"/><stop offset="0.26291031" style="stop-color:#757574"/><stop offset="0.5" style="stop-color:#757574"/><stop offset="1" style="stop-color:#757574;stop-opacity:0"/></linearGradient><linearGradient id="e"><stop offset="0" style="stop-color:#646464;stop-opacity:0"/><stop offset="0.30628255" style="stop-color:#646464;stop-opacity:.5825243"/><stop offset="0.47000006" style="stop-color:#646464"/><stop offset="0.72834015" style="stop-color:#646464;stop-opacity:.25728154"/><stop offset="1" style="stop-color:#646464;stop-opacity:0"/></linearGradient><linearGradient id="b"><stop offset="0" style="stop-color:#747474"/><stop offset="0.125" style="stop-color:#8c8c8c"/><stop offset="0.25" style="stop-color:#a4a4a4"/><stop offset="0.5" style="stop-color:#d4d4d4"/><stop offset="0.61919296" style="stop-color:#d4d4d4"/><stop offset="1" style="stop-color:#7c7c7c"/></linearGradient><linearGradient id="a"><stop offset="0" style="stop-color:#949494;stop-opacity:.39215687"/><stop offset="0.5" style="stop-color:#949494"/><stop offset="1" style="stop-color:#949494;stop-opacity:.39215687"/></linearGradient><linearGradient id="u"><stop offset="0" style="stop-color:#020204"/><stop offset="0.73448181" style="stop-color:#020204"/><stop offset="1" style="stop-color:#5c5c5c"/></linearGradient><linearGradient id="t"><stop offset="0" style="stop-color:#fefefc"/><stop offset="0.75733864" style="stop-color:#fefefc"/><stop offset="1" style="stop-color:#d4d4d4"/></linearGradient><linearGradient xlink:href="#a" id="ay" x1="213.01591" x2="219.73343" y1="132.76981" y2="140.72476" gradientTransform="matrix(4.01366 0 0 4.01366 -309.004 -312.813)" gradientUnits="userSpaceOnUse"/><linearGradient xlink:href="#b" id="aA" x1="337.25" x2="358.625" y1="119.98718" y2="132.48718" gradientTransform="translate(-250)" gradientUnits="userSpaceOnUse"/><linearGradient xlink:href="#e" id="aB" x1="294.50998" x2="308.74051" y1="114.56181" y2="127.99684" gradientTransform="matrix(4.01366 0 0 4.01366 -630.097 -312.813)" gradientUnits="userSpaceOnUse"/><linearGradient xlink:href="#e" id="av" x1="253.22745" x2="266.62701" y1="115.66637" y2="128.57106" gradientTransform="matrix(4.01366 0 0 4.01366 -630.097 -312.813)" gradientUnits="userSpaceOnUse"/><linearGradient xlink:href="#f" id="as" x1="164.04878" x2="169.8824" y1="132.06271" y2="142.49252" gradientTransform="matrix(4.01366 0 0 4.01366 -268.868 -312.813)" gradientUnits="userSpaceOnUse"/><linearGradient xlink:href="#g" id="aG" x1="256.85657" x2="313.3367" y1="158.31404" y2="157.8721" gradientTransform="matrix(4.01366 0 0 4.01366 -670.234 -312.813)" gradientUnits="userSpaceOnUse"/><linearGradient xlink:href="#i" id="aL" x1="243.03125" x2="243.46875" y1="157.01843" y2="159.76843" gradientUnits="userSpaceOnUse"/><linearGradient xlink:href="#k" id="X" x1="338.28552" x2="341.98224" y1="323.90076" y2="351.48654" gradientTransform="matrix(4.12155 0 0 4.01366 -712.966 -312.813)" gradientUnits="userSpaceOnUse"/><linearGradient xlink:href="#l" id="Y" x1="442.03912" x2="490.12241" y1="371.54401" y2="293.58548" gradientTransform="matrix(4.01366 0 0 4.01366 -1071.6 -312.813)" gradientUnits="userSpaceOnUse"/><linearGradient xlink:href="#o" id="ae" x1="355.16373" x2="353.74951" y1="289.58905" y2="302.31699" gradientTransform="translate(-150 -60.362)" gradientUnits="userSpaceOnUse"/><linearGradient xlink:href="#p" id="aq" x1="358.5" x2="361.5" y1="279.36218" y2="279.23718" gradientUnits="userSpaceOnUse"/><linearGradient xlink:href="#r" id="af" x1="123.13397" x2="170.86368" y1="301.54044" y2="381.62027" gradientTransform="matrix(4.01366 0 0 4.01366 -389.277 -312.813)" gradientUnits="userSpaceOnUse"/><linearGradient xlink:href="#s" id="ak" x1="171.57079" x2="186.5968" y1="323.99109" y2="352.27536" gradientTransform="matrix(4.01366 0 0 4.01366 -391.405 -319.909)" gradientUnits="userSpaceOnUse"/><linearGradient xlink:href="#r" id="A" x1="123.13397" x2="170.86368" y1="301.54044" y2="381.62027" gradientUnits="userSpaceOnUse"/><linearGradient xlink:href="#l" id="B" x1="442.03912" x2="490.12241" y1="371.54401" y2="293.58548" gradientTransform="translate(-250 -58.362)" gradientUnits="userSpaceOnUse"/><linearGradient xlink:href="#l" id="C" x1="442.03912" x2="490.12241" y1="371.54401" y2="293.58548" gradientTransform="matrix(.87491 0 0 .81149 -158.36 15.227)" gradientUnits="userSpaceOnUse"/><linearGradient xlink:href="#l" id="D" x1="442.03912" x2="490.12241" y1="371.54401" y2="293.58548" gradientTransform="translate(-500 -116.724)" gradientUnits="userSpaceOnUse"/><filter id="ah" width="1.215018" height="1.2169911" x="-0.10750898" y="-0.10849553"><feGaussianBlur stdDeviation="3.9237191"/></filter><filter id="aj"><feGaussianBlur stdDeviation="2.4365744"/></filter><filter id="W" width="1.2020705" height="1.0853395" x="-0.10103524" y="-0.042669769"><feGaussianBlur stdDeviation="1.1322032"/></filter><filter id="L" width="1.9386586" height="1.5474488" x="-0.46932927" y="-0.27372435"><feGaussianBlur stdDeviation="0.85991809"/></filter><filter id="M" width="2.2077935" height="1.9645272" x="-0.60389674" y="-0.48226368"><feGaussianBlur stdDeviation="2.6400036"/></filter><filter id="aa" width="1.2900307" height="1.2859976" x="-0.14501533" y="-0.14299878"><feGaussianBlur stdDeviation="4.7787162"/></filter><filter id="ac" width="1.2305853" height="1.2498901" x="-0.11529266" y="-0.12494507"><feGaussianBlur stdDeviation="3.1725155"/></filter><filter id="O" width="1.3550917" height="1.3188565" x="-0.17754583" y="-0.15942827"><feGaussianBlur stdDeviation="0.90083196"/></filter><filter id="K" width="2.6331918" height="1.1156476" x="-0.81659585" y="-0.057823781"><feGaussianBlur stdDeviation="1.4463082"/></filter><filter id="U" width="1.2350631" height="1.0800927" x="-0.11753157" y="-0.040046327"><feGaussianBlur stdDeviation="1.352085"/></filter><filter id="aE" width="1.3096611" height="1.429882" x="-0.1548306" y="-0.21494099"><feGaussianBlur stdDeviation="0.89858666"/></filter><filter id="aF"><feGaussianBlur stdDeviation="0.75821369"/></filter><filter id="aH" width="1.3219118" height="1.260552" x="-0.16095592" y="-0.13027605"><feGaussianBlur stdDeviation="0.84878819"/></filter><filter id="ax" width="1.3159075" height="1.4183974" x="-0.15795375" y="-0.2091987"><feGaussianBlur stdDeviation="0.24891089"/></filter><filter id="N" width="1.5843594" height="1.6165009" x="-0.2921797" y="-0.30825046"><feGaussianBlur stdDeviation="1.7403319"/></filter><filter id="S"><feGaussianBlur stdDeviation="0.93152507"/></filter><filter id="Q" width="1.1527554" height="1.2583811" x="-0.07637769" y="-0.12919053"><feGaussianBlur stdDeviation="2.0355046"/></filter><radialGradient xlink:href="#t" id="ar" cx="223.19559" cy="137.66095" r="14.572236" fx="223.19559" fy="137.66095" gradientTransform="matrix(3.2721 -.1377 .11884 5.009 -346.881 -419.347)" gradientUnits="userSpaceOnUse"/><radialGradient xlink:href="#t" id="aw" cx="223.19559" cy="137.66095" r="14.572236" fx="223.19559" fy="137.66095" gradientTransform="matrix(4.35795 -.1377 .1583 5.009 -447.644 -419.347)" gradientUnits="userSpaceOnUse"/><radialGradient xlink:href="#u" id="aC" cx="275.53763" cy="150.65126" r="15.382211" fx="275.53763" fy="150.65126" gradientTransform="matrix(2.80093 -2.0356 1.84765 2.54225 -598.397 457.93)" gradientUnits="userSpaceOnUse"/><radialGradient xlink:href="#v" id="aD" cx="294.48483" cy="193.09949" r="31.111488" fx="294.48483" fy="193.09949" gradientTransform="matrix(3.75755 -1.55088 1.08903 2.63854 -808.605 276.084)" gradientUnits="userSpaceOnUse"/><radialGradient xlink:href="#w" id="aI" cx="77.67215" cy="147.09335" r="3.2300935" fx="77.67215" fy="147.09335" gradientTransform="matrix(4.01366 0 0 2.34129 172.635 -66.31)" gradientUnits="userSpaceOnUse"/><radialGradient xlink:href="#w" id="aJ" cx="63.125401" cy="147.44128" r="1.5350333" fx="63.125401" fy="147.44128" gradientTransform="matrix(4.01366 0 0 4.31517 172.635 -357.34)" gradientUnits="userSpaceOnUse"/><radialGradient xlink:href="#x" id="au" cx="268.06998" cy="126.53491" r="35.51144" fx="268.06998" fy="126.53491" gradientTransform="matrix(.20141 -.03316 .03065 .18616 -3.126 114.036)" gradientUnits="userSpaceOnUse"/><radialGradient xlink:href="#y" id="H" cx="336.22372" cy="220.53755" r="27.391165" fx="336.22372" fy="220.53755" gradientTransform="matrix(-3.23585 0 0 3.06387 1369.906 -111.247)" gradientUnits="userSpaceOnUse"/><radialGradient xlink:href="#y" id="I" cx="312.14502" cy="236.36569" r="27.391165" fx="312.14502" fy="236.36569" gradientTransform="matrix(4.01366 0 0 3.06387 -670.234 -111.247)" gradientUnits="userSpaceOnUse"/><radialGradient xlink:href="#y" id="J" cx="275.55389" cy="225.13487" r="10.84542" fx="275.55389" fy="225.13487" gradientTransform="matrix(4.01366 0 0 4.29153 -670.234 -372.456)" gradientUnits="userSpaceOnUse"/><radialGradient xlink:href="#z" id="al" cx="363.33957" cy="303.41541" r="16.845654" fx="363.33957" fy="303.41541" gradientTransform="matrix(5.25067 1.4069 -1.47683 5.51164 -672.28 -1277.492)" gradientUnits="userSpaceOnUse"/><radialGradient xlink:href="#z" id="am" cx="363.33957" cy="303.41541" r="16.845654" fx="363.33957" fy="303.41541" gradientTransform="matrix(5.25067 1.0171 -1.47683 3.98453 -672.28 -694.103)" gradientUnits="userSpaceOnUse"/><radialGradient xlink:href="#p" id="ao" cx="382.23483" cy="246.85757" r="20.537666" fx="382.23483" fy="246.85757" gradientTransform="matrix(.36025 .1568 -.07247 .1665 260.617 181.938)" gradientUnits="userSpaceOnUse"/><radialGradient xlink:href="#t" id="E" cx="223.19559" cy="137.66095" r="14.572236" fx="223.19559" fy="137.66095" gradientTransform="matrix(1.08578 -.03431 .03944 1.24799 -15.542 -75.905)" gradientUnits="userSpaceOnUse"/><radialGradient xlink:href="#t" id="F" cx="223.19559" cy="137.66095" r="14.572236" fx="223.19559" fy="137.66095" gradientTransform="matrix(.81524 -.03431 .02961 1.24799 9.562 -75.905)" gradientUnits="userSpaceOnUse"/><radialGradient xlink:href="#v" id="G" cx="294.48483" cy="193.09949" r="31.111488" fx="294.48483" fy="193.09949" gradientTransform="matrix(.81495 -.25453 .31491 .43302 -75.371 150.738)" gradientUnits="userSpaceOnUse"/><clipPath id="ai" clipPathUnits="userSpaceOnUse"><path d="M137.577 281.02c1.6-.664 3.398-.785 5.1-.47 1.703.313 3.312 1.049 4.744 2.022 2.864 1.946 4.988 4.778 7.023 7.58 4.672 6.433 9.169 13.002 13.245 19.829 3.306 5.537 6.343 11.257 10.164 16.453 2.494 3.392 5.306 6.54 7.813 9.922s4.728 7.056 5.84 11.117c1.443 5.276.884 11.092-1.627 15.953-1.767 3.419-4.477 6.352-7.773 8.339-3.296 1.986-7.17 3.014-11.016 2.87-6.114-.23-11.7-3.285-17.384-5.55-11.58-4.612-24.16-6.059-36.097-9.651-3.668-1.104-7.275-2.41-10.97-3.426-1.64-.452-3.308-.849-4.858-1.552s-3-1.749-3.862-3.217c-.666-1.134-.948-2.47-.93-3.785.018-1.316.326-2.615.774-3.852.896-2.474 2.343-4.713 3.32-7.157 1.595-3.989 1.882-8.388 1.666-12.679s-.91-8.545-1.204-12.831c-.131-1.914-.18-3.853.185-5.736.365-1.884 1.175-3.725 2.557-5.056 1.274-1.226 2.965-1.955 4.697-2.316 1.731-.361 3.515-.378 5.284-.338s3.54.135 5.303-.01 3.534-.54 5.07-1.419c1.46-.834 2.653-2.074 3.643-3.434s1.789-2.846 2.609-4.314 1.668-2.931 2.741-4.226 2.39-2.423 3.943-3.067" style="fill:url(#A)" transform="matrix(1 0 0 1.01828 0 -4.031)"/></clipPath><clipPath id="ag" clipPathUnits="userSpaceOnUse"><path d="M137.577 281.02c1.6-.664 3.398-.785 5.1-.47 1.703.313 3.312 1.049 4.744 2.022 2.864 1.946 4.988 4.778 7.023 7.58 4.672 6.433 9.169 13.002 13.245 19.829 3.306 5.537 6.343 11.257 10.164 16.453 2.494 3.392 5.306 6.54 7.813 9.922s4.728 7.056 5.84 11.117c1.443 5.276.884 11.092-1.627 15.953-1.767 3.419-4.477 6.352-7.773 8.339-3.296 1.986-7.17 3.014-11.016 2.87-6.114-.23-11.7-3.285-17.384-5.55-11.58-4.612-24.16-6.059-36.097-9.651-3.668-1.104-7.275-2.41-10.97-3.426-1.64-.452-3.308-.849-4.858-1.552s-3-1.749-3.862-3.217c-.666-1.134-.948-2.47-.93-3.785.018-1.316.326-2.615.774-3.852.896-2.474 2.343-4.713 3.32-7.157 1.595-3.989 1.882-8.388 1.666-12.679s-.91-8.545-1.204-12.831c-.131-1.914-.18-3.853.185-5.736.365-1.884 1.175-3.725 2.557-5.056 1.274-1.226 2.965-1.955 4.697-2.316 1.731-.361 3.515-.378 5.284-.338s3.54.135 5.303-.01 3.534-.54 5.07-1.419c1.46-.834 2.653-2.074 3.643-3.434s1.789-2.846 2.609-4.314 1.668-2.931 2.741-4.226 2.39-2.423 3.943-3.067" style="fill:url(#A)" transform="translate(-240 -1)"/></clipPath><clipPath id="Z" clipPathUnits="userSpaceOnUse"><path d="M513.19 336.614c-2.624 3.115-6.268 5.17-9.897 7.02-6.188 3.154-12.601 5.921-18.42 9.716-3.897 2.543-7.495 5.527-10.86 8.743-2.877 2.75-5.605 5.687-8.832 8.017-3.256 2.352-7.02 4.055-10.99 4.65-4.83.725-9.822-.212-14.3-2.164-3.137-1.367-6.155-3.323-7.963-6.229-1.814-2.917-2.228-6.488-2.232-9.924-.008-6.076 1.118-12.09 2.178-18.073.881-4.972 1.72-9.955 2.26-14.975.984-9.131.977-18.353.32-27.513-.11-1.535-.237-3.084-.008-4.605.23-1.52.855-3.036 2.021-4.04 1.077-.926 2.521-1.335 3.94-1.414 1.418-.078 2.834.147 4.24.352 3.312.484 6.65.865 9.888 1.717 2.043.537 4.034 1.259 6.073 1.81 3.402.92 6.966 1.362 10.467.952 3.77-.44 7.43-1.856 11.224-1.764 1.556.037 3.101.331 4.586.8 1.516.477 3.01 1.161 4.123 2.295.846.86 1.436 1.945 1.879 3.068.66 1.674 1.015 3.457 1.167 5.25.135 1.588.113 3.194.414 4.76.495 2.574 1.848 4.922 3.529 6.934s3.69 3.72 5.696 5.408c2 1.68 4.01 3.355 6.167 4.828 1.012.692 2.056 1.34 3.017 2.1.961.762 1.845 1.648 2.446 2.716.815 1.45 1.064 3.208.537 4.877-.526 1.669-1.481 3.276-2.67 4.688" style="fill:url(#B)"/></clipPath><clipPath id="ab" clipPathUnits="userSpaceOnUse"><path d="M509.363 335.745c-2.295 2.528-5.484 4.196-8.658 5.696-5.415 2.56-11.026 4.806-16.116 7.885-3.41 2.063-6.558 4.485-9.502 7.095-2.517 2.231-4.904 4.615-7.727 6.506-2.849 1.908-6.141 3.29-9.616 3.773-4.226.589-8.593-.172-12.51-1.756-2.746-1.11-5.386-2.696-6.967-5.055-1.588-2.367-1.95-5.265-1.954-8.053-.007-4.93.979-9.81 1.906-14.666.771-4.035 1.505-8.078 1.978-12.152.86-7.41.854-14.893.28-22.327-.097-1.245-.208-2.502-.008-3.736.201-1.234.748-2.464 1.768-3.278.943-.752 2.206-1.084 3.447-1.148s2.48.119 3.71.285c2.898.393 5.82.702 8.652 1.393 1.787.436 3.528 1.022 5.312 1.47 2.977.747 6.095 1.105 9.158.772 3.298-.357 6.5-1.506 9.82-1.432 1.362.03 2.714.27 4.013.65 1.326.387 2.633.942 3.607 1.862.74.699 1.256 1.578 1.644 2.49.577 1.358.888 2.805 1.02 4.26.119 1.288.1 2.592.363 3.862.433 2.09 1.617 3.995 3.087 5.628 1.471 1.632 3.229 3.019 4.984 4.388 1.75 1.364 3.51 2.722 5.396 3.918.885.562 1.799 1.087 2.64 1.705.84.618 1.614 1.336 2.14 2.203.712 1.177.93 2.603.47 3.958s-1.297 2.659-2.337 3.804" style="fill:url(#C);stroke-width:.842603"/></clipPath><clipPath id="ad" clipPathUnits="userSpaceOnUse"><path d="M263.19 278.252c-2.624 3.114-6.268 5.17-9.897 7.02-6.188 3.154-12.602 5.921-18.42 9.716-3.897 2.543-7.495 5.527-10.86 8.742-2.877 2.75-5.605 5.688-8.832 8.018-3.256 2.351-7.02 4.054-10.99 4.65-4.831.725-9.822-.213-14.3-2.164-3.137-1.367-6.155-3.323-7.963-6.23-1.814-2.917-2.228-6.487-2.232-9.923-.008-6.077 1.118-12.09 2.178-18.073.881-4.972 1.72-9.955 2.26-14.975.984-9.132.977-18.353.32-27.514-.11-1.534-.237-3.083-.008-4.604.23-1.52.855-3.036 2.02-4.04 1.078-.926 2.522-1.336 3.94-1.414 1.419-.079 2.834.146 4.24.352 3.313.484 6.652.865 9.89 1.716 2.042.538 4.032 1.26 6.072 1.811 3.402.92 6.966 1.362 10.467.952 3.77-.44 7.43-1.857 11.224-1.765 1.556.038 3.101.332 4.586.8 1.515.478 3.01 1.162 4.123 2.295.846.862 1.436 1.946 1.879 3.07.66 1.673 1.014 3.456 1.167 5.249.134 1.587.113 3.194.414 4.759.495 2.575 1.847 4.923 3.528 6.935s3.69 3.72 5.697 5.408c1.999 1.68 4.01 3.354 6.167 4.828 1.012.692 2.056 1.34 3.017 2.1.961.762 1.845 1.648 2.446 2.716.815 1.45 1.063 3.208.537 4.877s-1.481 3.276-2.67 4.688" style="fill:url(#D)"/></clipPath><clipPath id="T" clipPathUnits="userSpaceOnUse"><path d="M304.847 225.45c5.977 4.894 9.77 12.285 10.943 20.003.916 6.018.321 12.195-1.012 18.132s-3.39 11.676-5.433 17.4c-.815 2.283-1.633 4.587-1.957 6.994-.323 2.406-.118 4.954 1.021 7.087 1.307 2.446 3.746 4.13 6.367 4.923 2.588.783 5.384.766 8.004.102 2.62-.665 5.065-1.964 7.198-3.65 5.418-4.283 8.686-10.948 9.952-17.812 1.265-6.863.684-13.95-.493-20.83-1.604-9.381-4.304-18.55-7.74-27.407a96 96 0 0 0-9.617-18.52c-3.78-5.669-9.142-10.094-13.104-15.636-1.376-1.925-3.031-3.931-4.384-5.878-2.916-4.198-2.255-3.415-4.064-6.132-1.312-1.97-3.385-2.648-5.565-3.51-2.18-.863-4.629-1.117-6.88-.472-2.968.85-5.393 3.231-6.683 6.082s-1.515 6.124-1.013 9.22c.647 3.996 2.442 7.703 4.465 11.19 2.286 3.936 4.933 7.726 8.385 10.653 3.602 3.055 7.957 5.07 11.61 8.06" style="fill:#020204;stroke-width:.991084"/></clipPath><clipPath id="V" clipPathUnits="userSpaceOnUse"><path d="M240.473 195.036c-7.073 8.037-14.352 15.816-18.346 24.505-1.976 4.413-2.91 9.207-4.265 13.85-1.538 5.271-3.626 10.37-5.97 15.335-2.165 4.586-4.55 9.063-6.94 13.536-1.738 3.254-3.504 6.581-4.107 10.22-.476 2.877-.199 5.845.534 8.667.732 2.822 1.91 5.51 3.237 8.106 5.668 11.075 14.17 20.622 24.242 27.925a85 85 0 0 0 14.603 8.526c2.782 1.27 5.713 2.404 8.771 2.457 1.53.027 3.075-.225 4.475-.84 1.4-.616 2.65-1.604 3.482-2.888 1.023-1.577 1.37-3.538 1.165-5.407s-.935-3.653-1.913-5.259c-2.39-3.922-6.165-6.76-9.797-9.573-7.84-6.074-15.424-12.48-22.682-19.24-2.049-1.909-4.098-3.878-5.53-6.284-1.394-2.344-2.148-5.014-2.658-7.693-1.4-7.349-1.04-15.083 1.46-22.133.978-2.758 2.27-5.392 3.518-8.04 2.161-4.589 4.207-9.266 7.05-13.467 3.537-5.23 8.267-9.66 11.15-15.278 2.435-4.742 3.42-10.072 4.363-15.318.736-4.105 2.15-8.125 2.869-12.232-1.406 2.665-5.938 7.042-8.71 10.525z" style="fill:#020204"/></clipPath><clipPath id="an" clipPathUnits="userSpaceOnUse"><path d="M386.188 285.328c-.406-1.104-1.119-2.082-1.991-2.87s-1.9-1.392-2.983-1.852c-2.165-.918-4.52-1.261-6.831-1.695-2.18-.41-4.342-.907-6.528-1.278-2.272-.385-4.618-.632-6.866-.125-1.965.443-3.784 1.459-5.271 2.819s-2.65 3.056-3.485 4.89c-1.473 3.23-1.935 6.865-1.654 10.403.209 2.633.875 5.346 2.608 7.34 1.401 1.61 3.388 2.614 5.434 3.22a18.4 18.4 0 0 0 10.86-.155 28.6 28.6 0 0 0 14.331-10.78c1.139-1.649 2.112-3.447 2.553-5.403.336-1.49.349-3.08-.177-4.514" style="fill:#020204"/></clipPath><clipPath id="ap" clipPathUnits="userSpaceOnUse"><path d="M386.188 285.328c-.406-1.104-1.119-2.082-1.991-2.87s-1.9-1.392-2.983-1.852c-2.165-.918-4.52-1.261-6.831-1.695-2.18-.41-4.342-.907-6.528-1.278-2.272-.385-4.618-.632-6.866-.125-1.965.443-3.784 1.459-5.271 2.819s-2.65 3.056-3.485 4.89c-1.473 3.23-1.935 6.865-1.654 10.403.209 2.633.875 5.346 2.608 7.34 1.401 1.61 3.388 2.614 5.434 3.22a18.4 18.4 0 0 0 10.86-.155 28.6 28.6 0 0 0 14.331-10.78c1.139-1.649 2.112-3.447 2.553-5.403.336-1.49.349-3.08-.177-4.514" style="fill:#020204"/></clipPath><clipPath id="az" clipPathUnits="userSpaceOnUse"><path d="M85.75 122.362c-2.78 1.91-5.11 4.575-6.25 7.75-1.436 4.002-.886 8.48.5 12.5 1.42 4.117 3.794 8.041 7.38 10.513 1.792 1.235 3.867 2.083 6.03 2.338 2.162.256 4.409-.095 6.34-1.1 2.353-1.227 4.148-3.374 5.262-5.782 1.115-2.408 1.589-5.07 1.738-7.719.19-3.375-.14-6.806-1.25-10-1.205-3.469-3.39-6.67-6.473-8.666-1.541-.998-3.292-1.684-5.11-1.936-1.82-.251-3.705-.063-5.417.602-.975.38-1.887.908-2.75 1.5" style="fill:url(#E)"/></clipPath><clipPath id="at" clipPathUnits="userSpaceOnUse"><path d="M54.232 122.362c-1.78.097-3.484.92-4.787 2.137-1.304 1.218-2.222 2.812-2.787 4.503-1.13 3.384-.875 7.052-.618 10.61.232 3.222.47 6.506 1.677 9.502.603 1.498 1.45 2.91 2.58 4.064s2.552 2.042 4.118 2.434c1.469.368 3.038.292 4.483-.162s2.764-1.279 3.846-2.338c1.58-1.545 2.643-3.566 3.254-5.69.61-2.123.784-4.35.752-6.56-.04-2.764-.4-5.538-1.266-8.164-.865-2.626-2.246-5.103-4.173-7.086-.933-.96-1.997-1.805-3.198-2.397-1.201-.593-2.544-.926-3.88-.853" style="fill:url(#F)"/></clipPath><clipPath id="aK" clipPathUnits="userSpaceOnUse"><path d="M214.636 148.038a27.3 27.3 0 0 0-7.271.884c-4.053 1.057-7.574 2.94-10.085 5.393-1.628.856-3.05 1.9-4.207 3.087-.662.679-1.244 1.416-1.502 2.247-.202.653-.198 1.345-.285 2.02-.032.253-.078.507-.036.765.02.13.063.259.138.381.022.037.052.07.08.106.083.15.183.297.315.43.288.294.68.532 1.094.733s.853.367 1.282.55c2.28.965 4.227 2.324 5.992 3.758 2.368 1.925 4.53 4.061 7.51 5.46 2.105.988 4.528 1.552 6.926 1.724 2.816.202 5.585-.123 8.182-.693 2.406-.529 4.696-1.271 6.752-2.254 3.907-1.868 6.987-4.606 11.424-5.834.969-.269 1.99-.46 2.913-.79.923-.331 1.763-.827 2.12-1.528.342-.673.205-1.45.235-2.19.033-.79.264-1.555.334-2.342.069-.787-.039-1.629-.622-2.352a3.4 3.4 0 0 0-.452-.451c-.051-.293-.221-.58-.466-.833-.505-.52-1.294-.871-2.095-1.116-1.099-.336-2.256-.503-3.4-.696a67 67 0 0 1-10.294-2.604c-1.653-.561-3.27-1.184-4.904-1.78-1.68-.612-3.387-1.2-5.165-1.577a23.7 23.7 0 0 0-4.513-.498" style="fill:url(#G);stroke-width:.77538"/></clipPath><clipPath id="P" clipPathUnits="userSpaceOnUse"><path d="M-26.296 154.814c-1.046 1.312-1.727 2.888-2.139 4.514s-.562 3.308-.626 4.984c-.129 3.353.076 6.77-.811 10.007-.95 3.459-3.076 6.456-5.158 9.377-3.605 5.06-7.249 10.25-9.027 16.203a28.8 28.8 0 0 0-1.049 11.164 118 118 0 0 0-10.422 18.781c-4.387 9.942-7.397 20.527-8.455 31.341-1.296 13.242.398 26.862 5.628 39.097 3.78 8.846 9.417 16.943 16.685 23.246a57 57 0 0 0 12.19 8.097c15.212 7.477 34.013 7.491 48.973-.48 7.818-4.166 14.418-10.258 20.78-16.422 3.832-3.712 7.644-7.513 10.567-11.976 5.627-8.592 7.587-19.035 8.805-29.234 2.13-17.833 2.199-36.67-5.62-52.838a58.3 58.3 0 0 0-10.582-15.14 83 83 0 0 0-6.692-22.543c-2.37-5.155-5.268-10.062-7.47-15.29-.905-2.148-1.69-4.346-2.694-6.448-1.003-2.102-2.241-4.125-3.924-5.735-1.724-1.65-3.871-2.818-6.136-3.567-2.265-.748-4.65-1.086-7.032-1.206-4.764-.24-9.539.383-14.305.194-3.795-.15-7.578-.816-11.37-.592-1.895.112-3.79.45-5.55 1.165-1.759.714-3.381 1.817-4.566 3.301" style="fill:#fdfdfb"/></clipPath><clipPath id="R" clipPathUnits="userSpaceOnUse"><path d="M-47.296 161.444c-1.046 1.423-1.727 3.134-2.139 4.9s-.562 3.591-.626 5.411c-.129 3.64.076 7.35-.811 10.864-.95 3.755-3.076 7.009-5.158 10.18-3.605 5.493-7.249 11.129-9.027 17.59a33.8 33.8 0 0 0-1.049 12.122A132 132 0 0 0-76.528 242.9c-4.387 10.793-7.397 22.285-8.455 34.025-1.296 14.377.398 29.163 5.628 42.446 3.78 9.603 9.417 18.395 16.685 25.237 3.696 3.48 7.8 6.448 12.19 8.79 15.212 8.118 34.013 8.134 48.973-.52 7.818-4.523 14.418-11.137 20.78-17.83 3.832-4.03 7.644-8.155 10.567-13 5.627-9.329 7.587-20.667 8.805-31.739 2.13-19.36 2.199-39.81-5.62-57.364-2.693-6.043-6.28-11.615-10.582-16.437a96 96 0 0 0-6.692-24.473c-2.37-5.597-5.268-10.924-7.47-16.6-.905-2.331-1.69-4.718-2.694-7-1.003-2.282-2.241-4.478-3.924-6.226-1.724-1.79-3.871-3.06-6.136-3.872s-4.65-1.18-7.032-1.31c-4.764-.26-9.539.416-14.305.21-3.795-.163-7.578-.885-11.37-.642-1.895.121-3.79.49-5.55 1.265s-3.381 1.972-4.566 3.584" style="fill:#fdfdfb;stroke-width:1.04195"/></clipPath></defs><path d="M496.99.012c-28.769-.313-57.896 5.519-83.222 19.17-26.92 14.505-48.967 37.708-62.557 65.1-13.578 27.382-18.917 56.625-19.723 88.835-1.534 61.196 1.38 125.383 5.996 183.545 1.228 17.712 3.428 28.075 1.176 46.253-7.57 38.652-41.393 64.668-59.418 98.616-19.888 37.451-28.272 79.795-43.284 119.454-13.734 36.292-33.02 70.32-46.036 106.88-18.202 51.118-23.64 107.285-11.62 160.201 9.167 40.338 28.317 78.158 54.12 110.508-3.732 6.731-7.353 13.534-11.206 20.193-11.96 20.658-26.57 40.245-33.381 63.123-3.404 11.439-4.744 23.64-2.549 35.368 2.2 11.732 8.136 22.955 17.467 30.396 6.11 4.868 13.474 8.007 21.088 9.765 7.61 1.766 15.477 2.192 23.292 2.023 29.677-.63 58.434-9.653 87.144-17.19 17.018-4.468 34.156-8.433 51.387-11.993 61.168-12.531 129.44-7.53 186.23.706 19.233 2.902 38.33 6.703 57.235 11.287 29.608 7.176 59.113 16.323 89.568 17.19 8.016.229 16.095-.12 23.922-1.866 7.83-1.742 15.424-4.921 21.694-9.922 9.352-7.458 15.284-18.696 17.48-30.448 2.199-11.756.842-23.99-2.602-35.44-6.883-22.902-21.63-42.445-33.855-62.999-4.828-8.107-9.312-16.424-14.104-24.551 36.801-41.321 66.418-89.116 83.548-141.606 18.7-57.295 22.136-118.99 14.261-178.74-7.87-59.756-26.82-117.685-51.768-172.548-31.299-68.79-57.608-93.643-76.677-154.048-20.61-65.29-3.592-142.545-18.905-201.759-5.47-20.136-14.184-39.362-25.394-56.958-13.137-20.622-29.801-39.105-49.597-53.45C575.11 12.222 535.996.437 496.99.012" style="fill:#020204;stroke-width:4.01367"/><path d="M384.17 344.681c-4.197 5.266-6.935 11.587-8.588 18.118-1.646 6.526-2.252 13.277-2.513 20.004-.514 13.458.31 27.172-3.251 40.16-3.813 13.888-12.35 25.917-20.702 37.64-14.47 20.31-29.095 41.14-36.232 65.03a115.5 115.5 0 0 0-4.21 44.812 474 474 0 0 0-41.834 75.377c-17.604 39.908-29.685 82.388-33.932 125.796-5.202 53.149 1.594 107.815 22.585 156.918 15.18 35.505 37.8 68.008 66.972 93.306a229 229 0 0 0 48.926 32.498c61.056 30.01 136.517 30.067 196.557-1.926 31.383-16.721 57.87-41.172 83.408-65.913 15.38-14.902 30.68-30.154 42.413-48.067 22.584-34.486 30.451-76.404 35.34-117.336 8.549-71.58 8.826-147.18-22.56-212.073a234 234 0 0 0-42.465-60.771 333 333 0 0 0-26.864-90.476c-9.512-20.69-21.144-40.386-29.982-61.373-3.632-8.617-6.783-17.44-10.813-25.876s-8.998-16.556-15.753-23.018c-6.916-6.623-15.533-11.315-24.624-14.317s-18.664-4.363-28.224-4.845c-19.125-.963-38.286 1.542-57.42.783-15.227-.602-30.411-3.275-45.627-2.376-7.61.45-15.216 1.806-22.276 4.676-7.064 2.866-13.574 7.293-18.33 13.249" style="fill:#fdfdfb;stroke-width:4.01367"/><path d="M316.79 536.45c4.078 6.116-2.534 27.204 92.493 13.706 0 0-16.688 1.839-33.14 5.64-25.573 8.56-47.858 18.13-65.046 30.804-17.027 12.527-29.498 28.887-45.125 42.934 0 0 25.305-46.233 31.615-60.156 6.305-13.92-1.056-13.285 3.933-33.767 4.99-20.486 17.202-40.165 17.202-40.165s-9.97 28.939-1.931 41.004" style="opacity:.25;fill:url(#H);stroke-width:4.3122;filter:url(#filter4487-6)"/><path d="M622.366 530.93c-19.366 13.49-30.713 11.893-54.213 14.53-23.496 2.641-87.088 1.686-87.088 1.686s9.203-.169 29.608 3.628c20.406 3.801 62.024 7.438 85.46 16.356s31.984 11.467 46.225 20.47c20.273 12.823 35.151 32.904 54.533 46.952 0 0 .94-18.64-6.883-32.563-7.827-13.92-28.858-35.862-35.052-56.344-6.185-20.486-9.127-60.735-9.127-60.735s-4.098 32.531-23.463 46.02" style="opacity:.42;fill:url(#I);stroke-width:4.01367;filter:url(#filter4427-5-7)"/><path d="M440.226 502.12a242 242 0 0 1-2.798 17.436c-.562 2.85-1.184 5.7-2.247 8.4-1.056 2.702-2.581 5.267-4.737 7.213-1.89 1.702-4.194 2.874-6.506 3.934a97.8 97.8 0 0 1-28.529 8.1q5.9.434 11.78 1.079c2.469.269 4.945.57 7.353 1.188 2.408.614 4.756 1.565 6.76 3.03 2.199 1.606 3.925 3.805 5.217 6.205 2.569 4.785 3.428 10.287 3.901 15.694.606 6.92.65 13.887.133 20.81a64.3 64.3 0 0 1 2.89-13.638c2.62-7.975 6.839-15.444 12.522-21.621 2.252-2.449 4.736-4.696 7.462-6.615a41.3 41.3 0 0 1 29.042-7.068 45.1 45.1 0 0 1-28.878-8.962c-4.178-3.151-7.818-7.077-10.355-11.66a32.53 32.53 0 0 1-3.01-23.524" style="opacity:.2;fill:url(#J);stroke-width:4.01367;filter:url(#filter4538-7)"/><path d="M120.5 178.719a89 89 0 0 0-2.526 14.276c-.637 6.813-.483 13.673-.85 20.505-.31 5.798-.99 11.656.017 17.374a29.9 29.9 0 0 0 2.554 7.874 27 27 0 0 0 .423-2.875c.426-4.637-.354-9.287-.618-13.936-.462-8.147.666-16.29 1.125-24.437.352-6.255.31-12.532-.125-18.781" style="opacity:.11;filter:url(#K)" transform="translate(-68.185 -78.567)scale(4.01366)"/><path d="M351.96 200.857c-1.451.388-1.23 3.994-.296 5.497.79 1.27 3.073 2.272 3.759 1.005 1.114-2.055-1.472-7.036-3.463-6.502" style="opacity:.25;fill:#7c7c7c;filter:url(#L)" transform="matrix(-.28064 3.84107 -2.26571 -.47574 881.319 -802.547)"/><path d="M361.75 209.343c.002-1.533-7.565-10.056-9.79-8.486s-.491 3.784-.296 5.497c.196 1.714-.945 6.61.239 7.26s3.366-2.52 5.301-4.277c1.558-1.415 4.544 1.54 4.546.006" style="opacity:.75;fill:#7c7c7c;filter:url(#M)" transform="matrix(-.38515 -3.84107 -3.10962 .47574 1532.872 1901.15)"/><path d="M277.96 90.857c-2.224 1.57-1.252 3.53-.296 5.497.957 1.968-2.104 7.64-2.136 7.885-.032.244 6.025-2.876 7.676-4.902 1.95-2.394 6.877 3.238 6.608 2.381.002-1.533-9.627-12.431-11.852-10.861" style="fill:#7c7c7c;filter:url(#N)" transform="matrix(4.62458 0 0 4.62458 -722.52 -368.354)"/><path d="M16.687 165.862c-2.162 1.97 1.014 4.928 2.52 8.404.936 2.162 3.527 5.206 6.032 4.718 1.885-.367 3.055-3.08 2.876-4.991-.344-3.689-3.456-4.553-5.717-5.82-1.791-1.004-4.192-3.694-5.71-2.31z" style="fill:#838384;filter:url(#O)" transform="translate(574.001 -308.799)scale(4.01366)"/><path d="M-28.632 172.601c1.702 4.938 5.13 9.152 9.185 12.444 1.349 1.095 2.783 2.104 4.367 2.817 1.584.712 3.331 1.12 5.062.972 1.695-.144 3.307-.809 4.789-1.645 1.48-.837 2.856-1.847 4.293-2.758 2.462-1.56 5.1-2.821 7.657-4.22 3.082-1.687 6.07-3.59 8.665-5.96 1.187-1.084 2.295-2.268 3.607-3.199 1.312-.93 2.883-1.605 4.488-1.496 1.204.082 2.333.594 3.512.848.59.127 1.201.189 1.798.098.596-.09 1.18-.344 1.597-.78.513-.532.737-1.299.71-2.038s-.284-1.453-.629-2.107c-.689-1.308-1.734-2.435-2.2-3.838-.414-1.249-.33-2.599-.294-3.914s.008-2.69-.599-3.857c-.461-.89-1.236-1.595-2.121-2.064-.886-.468-1.879-.71-2.876-.803-1.995-.188-3.994.2-5.995.313-2.656.15-5.322-.182-7.977-.022-3.311.199-6.557 1.16-9.874 1.166-3.786.007-7.568-1.232-11.308-.64-1.604.254-3.135.838-4.676 1.353-1.54.514-3.132.967-4.757.943-1.844-.026-3.629-.665-5.469-.796-.92-.066-1.862 0-2.726.323s-1.644.924-2.068 1.743a3.7 3.7 0 0 0-.386 1.524c-.023.528.05 1.057.178 1.57.255 1.026.724 1.983 1.11 2.967 1.392 3.554 1.692 7.448 2.937 11.056" clip-path="url(#P)" style="fill:#000;fill-opacity:.258824;filter:url(#Q)" transform="translate(489.714 -276.69)scale(4.01366)"/><path d="M-54.38 165.474a39.4 39.4 0 0 1 8.769 8.051c2.313 2.884 4.28 6.154 7.299 8.289 2.132 1.508 4.695 2.358 7.294 2.616 3.051.303 6.14-.187 9.082-1.052 2.726-.802 5.363-1.93 7.782-3.422 4.598-2.836 8.439-6.992 13.51-8.857 1.107-.407 2.26-.698 3.326-1.2 1.068-.502 2.072-1.254 2.581-2.318.49-1.022.471-2.202.631-3.324.17-1.201.554-2.362.764-3.557s.235-2.472-.282-3.57c-.427-.908-1.205-1.627-2.1-2.084-.894-.457-1.9-.665-2.904-.714-2.006-.098-3.987.415-5.988.598-2.65.241-5.318-.1-7.977-.02-3.308.1-6.568.85-9.874 1.006-3.772.178-7.534-.418-11.308-.552-1.632-.058-3.275-.028-4.884.253s-3.188.822-4.549 1.726c-1.32.877-2.396 2.067-3.606 3.09-.605.512-1.248.986-1.954 1.345-.706.36-1.479.605-2.27.643-.408.02-.819-.015-1.222.047a2.6 2.6 0 0 0-1.698 1.053 2.6 2.6 0 0 0-.423 1.952" clip-path="url(#R)" style="opacity:.3;fill:#000;filter:url(#S)" transform="matrix(4.01366 0 0 3.69698 574.001 -252.178)"/><path d="M755.021 592.067c24.423 19.643 39.92 49.308 44.716 80.285 3.745 24.154 1.313 48.947-4.134 72.776-5.446 23.829-13.859 46.863-22.203 69.838-3.332 9.163-6.671 18.41-7.996 28.071-1.324 9.657-.481 19.884 4.175 28.445 5.338 9.817 15.304 16.576 26.016 19.76 10.576 3.142 21.995 3.074 32.703.409 10.705-2.67 28.726-6.125 37.44-12.892 22.14-17.19 27.393-47.04 32.639-73.25 5.47-27.333 2.793-55.99-2.01-83.604-6.56-37.652-17.589-74.454-31.629-110.003a383.2 383.2 0 0 0-39.301-74.333c-15.44-22.753-37.355-40.513-53.543-62.757-5.623-7.726-12.39-15.778-17.913-23.592-11.916-16.85-9.219-13.707-16.608-24.612-5.362-7.907-13.831-10.628-22.741-14.088-8.91-3.464-18.913-4.483-28.116-1.895-12.125 3.412-22.035 12.969-27.301 24.412-5.274 11.442-6.193 24.58-4.142 37.005 2.645 16.039 9.978 30.918 18.246 44.913 9.34 15.798 20.157 31.01 34.26 42.758 14.719 12.262 32.52 20.35 47.442 32.35M294.943 469.995c-28.388 32.258-57.604 63.48-73.634 98.355-7.931 17.712-11.68 36.954-17.119 55.59-6.173 21.155-14.553 41.621-23.961 61.549-8.694 18.407-18.262 36.376-27.855 54.329-6.976 13.06-14.068 26.414-16.484 41.02-1.915 11.547-.799 23.46 2.14 34.786 2.941 11.326 7.665 22.115 12.995 32.535 22.746 44.45 56.874 82.77 97.3 112.081a341.8 341.8 0 0 0 58.607 34.22c11.17 5.098 22.934 9.65 35.208 9.862 6.14.108 12.338-.903 17.961-3.371 5.62-2.473 10.636-6.438 13.976-11.592 4.106-6.33 5.498-14.2 4.675-21.702-.826-7.505-3.752-14.662-7.678-21.108-9.592-15.741-24.748-27.132-39.322-38.422-31.467-24.38-61.91-50.09-91.037-77.223-8.228-7.662-16.448-15.565-22.196-25.222-5.595-9.408-8.621-20.125-10.668-30.877-5.62-29.497-4.174-60.538 5.86-88.834 3.925-11.07 9.11-21.642 14.12-32.27 8.673-18.419 16.885-37.19 28.292-54.052 14.2-20.992 33.185-38.772 44.76-61.32 9.77-19.034 13.727-40.427 17.504-61.482 2.958-16.476 8.63-32.611 11.52-49.095-5.648 10.696-23.834 28.264-34.964 42.243" style="fill:#020204;stroke-width:4.01367"/><path d="M290.781 216.018c.485.468.981.943 1.5 1.375 3.667 3.055 5.619 6.486 9.338 9.477 6.085 4.895 12.259 13.344 13.454 21.06.933 6.02-.3 9.29-1.804 16.389-1.504 7.098-5.77 17.148-8.074 23.992-.92 2.729 1.861 1.603 1.496 4.48a17.7 17.7 0 0 0-.035 4.259c.023-.271.04-.553.07-.822.442-3.923 1.623-7.695 2.908-11.395 2.475-7.123 5.315-14.101 7.272-21.408 1.958-7.307 1.74-12.565.72-18.844-1.286-7.896-5.798-15.187-12.188-20-4.519-3.403-9.847-5.585-14.657-8.563" clip-path="url(#T)" style="fill:#838384;filter:url(#U)" transform="matrix(4.08619 0 0 4.01366 -490.642 -312.813)"/><path d="M232.33 224.27a33 33 0 0 0-5.953 7.318c-2.668 4.458-4.239 9.468-6.178 14.289-1.444 3.588-3.125 7.193-3.327 11.056-.103 1.984.191 3.966.257 5.951.066 1.986-.117 4.052-1.09 5.784a7 7 0 0 1-3.733 3.144 11.07 11.07 0 0 1 5.336 3.866c1.114 1.499 1.827 3.253 2.796 4.85.787 1.299 1.753 2.502 2.943 3.445s2.611 1.62 4.117 1.813a7.26 7.26 0 0 0 5.765-1.842 135.3 135.3 0 0 1 5.15-53.8c.336-1.095.688-2.198.77-3.34.084-1.143-.128-2.349-.823-3.259a3.54 3.54 0 0 0-1.43-1.108 3.54 3.54 0 0 0-1.792-.252 3.54 3.54 0 0 0-1.68.67c-.49.363-.883.856-1.127 1.415" clip-path="url(#V)" style="opacity:.95;fill:#7c7c7c;filter:url(#W)" transform="translate(-670.234 -312.813)scale(4.01366)"/><path d="M919.397 1004.198a68.459 66.667 0 0 1-8.449 17.7c-8.16 12.093-20.006 21.192-31.843 29.584-20.196 14.313-41.228 27.446-60.022 43.71-12.596 10.896-24.078 23.118-34.716 35.982-9.1 11.005-17.657 22.557-28.03 32.338-10.47 9.874-22.793 17.848-36.072 22.195-16.149 5.282-33.212 5.03-48.766 1.044-10.902-2.798-21.531-7.658-28.283-16.448-6.78-8.822-8.976-20.679-9.76-32.318-1.388-20.582 1.072-41.622 3.31-62.513 1.863-17.363 3.578-34.738 4.278-52.065 1.278-31.515-.807-62.758-5.073-93.41-.717-5.137-1.492-10.307-1.06-15.597.433-5.286 2.206-10.789 5.92-14.87 3.428-3.774 8.213-6.005 12.982-7.1 4.777-1.097 9.603-1.165 14.4-1.29 11.294-.3 22.653-.962 33.777.025 7.019.622 13.898 1.902 20.908 2.577 11.697 1.123 23.827.533 35.557-2.902 12.628-3.705 24.676-10.644 37.506-12.555a53.39 51.993 0 0 1 15.662.024c5.226.73 10.427 2.176 14.438 5.362 3.05 2.425 5.283 5.752 7.031 9.3 2.6 5.282 4.204 11.118 5.115 17.102.812 5.298 1.1 10.757 2.465 15.882 2.246 8.437 7.336 15.601 13.465 21.433s13.292 10.444 20.447 14.987c7.13 4.528 14.293 9.019 21.906 12.748 3.569 1.754 7.241 3.335 10.658 5.35 3.413 2.019 6.594 4.503 8.861 7.77 3.08 4.435 4.311 10.247 3.388 15.954" style="opacity:.2;fill:url(#X);stroke-width:4.06727;filter:url(#filter15115-3)"/><path d="M988.17 1038.242c-10.531 12.498-25.157 20.75-39.723 28.175-24.836 12.66-50.58 23.765-73.931 38.997-15.641 10.207-30.083 22.184-43.589 35.087-11.547 11.038-22.496 22.83-35.448 32.182-13.069 9.436-28.176 16.271-44.11 18.663-19.39 2.91-39.423-.854-57.396-8.685-12.59-5.487-24.704-13.338-31.96-25.005-7.281-11.708-8.943-26.037-8.959-39.828-.032-24.39 4.487-48.525 8.742-72.539 3.536-19.956 6.903-39.956 9.07-60.104 3.95-36.653 3.922-73.663 1.285-110.432-.442-6.157-.951-12.374-.032-18.479.923-6.1 3.432-12.185 8.107-16.215 4.327-3.717 10.123-5.362 15.814-5.675 5.696-.317 11.375.586 17.018 1.412 13.297 1.943 26.7 3.472 39.695 6.888 8.196 2.16 16.183 5.057 24.371 7.269 13.655 3.692 27.96 5.466 42.011 3.82 15.132-1.765 29.822-7.453 45.05-7.083 6.245.152 12.446 1.332 18.406 3.21 6.08 1.919 12.081 4.664 16.549 9.212 3.395 3.46 5.763 7.81 7.541 12.322 2.65 6.715 4.07 13.87 4.684 21.067.538 6.37.454 12.82 1.662 19.101 1.987 10.336 7.413 19.76 14.16 27.835 6.747 8.076 14.81 14.931 22.866 21.706 8.023 6.743 16.095 13.462 24.752 19.378 4.062 2.777 8.252 5.378 12.11 8.429 3.856 3.058 7.404 6.614 9.817 10.9 3.27 5.82 4.266 12.877 2.155 19.575-2.111 6.695-5.944 13.15-10.716 18.816" style="fill:url(#Y);stroke-width:4.01367"/><path d="M512.891 328.724a15.3 15.3 0 0 1-2.571 4.26c-2.403 2.814-5.73 4.655-9.038 6.311-5.653 2.83-11.503 5.318-16.821 8.736-3.554 2.283-6.841 4.965-9.918 7.86-2.63 2.472-5.125 5.115-8.066 7.207-2.981 2.12-6.418 3.647-10.037 4.18-4.41.651-8.96-.192-13.058-1.945-2.857-1.222-5.618-2.97-7.272-5.6-1.647-2.617-2.032-5.83-2.04-8.922-.013-5.464 1.019-10.87 1.99-16.248.807-4.469 1.576-8.948 2.064-13.463.889-8.208.848-16.498.292-24.735-.093-1.38-.2-2.774.012-4.14.212-1.368.778-2.728 1.826-3.631.983-.847 2.303-1.218 3.599-1.286 1.295-.068 2.587.142 3.87.33 3.024.445 6.073.78 9.032 1.544 1.865.482 3.683 1.131 5.545 1.628 3.11.829 6.362 1.225 9.56.856 3.44-.398 6.786-1.672 10.249-1.587 1.42.035 2.83.3 4.188.72 1.382.425 2.75 1.034 3.765 2.062.766.776 1.296 1.754 1.716 2.76.626 1.496 1.033 3.097 1.066 4.719.035 1.693-.336 3.395-.106 5.073.186 1.363.763 2.648 1.5 3.81.738 1.16 1.635 2.21 2.523 3.26 1.717 2.029 3.44 4.097 5.593 5.654 2.452 1.774 5.362 2.812 7.895 4.468.755.493 1.486 1.052 2.018 1.78a4.76 4.76 0 0 1 .624 4.34" clip-path="url(#Z)" style="fill:#cd8907;filter:url(#aa)" transform="translate(-1071.6 -312.813)scale(4.01366)"/><path d="M508.793 327.925a15 15 0 0 1-2.311 3.492c-2.154 2.428-5.061 4.099-8.124 5.172-5.042 1.767-10.546 2.005-15.495 4.016-3.016 1.227-5.73 3.074-8.479 4.82-2.222 1.41-4.492 2.768-6.932 3.755-2.755 1.116-5.686 1.74-8.626 2.179-1.87.279-3.762.484-5.651.387-1.89-.097-3.784-.507-5.452-1.4-1.264-.678-2.4-1.654-3.075-2.92-.75-1.405-.88-3.055-.863-4.648.046-4.246 1.026-8.446.996-12.692-.025-3.696-.815-7.345-1.042-11.035-.437-7.094 1.205-14.313-.24-21.272-.231-1.115-.542-2.227-.527-3.365a4.6 4.6 0 0 1 .315-1.667c.217-.526.563-1.005 1.025-1.338.389-.28.85-.45 1.323-.526a4.7 4.7 0 0 1 1.432.007c.948.136 1.852.482 2.776.737 2.641.73 5.432.714 8.117 1.265 1.685.345 3.317.911 4.984 1.334 2.8.71 5.72 1.013 8.592.701 3.089-.335 6.108-1.375 9.213-1.3 1.273.03 2.538.25 3.765.59s2.456.819 3.384 1.69c.67.629 1.152 1.431 1.543 2.262.57 1.212.967 2.528.957 3.868-.005.696-.119 1.387-.186 2.08-.068.694-.088 1.404.091 2.078.18.676.554 1.287.983 1.84s.915 1.06 1.358 1.602c1.242 1.517 2.13 3.285 3.097 4.99s2.053 3.393 3.58 4.622c2.08 1.672 4.779 2.34 7.097 3.661.679.387 1.337.841 1.814 1.46.382.495.638 1.088.735 1.706.098.618.037 1.26-.174 1.85" clip-path="url(#ab)" style="fill:#f5c021;filter:url(#ac)" transform="matrix(4.5875 0 0 4.94603 -1348.534 -622.374)"/><path d="M187.31 230.288c3.275-.888 6.065 1.597 8.441 3.472 1.536 1.31 3.754.98 5.637 1.042 3.12-.113 6.225.523 9.347.136 6.145-.52 12.169-2.03 18.342-2.29 2.95-.186 6.26-.357 8.809 1.365 1.033.716 2.547 3.741 3.566 2.605-.42-3.178-2.777-6.256-5.939-7.102-2.475-.39-4.99.291-7.49.07-7.422-.176-14.793-1.555-22.233-1.16-5.177.046-10.347-.194-15.516-.396-2.03-.415-2.747 1.39-3.849 2.08" clip-path="url(#ad)" style="fill:url(#ae);filter:url(#filter17044)" transform="translate(-68.185 -78.567)scale(4.01366)"/><path d="M162.91 815.102c6.422-2.661 13.638-3.147 20.47-1.886 6.835 1.26 13.293 4.214 19.04 8.12 11.495 7.81 20.02 19.172 28.188 30.423 18.752 25.82 36.798 52.181 53.161 79.587 13.27 22.223 25.459 45.177 40.795 66.036 10.01 13.61 21.297 26.246 31.359 39.824 10.058 13.574 18.976 28.32 23.436 44.616 5.795 21.18 3.552 44.523-6.53 64.03-7.089 13.726-17.966 25.498-31.195 33.473-13.229 7.972-28.778 12.098-44.214 11.52-24.544-.923-46.96-13.19-69.774-22.276-46.482-18.511-96.97-24.319-144.88-38.736-14.723-4.43-29.204-9.673-44.03-13.755-6.583-1.806-13.278-3.403-19.5-6.22-6.22-2.826-12.04-7.025-15.5-12.917-2.673-4.551-3.805-9.914-3.733-15.192.073-5.281 1.309-10.495 3.107-15.46 3.592-9.93 9.404-18.92 13.325-28.726 6.402-16.014 7.55-33.666 6.687-50.893-.863-17.219-3.652-34.293-4.832-51.495-.526-7.682-.723-15.465.742-23.023 1.465-7.561 4.716-14.95 10.263-20.293 5.114-4.925 11.9-7.846 18.852-9.295 6.948-1.45 14.108-1.518 21.204-1.357 7.1.16 14.213.538 21.289-.04 7.076-.582 14.18-2.172 20.345-5.695 5.86-3.348 10.652-8.325 14.626-13.783 3.973-5.459 7.18-11.423 10.472-17.315 3.29-5.892 6.694-11.764 11.001-16.962s9.593-9.725 15.826-12.31" style="fill:url(#af);stroke-width:4.01367"/><path d="M-99.89 282.779c1.455-.586 3.094-.65 4.622-.304s2.95 1.09 4.189 2.047c2.477 1.914 4.2 4.614 5.854 7.268 3.97 6.433 7.851 12.934 11.516 19.568 2.777 4.993 5.425 10.092 8.837 14.678 2.264 3.042 4.848 5.832 7.158 8.837s4.372 6.282 5.393 9.934c1.316 4.706.783 9.91-1.495 14.233a19 19 0 0 1-7.186 7.512 18.5 18.5 0 0 1-10.087 2.488c-5.598-.258-10.711-3.053-15.98-4.95-10.104-3.666-21.054-4.158-31.417-7.02-3.715-1.009-7.337-2.353-11.07-3.295-1.651-.416-3.333-.757-4.902-1.419s-3.047-1.689-3.897-3.165c-.633-1.097-.886-2.388-.847-3.654s.36-2.51.81-3.694c.902-2.367 2.32-4.51 3.23-6.874 1.378-3.575 1.55-7.505 1.293-11.327-.256-3.822-.92-7.61-1.153-11.433-.104-1.71-.12-3.44.226-5.116.346-1.677 1.076-3.31 2.295-4.512 1.321-1.309 3.141-2.024 4.977-2.304s3.706-.158 5.555.007 3.705.373 5.561.261c1.856-.11 3.736-.563 5.27-1.607 1.397-.944 2.445-2.324 3.244-3.798.798-1.474 1.367-3.055 1.976-4.616.609-1.562 1.267-3.122 2.222-4.51s2.236-2.605 3.806-3.235" clip-path="url(#ag)" style="fill:#d99a03;filter:url(#ah)" transform="translate(574.001 -308.799)scale(4.01366)"/><path d="M138.753 281.235c1.41-.712 3.07-.858 4.617-.536 1.545.32 2.978 1.09 4.195 2.095 2.435 2.01 3.98 4.875 5.42 7.686 3.305 6.454 6.383 13.05 10.338 19.128 2.868 4.41 6.18 8.517 9.081 12.905 3.936 5.95 7.136 12.495 8.457 19.507.888 4.715.859 9.81-1.373 14.057-1.469 2.796-3.85 5.09-6.663 6.526s-6.043 2.017-9.19 1.734c-4.953-.445-9.453-2.925-14.117-4.655-8.274-3.069-17.218-3.803-25.734-6.118-3.592-.977-7.11-2.236-10.75-3.01-1.607-.342-3.244-.591-4.778-1.18-1.533-.588-2.986-1.565-3.77-3.008-.55-1.016-.736-2.205-.654-3.358.083-1.153.421-2.275.865-3.342.888-2.134 2.2-4.09 2.89-6.296 1.014-3.242.597-6.757-.163-10.067s-1.857-6.562-2.195-9.941c-.15-1.506-.147-3.04.192-4.515s1.027-2.892 2.108-3.95c1.393-1.362 3.344-2.04 5.283-2.229s3.893.069 5.82.351c1.929.283 3.869.59 5.815.5s3.929-.61 5.454-1.824c1.507-1.2 2.455-2.987 2.999-4.836s.72-3.782.943-5.696.5-3.846 1.23-5.63c.729-1.784 1.96-3.428 3.68-4.298" clip-path="url(#ai)" style="fill:#f5bd0c;filter:url(#aj)" transform="matrix(4.01366 0 0 3.94161 -389.277 -296.923)"/><path d="M238.487 875.106c10.46 18.92 16.841 40.626 27.217 59.703 9.544 17.548 20.41 35.618 30.102 51.8 4.319 7.21 14.385 18.283 24.564 35.473 9.22 15.574 18.53 37.316 23.745 44.616-2.995-8.549-9.152-31.495-16.493-47.855-6.863-15.288-14.85-24.01-19.775-32.23-9.693-16.186-20.136-30.732-30.102-46.156-13.747-21.28-24.223-45.098-39.258-65.35" style="fill:url(#ak);stroke-width:4.01367;filter:url(#filter14176-5)"/><path d="M860.91 873.786c-2.256-4.423-6.366-7.73-10.95-9.645-4.583-1.91-9.62-2.52-14.585-2.485-9.934.08-19.808 2.666-29.702 1.807-8.36-.723-16.295-3.866-24.443-5.848-8.416-2.047-17.347-2.85-25.707-.574-8.935 2.432-16.817 8.404-21.75 16.235-4.351 6.908-6.422 15.063-7.068 23.199-.65 8.14.052 16.32.875 24.443.594 5.876 1.26 11.76 2.68 17.496 1.422 5.731 3.63 11.33 7.089 16.115 4.977 6.887 12.374 11.8 20.35 14.75a56.54 56.54 0 0 0 40.658-.71c22.717-9.862 41.942-27.55 53.662-49.365a105.2 105.2 0 0 0 9.557-24.744c.839-3.424 1.497-6.911 1.525-10.435.032-3.524-.586-7.105-2.192-10.24" style="opacity:.35;fill:url(#al);stroke-width:4.01367;filter:url(#filter14897-2)"/><path d="M860.913 861.123c-2.26-3.198-6.37-5.589-10.957-6.97-4.575-1.384-9.617-1.828-14.581-1.799-9.934.058-19.808 1.927-29.702 1.306-8.36-.522-16.291-2.791-24.443-4.228-8.416-1.48-17.347-2.06-25.707-.415-8.935 1.759-16.817 6.076-21.75 11.74-4.351 4.99-6.418 10.887-7.068 16.771-.65 5.882.052 11.798.875 17.671.598 4.245 1.26 8.502 2.68 12.645 1.422 4.144 3.63 8.191 7.089 11.65 4.977 4.98 12.374 8.53 20.35 10.663a56.536 40.872 0 0 0 40.658-.513c22.717-7.13 41.942-19.917 53.662-35.687a105.17 76.03 0 0 0 9.56-17.888c.836-2.475 1.494-4.997 1.526-7.544.028-2.548-.59-5.133-2.192-7.4" style="opacity:.35;fill:url(#am);stroke-width:3.41263;filter:url(#filter14951-8)"/><path d="M879.794 832.397c-1.63-4.431-4.492-8.357-7.992-11.52-3.5-3.162-7.625-5.586-11.972-7.433-8.69-3.684-18.142-5.06-27.422-6.803-8.745-1.645-17.423-3.64-26.197-5.13-9.119-1.544-18.535-2.536-27.558-.5-7.886 1.777-15.187 5.855-21.156 11.314-5.972 5.458-10.636 12.265-13.987 19.626-5.912 12.964-7.767 27.554-6.639 41.754.84 10.568 3.512 21.457 10.468 29.46 5.623 6.463 13.598 10.492 21.81 12.925a73.8 73.8 0 0 0 43.588-.622 114.73 114.73 0 0 0 57.52-43.268c4.572-6.618 8.477-13.835 10.247-21.685 1.349-5.98 1.4-12.363-.714-18.118" style="fill:#020204;stroke-width:4.01367"/><path d="M362.219 276.456c-.55.03-1.082.09-1.625.187-3.47.617-6.647 2.809-8.438 5.844a12.4 12.4 0 0 0-1.656 7.156c.073-1.741.53-3.446 1.375-4.968 1.434-2.582 4.032-4.53 6.938-5.063 1.79-.328 3.631-.13 5.437.094 1.733.215 3.481.443 5.188.812 2.64.572 5.254 1.452 7.468 3 .517.362 1 .769 1.406 1.25.407.482.722 1.038.844 1.657.178.904-.08 1.853-.531 2.656-.452.803-1.065 1.507-1.719 2.156a40 40 0 0 1-1.656 1.531c2.559-.495 5.152-1.197 7.281-2.687.9-.63 1.715-1.385 2.25-2.344s.763-2.121.5-3.187c-.177-.72-.571-1.383-1.062-1.938s-1.08-1.012-1.688-1.437a20 20 0 0 0-9.062-3.47 111 111 0 0 0-6.281-.968c-1.644-.206-3.321-.373-4.97-.281z" clip-path="url(#an)" style="fill:url(#ao);filter:url(#filter14812-5)" transform="translate(-670.234 -312.813)scale(4.01366)"/><path d="M362.219 276.456c-.55.03-1.082.09-1.625.187-3.47.617-6.647 2.809-8.438 5.844a12.4 12.4 0 0 0-1.656 7.156c.073-1.741.53-3.446 1.375-4.968 1.434-2.582 4.032-4.53 6.938-5.063 1.79-.328 3.631-.13 5.437.094 1.733.215 3.481.443 5.188.812 2.64.572 5.254 1.452 7.468 3 .517.362 1 .769 1.406 1.25.407.482.722 1.038.844 1.657.178.904-.08 1.853-.531 2.656-.452.803-1.065 1.507-1.719 2.156a40 40 0 0 1-1.656 1.531c2.559-.495 5.152-1.197 7.281-2.687.9-.63 1.715-1.385 2.25-2.344s.763-2.121.5-3.187c-.177-.72-.571-1.383-1.062-1.938s-1.08-1.012-1.688-1.437a20 20 0 0 0-9.062-3.47 111 111 0 0 0-6.281-.968c-1.644-.206-3.321-.373-4.97-.281z" clip-path="url(#ap)" style="fill:url(#aq);filter:url(#filter14812-0-9)" transform="translate(-670.234 -312.813)scale(4.01366)"/><path d="M390.304 178.307c-7.145.39-13.984 3.692-19.214 8.577-5.233 4.889-8.918 11.286-11.186 18.073-4.535 13.583-3.512 28.305-2.48 42.585.931 12.932 1.886 26.113 6.727 38.138 2.424 6.013 5.82 11.68 10.355 16.312 4.535 4.627 10.247 8.196 16.536 9.769 5.892 1.477 12.19 1.172 17.99-.65s11.093-5.134 15.436-9.384c6.342-6.201 10.608-14.313 13.06-22.838 2.449-8.52 3.147-17.46 3.019-26.33-.16-11.093-1.606-22.227-5.082-32.767-3.471-10.54-9.01-20.482-16.749-28.44-3.744-3.854-8.015-7.246-12.835-9.622-4.82-2.38-10.21-3.716-15.573-3.423" style="fill:url(#ar);stroke-width:4.01367"/><path d="M373.073 237.508c-1.493 9.01-1.55 18.471 1.55 27.064 2.046 5.676 5.418 10.825 9.52 15.252 2.689 2.894 5.735 5.527 9.295 7.237 3.565 1.706 7.69 2.432 11.52 1.469 3.54-.883 6.63-3.163 8.91-6.009 2.288-2.841 3.805-6.233 4.889-9.713 3.203-10.279 2.689-21.52-.49-31.804-2.316-7.493-6.149-14.722-12.15-19.775-2.861-2.408-6.209-4.299-9.849-5.166-3.64-.863-7.586-.662-10.99.883-3.78 1.722-6.71 4.993-8.625 8.678-1.918 3.684-2.902 7.786-3.58 11.88" style="fill:#020204;stroke-width:4.01367"/><path d="M392.13 230.986c.971 2.545 4.234 3.468 6.02 5.519 1.738 1.995 3.565 4.054 4.516 6.522 1.826 4.72-1.798 11.72 2.007 15.051 1.196 1.044 3.592 1.068 4.768 0 4.596-4.182 3.572-12.619 1.754-18.563-1.65-5.394-5.728-10.5-10.753-13.064-2.324-1.184-5.82-2.172-7.81-.482-1.28 1.088-1.1 3.448-.502 5.017" style="fill:url(#as);stroke-width:4.01367;filter:url(#filter29493-2)"/><path d="M50.392 129.527c2.685-1.6 5.955-1.97 9.067-1.675s6.125 1.208 9.141 2.029c2.212.602 4.452 1.161 6.525 2.137 2.074.977 4 2.416 5.142 4.403.184.32.346.65.54.962.194.313.423.61.716.83.293.222.657.365 1.024.345.184-.01.366-.06.524-.154a1 1 0 0 0 .378-.392c.098-.187.128-.404.117-.615a3 3 0 0 0-.117-.622c-.755-2.753-2.535-5.088-3.889-7.601-.812-1.508-1.477-3.093-2.298-4.597-2.818-5.16-7.443-9.215-12.701-11.847s-11.128-3.896-16.997-4.24c-6.802-.397-13.62.41-20.33 1.592-2.908.512-5.86 1.115-8.435 2.561-1.288.724-2.468 1.657-3.389 2.811s-1.576 2.535-1.787 3.997c-.204 1.408.008 2.86.5 4.196.493 1.335 1.26 2.558 2.157 3.662 1.797 2.208 4.101 3.934 6.223 5.831s4.09 3.992 6.463 5.563c1.186.785 2.472 1.435 3.843 1.816 1.37.382 2.83.49 4.224.204 1.445-.296 2.783-1.005 3.954-1.902 1.17-.897 2.186-1.98 3.148-3.098 1.925-2.236 3.723-4.686 6.257-6.196" clip-path="url(#at)" style="fill:url(#au)" transform="translate(172.635 -312.813)scale(4.01366)"/><path d="M419.724 170.344c10.05 9.412 17.52 21.031 22.577 33.353-2.208-13.586-5.712-24.5-14.55-33.353-5.418-5.082-11.583-9.545-18.563-12.68-6.1-2.74-12.896-4.447-16.777-4.515-3.885-.072-4.828.016-5.623.052-.803.04-1.437.065 1.087.354 2.53.285 8.164 1.81 14.217 4.527 6.048 2.717 12.21 7.184 17.632 12.262" style="fill:url(#av);stroke-width:4.01367;filter:url(#filter29447-1)"/><path d="M516.806 178.307c-11.158 7.666-20.51 18.362-25.085 31.106-5.764 16.062-3.556 34.035 2.007 50.17 5.7 16.525 15.228 32.274 29.62 42.196 7.193 4.957 15.521 8.36 24.203 9.384 8.677 1.027 17.696-.381 25.447-4.415 9.444-4.925 16.648-13.542 21.12-23.207 4.475-9.665 6.377-20.35 6.975-30.982.763-13.546-.562-27.316-5.017-40.136-4.836-13.924-13.606-26.771-25.98-34.783-6.185-4.005-13.213-6.759-20.51-7.77-7.305-1.007-14.87-.253-21.742 2.416-3.913 1.525-7.574 3.645-11.038 6.02" style="fill:url(#aw);stroke-width:4.01367"/><path d="M542.542 212.001a25.86 25.86 0 0 0-11.848 3.974 31.1 31.1 0 0 0-8.979 8.75c-4.764 6.931-6.86 15.436-7.196 23.84-.253 6.314.445 12.708 2.54 18.664 2.091 5.96 5.62 11.48 10.484 15.505a30.37 30.37 0 0 0 17.76 6.904 29.8 29.8 0 0 0 18.307-5.242c4.226-2.942 7.634-6.988 10.062-11.531 2.424-4.54 3.89-9.565 4.555-14.67 1.18-9.019-.152-18.435-4.322-26.519-4.167-8.083-11.239-14.742-19.772-17.884-3.696-1.365-7.666-2.072-11.591-1.79" style="fill:#020204;stroke-width:4.01367"/><path d="M154.656 79.25c-.866.342-2.236.127-2.616.977-.225.503.093 1.332.603 1.54 1.033.42 2.632-.34 3.05-1.375.18-.449-.094-1.16-.54-1.348-.166-.07-.33.14-.497.206" style="fill:#141413;filter:url(#ax)" transform="translate(-68.185 -78.567)scale(4.01366)"/><path d="M568.482 248.546c4.66-4.66-3.315-17.018-9.532-22.075-4.504-3.665-17.62-7.502-17.058-3.512s6.462 9.095 10.415 12.992c4.865 4.8 13.96 14.81 16.175 12.595" style="fill:url(#ay);stroke-width:4.01367;filter:url(#filter28949-8)"/><path d="M75.25 132.487a23.7 23.7 0 0 1 8.122-4.4c6.085-1.881 13-1.137 18.378 2.275 1.857 1.178 3.512 2.642 5.24 4.004 1.726 1.362 3.56 2.641 5.635 3.371 1.12.395 2.318.624 3.5.5a6.5 6.5 0 0 0 2.984-1.119 7.6 7.6 0 0 0 2.181-2.337c1.112-1.837 1.47-4.064 1.278-6.203-.383-4.277-2.795-8.053-4.818-11.84-.633-1.187-1.236-2.394-2-3.5-2.343-3.397-6.073-5.636-9.985-6.949s-8.046-1.786-12.14-2.302c-1.826-.23-3.673-.47-5.5-.25-2.1.253-4.076 1.101-6.125 1.625-.973.249-1.964.425-2.928.704-.964.28-1.913.67-2.697 1.296-1.145.916-1.865 2.291-2.177 3.724-.311 1.432-.24 2.924-.011 4.372.458 2.896 1.54 5.724 1.438 8.654-.07 2.012-.702 3.988-.625 6 .023.59.107 1.178.25 1.75" clip-path="url(#az)" style="fill:url(#aA)" transform="translate(172.635 -312.813)scale(4.01366)"/><path d="M555.562 145.246c-1.914 2.408-3.644 5.025-5.017 7.903 8.617 1.854 16.858 5.403 24.207 10.283 14.228 9.452 25.033 23.267 32.61 38.632a40 40 0 0 0 4.769-6.398c-7.618-16.003-18.64-30.48-33.366-40.257-7.072-4.7-14.947-8.244-23.199-10.163z" style="fill:url(#aB);stroke-width:4.01367;filter:url(#filter29350-1)"/><path d="M423.89 272.628c7.096-7.971 11.949-17.7 18.764-25.916 3.408-4.106 7.337-7.847 11.965-10.5 4.631-2.657 10.002-4.182 15.32-3.72 5.916.513 11.459 3.459 15.79 7.525 4.334 4.062 7.545 9.191 10.11 14.55 2.452 5.129 4.403 10.595 7.943 15.05 3.773 4.753 9.07 7.996 13.847 11.732 2.396 1.867 4.688 3.894 6.583 6.262 1.886 2.376 3.367 5.125 3.973 8.095a16.9 16.9 0 0 1-.742 9.1 20.4 20.4 0 0 1-5.058 7.641c-4.435 4.275-10.487 6.583-16.588 7.446-12.202 1.726-24.544-1.91-36.866-1.574-12.466.345-24.648 4.752-37.114 4.295-6.233-.225-12.555-1.75-17.676-5.31a22.4 22.4 0 0 1-6.406-6.723 18.45 18.45 0 0 1-2.701-8.854c-.1-2.97.594-5.94 1.782-8.67s2.862-5.225 4.744-7.53c3.769-4.603 8.377-8.452 12.334-12.9" style="fill:url(#aC);stroke-width:4.01367"/><path d="M356.268 349.57c.245 1.184.69 2.328 1.312 3.371 1.064 1.782 2.625 3.231 4.307 4.455 1.686 1.228 3.504 2.248 5.266 3.356 9.368 5.888 16.998 14.164 23.78 22.906 9.096 11.728 17.147 24.744 29.297 33.269 8.58 6.02 18.848 9.452 29.275 10.5 12.246 1.228 24.644-.747 36.452-4.223 10.942-3.223 21.526-7.746 31.235-13.734 18.454-11.38 33.875-28.064 54.224-35.55 4.443-1.633 9.071-2.801 13.35-4.816 4.286-2.015 8.316-5.033 10.359-9.304 1.967-4.102 1.89-8.838 2.532-13.341.683-4.82 2.224-9.48 3.067-14.277s.943-9.921-1.132-14.328c-1.714-3.645-4.836-6.535-8.429-8.365-3.588-1.834-7.626-2.669-11.655-2.866-8.052-.397-16.003 1.666-24.034 2.4-10.636.972-21.345-.393-32.017-.08-13.277.402-26.362 3.392-39.63 4.038-15.14.735-30.244-1.601-45.387-2.215-6.559-.265-13.165-.2-19.635.907-6.47 1.108-12.824 3.303-18.222 7.036-5.266 3.632-9.46 8.589-14.289 12.78-2.42 2.09-5.017 4.009-7.895 5.406s-6.052 2.263-9.247 2.195c-1.646-.036-3.336-.309-4.905.189-.975.313-1.846.91-2.58 1.63a15 15 0 0 0-1.92 2.408 42 42 0 0 0-3.48 6.253" style="fill:url(#aD);stroke-width:4.01367"/><path d="M60.557 169.097a6.7 6.7 0 0 0 .643 4.771 6.7 6.7 0 0 0 3.703 3.077c1.977.659 4.206.336 6.054-.628 1.072-.56 2.052-1.346 2.67-2.385a4.5 4.5 0 0 0 .604-1.695 3.73 3.73 0 0 0-.185-1.786 3.9 3.9 0 0 0-1.146-1.596 5.2 5.2 0 0 0-1.733-.945c-1.258-.416-2.611-.424-3.934-.36a39 39 0 0 0-5.97.752" style="fill:#d9b30d;filter:url(#aE)" transform="translate(172.635 -312.813)scale(4.01366)"/><path d="M54.066 156.68c-1.339.791-2.628 1.664-3.897 2.563-.657.466-1.334.969-1.68 1.696-.246.515-.303 1.099-.31 1.67-.008.57.028 1.143-.047 1.709-.05.386-.154.766-.171 1.155-.009.195.005.392.056.58a1.2 1.2 0 0 0 .275.508c.173.184.408.296.65.37.24.073.49.11.735.168 1.174.277 2.197.997 3.094 1.804s1.703 1.715 2.639 2.477c2.537 2.064 5.89 2.918 9.16 2.972s6.505-.63 9.696-1.35c2.506-.564 5.015-1.154 7.426-2.043 3.702-1.365 7.14-3.432 10.118-6.022 1.35-1.174 2.617-2.463 4.132-3.415 1.341-.842 2.843-1.398 4.207-2.203.121-.072.243-.146.352-.236a1 1 0 0 0 .269-.325.98.98 0 0 0 .039-.716 1.9 1.9 0 0 0-.36-.634 4.4 4.4 0 0 0-.57-.578c-1.424-1.219-3.356-1.662-5.225-1.81-1.87-.148-3.76-.044-5.61-.353-1.739-.29-3.393-.938-5.072-1.477a37 37 0 0 0-5.389-1.31c-4.295-.701-8.717-.567-12.977.32a38 38 0 0 0-11.54 4.48" style="fill:#604405;filter:url(#aF)" transform="translate(172.635 -312.813)scale(4.01366)"/><path d="M387.928 297.882a95.4 95.4 0 0 0-20.618 18.804c-3.372 4.138-6.434 8.633-8.136 13.694-1.337 3.982-1.79 8.196-2.633 12.31-.317 1.541-.686 3.087-.682 4.656.004.79.104 1.581.349 2.328.24.747.634 1.453 1.18 2.019.899.939 2.167 1.449 3.443 1.714 1.277.26 2.585.3 3.878.445 5.84.666 11.214 3.5 16.054 6.835 4.84 3.332 9.3 7.205 14.269 10.348 10.973 6.94 24.058 10.026 37.034 10.524 12.972.501 25.916-1.47 38.651-4.014 10.115-2.019 20.201-4.415 29.802-8.2 14.698-5.796 27.947-14.718 40.61-24.17 5.752-4.295 11.423-8.722 16.585-13.707 1.754-1.694 3.451-3.452 5.33-5.001 1.878-1.55 3.965-2.894 6.285-3.64 3.532-1.14 7.365-.811 11.03-.201 2.757.462 5.522 1.084 8.316.967a12.3 12.3 0 0 0 4.094-.815c1.3-.521 2.496-1.324 3.387-2.408a8.1 8.1 0 0 0 1.77-5.105 10.34 10.34 0 0 0-1.485-5.238c-1.87-3.17-5.097-5.31-8.452-6.803-4.6-2.047-9.577-3.054-14.47-4.239a207.4 207.4 0 0 1-43.492-15.87c-6.887-3.415-13.582-7.204-20.357-10.836-6.964-3.733-14.064-7.321-21.63-9.613-16.91-5.126-35.392-3.448-52.085 2.352a111.4 111.4 0 0 0-48.031 32.864" style="fill:url(#aG);stroke-width:4.01367"/><path d="M83.239 153.08a1.8 1.8 0 0 0-.902-.591 2.4 2.4 0 0 0-1.084-.049c-.72.123-1.365.51-1.966.925-1.708 1.176-3.219 2.628-4.537 4.23-1.745 2.12-3.185 4.571-3.668 7.274-.081.456-.135.922-.078 1.38.057.46.233.916.559 1.244.286.288.675.464 1.078.522.402.058.815.002 1.2-.128.77-.26 1.41-.8 2.015-1.342 3.336-2.985 6.352-6.567 7.56-10.878.12-.433.223-.876.22-1.325-.002-.45-.119-.91-.397-1.262" style="fill:#f6da4a;filter:url(#aH)" transform="translate(172.635 -312.813)scale(4.01366)"/><path d="M474.667 276.754c.927 2.978 5.731 2.484 8.509 3.913 2.432 1.256 4.39 4.002 7.128 4.082 2.609.076 6.679-.903 7.016-3.496.45-3.424-4.547-5.599-7.766-6.855-4.139-1.614-9.445-2.432-13.326-.273-.89.494-1.862 1.653-1.561 2.629" style="opacity:.8;fill:url(#aI);stroke-width:4.01367;filter:url(#filter15177-1)"/><path d="M428.815 275.068c-3.564-1.16-9.464 5.126-7.538 8.344.53.883 2.148 2.003 3.235 1.405 1.646-.903 2.986-4.134 4.768-5.398 1.188-.843.924-3.901-.465-4.35" style="opacity:.8;fill:url(#aJ);stroke-width:4.01367;filter:url(#filter15173-0)"/><path d="M245.905 158.284a2.608 2.328 0 0 1-2.608 2.328 2.608 2.328 0 0 1-2.608-2.328 2.608 2.328 0 0 1 2.608-2.328 2.608 2.328 0 0 1 2.608 2.328" clip-path="url(#aK)" style="fill:url(#aL);filter:url(#filter28584-4)" transform="matrix(4.39745 0 -.68304 6.09326 -374.202 -642.406)"/></svg>