<?xml version="1.0" encoding="UTF-8" standalone="no"?>
<svg
   height="2500"
   width="2499.9998"
   viewBox="-437.42162 -219.06367 2636.5764 2553.6656"
   version="1.1"
   id="svg10481"
   sodipodi:docname="perl.svg"
   inkscape:version="1.2.2 (b0a8486541, 2022-12-01)"
   xmlns:inkscape="http://www.inkscape.org/namespaces/inkscape"
   xmlns:sodipodi="http://sodipodi.sourceforge.net/DTD/sodipodi-0.dtd"
   xmlns="http://www.w3.org/2000/svg"
   xmlns:svg="http://www.w3.org/2000/svg">
  <defs
     id="defs10485" />
  <sodipodi:namedview
     id="namedview10483"
     pagecolor="#ffffff"
     bordercolor="#666666"
     borderopacity="1.0"
     inkscape:showpageshadow="2"
     inkscape:pageopacity="0.0"
     inkscape:pagecheckerboard="0"
     inkscape:deskcolor="#d1d1d1"
     showgrid="false"
     inkscape:zoom="0.364"
     inkscape:cx="1023.3516"
     inkscape:cy="1251.3736"
     inkscape:window-width="2560"
     inkscape:window-height="1374"
     inkscape:window-x="1050"
     inkscape:window-y="43"
     inkscape:window-maximized="1"
     inkscape:current-layer="svg10481" />
  <linearGradient
     id="a"
     gradientTransform="matrix(0.76384641,1.7524591,-1.7524591,0.76384641,-23.544891,-124.01693)"
     gradientUnits="userSpaceOnUse"
     x1="244.823"
     x2="1115.3409"
     y1="-272.52301"
     y2="-272.52301">
    <stop
       offset="0"
       stop-color="#0073a1"
       id="stop10470" />
    <stop
       offset="1"
       stop-color="#003555"
       id="stop10472" />
  </linearGradient>
  <g
     transform="matrix(1.0688896,0,0,1.0688896,-151.17946,-29.448773)"
     id="g10479">
    <circle
       cx="965.53101"
       cy="1017.147"
       fill="#ffffff"
       r="1233.325"
       stroke-width="0.598"
       id="circle10475" />
    <path
       d="m 988.39,-215.992 a 1234.751,1234.751 0 0 0 -514.794,102.664 1234.751,1234.751 0 0 0 -638.542,1625.264 1234.751,1234.751 0 0 0 1356.592,717.689 c 24.04,-76.647 43.751,-160.689 43.751,-252.334 0,-13.023 -0.36,-26.049 -1.085,-39.434 0,0 44.132,-75.241 78.864,-173.277 43.048,-121.187 20.258,-254.677 -54.263,-360.31 -4.341,-5.787 -8.682,-12.298 -13.385,-18.81 -438.806,0 -655.86,-397.928 -710.85,-639.94 C 511.888,646.037 493.394,636.15 431.273,636.15 316.351,636.15 233.397,588.502 233.397,588.502 127.884,636.85 80.642,617.15 94.804,566.676 48.865,561.613 49.814,509.466 77.786,461.54 112.846,401.461 184.499,360.613 270.235,360.613 h 45.943 c 94.78,0 114.314,-49.561 211.987,-39.071 15.198,1.449 29.304,3.98 42.33,7.237 27.132,-31.111 57.881,-44.137 95.138,-41.605 5.788,0.725 9.404,5.792 8.322,11.217 l -9.043,41.963 c -3.256,15.555 1.086,31.835 12.297,42.325 78.862,73.797 124.082,199.688 174.727,313.279 82.122,167.49 280.36,400.099 598.34,101.653 223.586,-209.85 358.663,-384.812 580.703,-402.013 A 1234.751,1234.751 0 0 0 988.389,-215.992 Z M 464.117,391.493 c -32.569,0 -65.056,26.14 -53.997,30.825 2.46,1.044 6.64,1.755 11.438,2.285 3.436,20.83 20.927,36.94 42.741,36.94 21.814,0 39.016,-16.115 42.398,-36.945 4.786,-0.53 8.96,-1.238 11.417,-2.28 11.059,-4.685 -21.432,-30.825 -53.997,-30.825 z m 1153.431,1187.135 c -26.401,0.643 -50.103,17.418 -58.016,43.056 v 0.362 c -39.431,126.614 -116.123,290.127 -116.123,290.127 0,0 -76.294,135.144 -119.484,286.5 a 1234.751,1234.751 0 0 0 136.393,-48.196 1234.751,1234.751 0 0 0 245.355,-142.994 c -11.853,-23.596 -25.183,-47.667 -41.068,-72.52 0,0 -25.321,-112.506 -73.8,-235.139 a 1360.708,1360.708 0 0 0 20.623,-61.498 l 0.36,-1.448 c 1.443,-2.892 4.699,-3.98 8.316,-3.98 h 0.36 c 25.322,3.98 52.093,7.96 83.2,11.576 9.409,0.724 19.176,1.446 28.943,2.533 11.938,1.084 23.515,2.17 35.453,2.894 2.861,113.819 52.257,222.593 64.755,248.565 a 1234.751,1234.751 0 0 0 227.1,-306.164 c -87.927,10.038 -195.487,13.426 -322.04,0.806 -10.129,-1.086 -20.256,-2.17 -30.385,-2.894 -27.855,-3.257 -53.903,-6.873 -78.502,-10.852 a 65.144,65.144 0 0 0 -11.44,-0.734 z"
       fill="url(#a)"
       stroke-width="1.892"
       id="path10477"
       style="fill:url(#a)" />
  </g>
</svg>
