<svg width="160mm" height="80mm" version="1.1" viewBox="0 0 160 80" xmlns="http://www.w3.org/2000/svg">
	<defs>
		<filter id="a" x="-.032143" y="-.065208" width="1.0686" height="1.1479" color-interpolation-filters="sRGB">
			<feFlood flood-color="rgb(0,0,0)" flood-opacity=".43529" result="flood"/>
			<feComposite in="flood" in2="SourceGraphic" operator="in" result="composite1"/>
			<feGaussianBlur in="composite1" result="blur" stdDeviation="1"/>
			<feOffset dx="0.6" dy="1.9" result="offset"/>
			<feComposite in="SourceGraphic" in2="offset" result="composite2"/>
		</filter>
	</defs>
	<g transform="translate(-35 -33.797)">
		<text transform="matrix(.26458 0 0 .26458 10 4.1949)" fill="#f2f2f2" font-family="sans-serif" font-size="20px" letter-spacing="0px" stroke="#f2f2f2" stroke-width="15.874" word-spacing="0px" style="line-height:1.25;shape-inside:url(#rect186);white-space:pre" xml:space="preserve"/>
		<text transform="matrix(.26458 0 0 .26458 10 4.1949)" font-family="sans-serif" font-size="20px" letter-spacing="0px" word-spacing="0px" style="line-height:1.25;shape-inside:url(#rect186-1);white-space:pre" xml:space="preserve"/>
		<g filter="url(#a)">
			<g fill="#f2f2f2" stroke="#f2f2f2" stroke-width="4.2" aria-label="SEAN">
				<path d="m60.944 54.172q-0.38304 0-0.62244 0.2394-0.19152 0.2394-0.19152 0.57456 0 0.28728 0.14364 0.57456 0.14364 0.2394 0.43092 0.28728 0.14364 0.04788 1.1012 0.28728 1.0055 0.19152 2.2503 0.4788 1.2449 0.28728 2.4897 0.67031 1.2927 0.33516 1.9631 0.67031 1.4364 0.81395 2.8249 1.9631 1.3885 1.1491 2.4897 2.777 1.1012 1.58 1.7715 3.7346 0.67031 2.1067 0.67031 4.8358 0 3.2558-1.197 6.0807-1.1491 2.777-3.1601 4.8358-2.0109 2.0588-4.788 3.2558-2.7291 1.197-5.8892 1.197h-16.231v-6.368h16.231q2.0109 0 3.6388-0.67031 1.6758-0.67032 2.8728-1.8673t1.8194-2.8249q0.67032-1.6758 0.67032-3.6388 0-2.4897-0.90971-4.0698-0.90971-1.58-2.2503-2.4897-1.3406-0.95759-2.9207-1.3885-1.5321-0.4788-2.8249-0.76607-1.4364-0.28728-2.8249-0.76607-1.3406-0.52668-2.394-1.3885-1.0534-0.86183-1.7237-2.1546-0.62244-1.2927-0.62244-3.2079 0-1.8194 0.52668-3.1601 0.52668-1.3885 1.4364-2.2982 0.95759-0.90971 2.2025-1.3406 1.2927-0.4788 2.777-0.4788h15.848v6.368zm-0.2394-8.1395q-1.9631 0-3.591 0.67031-1.58 0.67032-2.7291 1.8673-1.1012 1.197-1.7237 2.8728-0.62244 1.6279-0.62244 3.591 0 2.0588 0.71819 3.591t1.8194 2.6334q1.1491 1.1012 2.5376 1.7715 1.3885 0.62244 2.7291 0.86183 1.2927 0.2394 2.8249 0.67031 1.5321 0.38304 2.8249 1.197 1.2927 0.76607 2.1546 2.1067t0.86183 3.3995q0 1.8194-0.57456 3.2079-0.57456 1.3406-1.58 2.2503-1.0055 0.90971-2.3461 1.3885-1.2927 0.43092-2.777 0.43092h-16.231v-6.368h15.657q0.38304 0 0.57456-0.2394 0.2394-0.28728 0.2394-0.57456 0-0.67032-0.57456-0.90971-0.14364-0.04788-1.1491-0.2394t-2.2982-0.4788q-1.2449-0.28728-2.4897-0.62244-1.2449-0.38304-1.9152-0.76607-1.3885-0.76607-2.7291-1.9152-1.3406-1.1491-2.394-2.7291-1.0055-1.6279-1.6279-3.7346-0.62244-2.1546-0.62244-4.9316 0-3.2079 1.1491-6.0328 1.197-2.8249 3.2079-4.8837t4.7401-3.2558q2.777-1.197 5.9371-1.197h15.848v6.368z"/>
				<path d="m78.324 54.124q0-3.0164 1.1012-5.6498 1.1012-2.6813 2.9207-4.5964 1.8673-1.9631 4.2613-3.0643 2.4419-1.1491 5.0274-1.1491h18.146v6.368h-17.38q-1.8194 0-3.2558 0.71819t-2.4419 1.8673q-0.95759 1.1491-1.4843 2.6334-0.52668 1.4364-0.52668 2.8728v18.051q0 1.4364 0.52668 2.9207 0.52668 1.4364 1.4843 2.5855 1.0055 1.1491 2.4419 1.8673t3.2558 0.71819h17.38v6.368h-18.146q-2.5855 0-5.0274-1.1012-2.394-1.1491-4.2613-3.0643-1.8194-1.9631-2.9207-4.5964-1.1012-2.6813-1.1012-5.6977zm8.0917 8.2353v-7.2777q0-1.2449 0.38304-2.5376 0.43092-1.3406 1.2449-2.394 0.81395-1.0534 2.0588-1.7237 1.2449-0.67031 2.9207-0.67031h16.758v6.368h-16.614q-0.28728 0-0.62244 0.33516-0.28728 0.33516-0.28728 0.90971v0.67031h13.885v6.3201zm0 1.58h19.726v6.368h-13.885v0.62244q0 0.57456 0.28728 0.90971 0.33516 0.33516 0.62244 0.33516h16.614v6.368h-16.758q-1.6758 0-2.9207-0.67032-1.2449-0.67031-2.0588-1.7237-0.81395-1.0534-1.2449-2.3461-0.38304-1.3406-0.38304-2.5855z"/>
				<path d="m126.4 81.032h19.87l-12.161-33.755q-0.14364-0.4788-0.86184-0.86183-0.71819-0.38304-1.3885-0.38304-0.76607 0-1.4364 0.38304-0.62244 0.38304-0.76608 0.86183l-13.837 39.357h-6.368l14.795-41.751q0.33515-1.0055 0.95759-1.9152 0.62243-0.95759 1.5322-1.6758 0.95759-0.76607 2.2025-1.197 1.2928-0.43092 2.9206-0.43092 1.6279 0 2.8728 0.43092 1.2449 0.43092 2.1546 1.197 0.95759 0.71819 1.58 1.6758 0.62243 0.90971 1.0055 1.9152l14.795 41.751h-27.866zm0-1.7237v-1.8194l-3.0643 9.145h-5.7934l13.167-38.16q0.0958-0.28728 0.43092-0.4788 0.38304-0.2394 0.71819-0.2394 0.33516 0 0.7182 0.2394 0.38303 0.19152 0.47879 0.4788l10.917 30.834zm5.4583-17.763-3.8304 12.066h7.8044z"/>
				<path d="m178.97 86.634v-33.851q0-1.4364-0.38304-2.6813-0.33515-1.2449-1.1491-2.1546-0.76607-0.90971-2.0588-1.3885-1.2449-0.52668-3.0643-0.52668h-19.726v-6.368h19.104q3.4952 0 5.985 0.76607 2.5376 0.76607 4.1655 2.4897 1.6279 1.7237 2.394 4.5007 0.76607 2.7291 0.76607 6.7031v32.51zm-26.382-32.51v-6.368h19.104q1.6758 0 2.7291 0.4788 1.1012 0.43092 1.7237 1.2449 0.62244 0.81395 0.86184 1.9152 0.23939 1.1012 0.23939 2.3461v32.893h-5.985v-31.265q0-0.57456-0.38303-0.90971-0.33516-0.33516-0.90971-0.33516zm14.46 32.51h-6.7031v-30.978h6.7031zm-14.46 0v-30.978h6.0328v30.978z"/>
			</g>
			<g transform="matrix(.91187 0 0 .91187 9.9696 8.7978)" fill="#f2f2f2" stroke="#f2f2f2" stroke-width="2.8" aria-label="MORRIS">
				<path d="m86.325 101.06-2.465-6.602c-0.04597-0.11492-0.14365-0.21834-0.29304-0.31028-0.14939-0.09193-0.31602-0.1379-0.49989-0.1379-0.16088 0-0.32752 0.04597-0.49989 0.1379-0.17238 0.09193-0.2758 0.19536-0.31028 0.31028l-4.9645 14.169h-2.2926l5.3264-15.031c0.09193-0.24133 0.2126-0.47116 0.36199-0.68951 0.14939-0.22984 0.33326-0.43094 0.55161-0.60332 0.22984-0.18387 0.49415-0.32752 0.79293-0.43094s0.64354-0.15514 1.0343-0.15514 0.72973 0.05171 1.017 0.15514c0.2873 0.10343 0.54012 0.24707 0.75846 0.43094 0.21834 0.17238 0.40221 0.37348 0.55161 0.60332 0.16088 0.21834 0.29879 0.44818 0.4137 0.68951l0.51713 1.0343 0.51713-1.0343c0.12641-0.24133 0.26431-0.47116 0.4137-0.68951 0.16088-0.22984 0.34475-0.43094 0.55161-0.60332 0.21834-0.18387 0.47116-0.32752 0.75846-0.43094s0.6263-0.15514 1.017-0.15514c0.37923 0 0.71824 0.05171 1.017 0.15514 0.31028 0.10343 0.57459 0.24707 0.79293 0.43094 0.22984 0.17238 0.41945 0.37348 0.56884 0.60332 0.16088 0.21834 0.28155 0.44818 0.36199 0.68951l5.3264 15.031h-2.2926l-4.9645-14.169c-0.03447-0.11492-0.1379-0.21834-0.31028-0.31028-0.17238-0.09193-0.33901-0.1379-0.49989-0.1379-0.18387 0-0.3505 0.04597-0.49989 0.1379-0.14939 0.09193-0.24707 0.19536-0.29304 0.31028zm0 5.7513-3.2579-6.8718-2.8615 8.6878h-2.2926l4.7231-13.738c0.02299-0.06895 0.08045-0.12641 0.17238-0.17238 0.09193-0.05746 0.17812-0.08619 0.25857-0.08619 0.08044 0 0.16088 0.02873 0.24133 0.08619 0.09193 0.04597 0.14939 0.10343 0.17238 0.17238l2.8442 7.8432 2.8442-7.8432c0.02299-0.06895 0.0747-0.12641 0.15514-0.17238 0.09193-0.05746 0.17812-0.08619 0.25856-0.08619 0.08044 0 0.16663 0.02873 0.25857 0.08619 0.09193 0.04597 0.14939 0.10343 0.17238 0.17238l4.7231 13.738h-2.2064l-2.9476-8.6878z"/>
				<path d="m101.53 108.63q-1.2411 0-2.1375-0.29304-0.89636-0.29304-1.4997-0.9136-0.58608-0.63779-0.87912-1.6203-0.2758-0.99979-0.2758-2.3788v-6.4986q0-1.4307 0.2758-2.4133 0.29304-0.99979 0.87912-1.6203 0.60332-0.62056 1.4997-0.89636 0.89636-0.2758 2.1375-0.2758h2.2064q1.2584 0 2.1547 0.2758 0.9136 0.2758 1.4997 0.89636t0.86188 1.6203q0.27581 0.98255 0.27581 2.4133v6.4986q0 1.379-0.27581 2.3788-0.2758 0.98255-0.86188 1.6203-0.58608 0.62056-1.4997 0.9136-0.89636 0.29304-2.1547 0.29304zm2.4478-2.2926q0.65504 0 1.1032-0.17238 0.44818-0.18961 0.72398-0.51713 0.29304-0.32752 0.41371-0.7757 0.1379-0.44818 0.1379-0.96531v-7.4639q0-0.51713-0.1379-0.96531-0.12067-0.44818-0.41371-0.7757-0.2758-0.32752-0.74122-0.49989-0.44818-0.18961-1.1032-0.18961h-2.6546q-0.65503 0-1.1204 0.18961-0.44818 0.17238-0.74122 0.49989-0.2758 0.32752-0.4137 0.7757-0.12066 0.44818-0.12066 0.96531v7.4639q0 0.51713 0.12066 0.96531 0.1379 0.44818 0.4137 0.7757 0.29304 0.32752 0.74122 0.51713 0.44818 0.17238 1.1032 0.17238h1.3445zm-2.465-0.62056q-0.60332 0-0.99978-0.10342-0.37923-0.12067-0.60332-0.37923-0.20685-0.25857-0.29304-0.65504-0.08619-0.4137-0.08619-1.017v-6.7744q0-0.44818 0.08619-0.84465t0.31028-0.68951q0.2241-0.29304 0.60332-0.44818 0.39647-0.17238 0.99979-0.17238h2.2064q0.60332 0 0.98255 0.17238 0.39646 0.15514 0.62055 0.44818t0.31028 0.68951q0.0862 0.39647 0.0862 0.84465v6.7744q0 0.60332-0.0862 1.017-0.0862 0.39647-0.31028 0.65504-0.20685 0.25856-0.60332 0.37923-0.37923 0.10342-0.98255 0.10342zm1.6721-2.2926q0.20685 0 0.25857-0.12067 0.069-0.12066 0.069-0.32751v-5.6023q0-0.20685-0.069-0.32752-0.0517-0.12066-0.25857-0.12066h-1.1032q-0.20686 0-0.27581 0.12066-0.0517 0.12066-0.0517 0.32752v5.6023q0 0.20685 0.0517 0.32751 0.069 0.12067 0.27581 0.12067z"/>
				<path d="m109.27 94.666h6.7399q1.086 0 1.7927 0.65503 0.72398 0.65503 0.72398 1.9823 0 0.56884-0.18961 1.0687-0.18962 0.48266-0.53437 0.84465-0.32752 0.36199-0.79294 0.56884-0.46541 0.20685-0.99978 0.20685h-0.56885l4.9128 8.6361h-2.465l-3.4131-5.9125v5.9125h-2.2926v-11.015h3.7406q0.1379 0 0.20685-0.10343 0.0862-0.10343 0.0862-0.22409 0-0.12066-0.0862-0.20685-0.069-0.10343-0.20685-0.10343h-4.3611v11.653h-2.2926zm7.2743 5.8953q0.49989-0.0345 0.96531-0.29304 0.48265-0.25857 0.84464-0.68951 0.362-0.43094 0.58609-0.99979 0.22409-0.58608 0.22409-1.2756 0-0.70674-0.22409-1.3101-0.22409-0.60332-0.6378-1.0343-0.4137-0.43094-0.99979-0.67227-0.56884-0.24133-1.2928-0.24133h-6.7399v-2.3271h6.7399q1.1377 0 2.1375 0.43094 0.99979 0.43094 1.741 1.1894 0.74122 0.75846 1.1549 1.7755 0.43095 1.017 0.43095 2.1892 0 1.4824-0.4999 2.5684-0.49989 1.0687-1.3618 1.7238l3.9302 7.033h-2.3443z"/>
				<path d="m122.58 94.666h6.7399q1.086 0 1.7927 0.65503 0.72399 0.65503 0.72399 1.9823 0 0.56884-0.18962 1.0687-0.18961 0.48266-0.53437 0.84465-0.32751 0.36199-0.79293 0.56884t-0.99979 0.20685h-0.56884l4.9127 8.6361h-2.465l-3.4131-5.9125v5.9125h-2.2926v-11.015h3.7406q0.1379 0 0.20686-0.10343 0.0862-0.10343 0.0862-0.22409 0-0.12066-0.0862-0.20685-0.069-0.10343-0.20686-0.10343h-4.3611v11.653h-2.2926zm7.2743 5.8953q0.49989-0.0345 0.96531-0.29304 0.48266-0.25857 0.84465-0.68951 0.36199-0.43094 0.58608-0.99979 0.22409-0.58608 0.22409-1.2756 0-0.70674-0.22409-1.3101-0.22409-0.60332-0.63779-1.0343-0.41371-0.43094-0.99979-0.67227-0.56884-0.24133-1.2928-0.24133h-6.7399v-2.3271h6.7399q1.1377 0 2.1375 0.43094 0.99978 0.43094 1.741 1.1894 0.74123 0.75846 1.1549 1.7755 0.43094 1.017 0.43094 2.1892 0 1.4824-0.49989 2.5684-0.49989 1.0687-1.3618 1.7238l3.9302 7.033h-2.3443z"/>
				<path d="m136.75 108.63v-16.445h2.2926v16.445zm2.9132 0.0461v-16.491h2.2926v16.491z"/>
				<path d="m149.38 96.942q-0.1379 0-0.22409 0.08619-0.069 0.08619-0.069 0.20685 0 0.10343 0.0517 0.20685 0.0517 0.08619 0.15513 0.10343 0.0517 0.01724 0.39647 0.10343 0.36199 0.06895 0.81017 0.17238 0.44818 0.10343 0.89636 0.24133 0.46542 0.12066 0.70675 0.24133 0.51713 0.29304 1.017 0.70675 0.4999 0.4137 0.89636 0.99978 0.39647 0.56885 0.6378 1.3445 0.24133 0.75846 0.24133 1.741 0 1.1722-0.43095 2.1892-0.4137 0.99979-1.1377 1.741-0.72399 0.74122-1.7238 1.1722-0.98255 0.43094-2.1202 0.43094h-5.8436v-2.2926h5.8436q0.72398 0 1.3101-0.24133 0.60332-0.24133 1.0343-0.67227 0.43094-0.43094 0.65503-1.017 0.24133-0.60332 0.24133-1.3101 0-0.89636-0.32752-1.4652-0.32752-0.56885-0.81017-0.89636-0.48266-0.34476-1.0515-0.4999-0.55161-0.17237-1.017-0.2758-0.51714-0.10343-1.017-0.2758-0.48265-0.18962-0.86188-0.49989-0.37923-0.31028-0.62056-0.7757-0.22409-0.46542-0.22409-1.1549 0-0.65503 0.18961-1.1377 0.18962-0.49989 0.51713-0.82741 0.34476-0.32752 0.79294-0.48266 0.46542-0.17238 0.99978-0.17238h5.7057v2.2926zm-0.0862-2.9304q-0.70674 0-1.2928 0.24133-0.56885 0.24133-0.98255 0.67227-0.39647 0.43094-0.62056 1.0343-0.22409 0.58608-0.22409 1.2928 0 0.74122 0.25857 1.2928 0.25856 0.55161 0.65503 0.94807 0.4137 0.39647 0.9136 0.6378 0.49989 0.22409 0.98255 0.31028 0.46541 0.0862 1.017 0.24132 0.55161 0.1379 1.017 0.43095 0.46542 0.2758 0.7757 0.75845 0.31028 0.48266 0.31028 1.2239 0 0.65503-0.20685 1.1549-0.20685 0.48265-0.56885 0.81017-0.36199 0.32752-0.84464 0.49989-0.46542 0.15514-0.99979 0.15514h-5.8436v-2.2926h5.6367q0.1379 0 0.20685-0.0862 0.0862-0.10343 0.0862-0.20685 0-0.24133-0.20685-0.32752-0.0517-0.0172-0.41371-0.0862-0.36199-0.069-0.82741-0.17238-0.44818-0.10342-0.89636-0.22409-0.44818-0.1379-0.68951-0.2758-0.49989-0.2758-0.98255-0.68951-0.48265-0.4137-0.86188-0.98255-0.36199-0.58608-0.58608-1.3445-0.22409-0.7757-0.22409-1.7755 0-1.1549 0.4137-2.172 0.43094-1.017 1.1549-1.7582 0.72398-0.74122 1.7065-1.1722 0.99979-0.43094 2.1375-0.43094h5.7057v2.2926z"/>
			</g>
			<g fill="#0f55e2" stroke-width="2.394" aria-label="SEAN">
				<path d="m60.944 54.172q-0.38304 0-0.62244 0.2394-0.19152 0.2394-0.19152 0.57456 0 0.28728 0.14364 0.57456 0.14364 0.2394 0.43092 0.28728 0.14364 0.04788 1.1012 0.28728 1.0055 0.19152 2.2503 0.4788 1.2449 0.28728 2.4897 0.67031 1.2927 0.33516 1.9631 0.67031 1.4364 0.81395 2.8249 1.9631 1.3885 1.1491 2.4897 2.777 1.1012 1.58 1.7715 3.7346 0.67031 2.1067 0.67031 4.8358 0 3.2558-1.197 6.0807-1.1491 2.777-3.1601 4.8358-2.0109 2.0588-4.788 3.2558-2.7291 1.197-5.8892 1.197h-16.231v-6.368h16.231q2.0109 0 3.6388-0.67031 1.6758-0.67032 2.8728-1.8673t1.8194-2.8249q0.67032-1.6758 0.67032-3.6388 0-2.4897-0.90971-4.0698-0.90971-1.58-2.2503-2.4897-1.3406-0.95759-2.9207-1.3885-1.5321-0.4788-2.8249-0.76607-1.4364-0.28728-2.8249-0.76607-1.3406-0.52668-2.394-1.3885-1.0534-0.86183-1.7237-2.1546-0.62244-1.2927-0.62244-3.2079 0-1.8194 0.52668-3.1601 0.52668-1.3885 1.4364-2.2982 0.95759-0.90971 2.2025-1.3406 1.2927-0.4788 2.777-0.4788h15.848v6.368zm-0.2394-8.1395q-1.9631 0-3.591 0.67031-1.58 0.67032-2.7291 1.8673-1.1012 1.197-1.7237 2.8728-0.62244 1.6279-0.62244 3.591 0 2.0588 0.71819 3.591t1.8194 2.6334q1.1491 1.1012 2.5376 1.7715 1.3885 0.62244 2.7291 0.86183 1.2927 0.2394 2.8249 0.67031 1.5321 0.38304 2.8249 1.197 1.2927 0.76607 2.1546 2.1067t0.86183 3.3995q0 1.8194-0.57456 3.2079-0.57456 1.3406-1.58 2.2503-1.0055 0.90971-2.3461 1.3885-1.2927 0.43092-2.777 0.43092h-16.231v-6.368h15.657q0.38304 0 0.57456-0.2394 0.2394-0.28728 0.2394-0.57456 0-0.67032-0.57456-0.90971-0.14364-0.04788-1.1491-0.2394t-2.2982-0.4788q-1.2449-0.28728-2.4897-0.62244-1.2449-0.38304-1.9152-0.76607-1.3885-0.76607-2.7291-1.9152-1.3406-1.1491-2.394-2.7291-1.0055-1.6279-1.6279-3.7346-0.62244-2.1546-0.62244-4.9316 0-3.2079 1.1491-6.0328 1.197-2.8249 3.2079-4.8837t4.7401-3.2558q2.777-1.197 5.9371-1.197h15.848v6.368z"/>
				<path d="m78.324 54.124q0-3.0164 1.1012-5.6498 1.1012-2.6813 2.9207-4.5964 1.8673-1.9631 4.2613-3.0643 2.4419-1.1491 5.0274-1.1491h18.146v6.368h-17.38q-1.8194 0-3.2558 0.71819t-2.4419 1.8673q-0.95759 1.1491-1.4843 2.6334-0.52668 1.4364-0.52668 2.8728v18.051q0 1.4364 0.52668 2.9207 0.52668 1.4364 1.4843 2.5855 1.0055 1.1491 2.4419 1.8673t3.2558 0.71819h17.38v6.368h-18.146q-2.5855 0-5.0274-1.1012-2.394-1.1491-4.2613-3.0643-1.8194-1.9631-2.9207-4.5964-1.1012-2.6813-1.1012-5.6977zm8.0917 8.2353v-7.2777q0-1.2449 0.38304-2.5376 0.43092-1.3406 1.2449-2.394 0.81395-1.0534 2.0588-1.7237 1.2449-0.67031 2.9207-0.67031h16.758v6.368h-16.614q-0.28728 0-0.62244 0.33516-0.28728 0.33516-0.28728 0.90971v0.67031h13.885v6.3201zm0 1.58h19.726v6.368h-13.885v0.62244q0 0.57456 0.28728 0.90971 0.33516 0.33516 0.62244 0.33516h16.614v6.368h-16.758q-1.6758 0-2.9207-0.67032-1.2449-0.67031-2.0588-1.7237-0.81395-1.0534-1.2449-2.3461-0.38304-1.3406-0.38304-2.5855z"/>
				<path d="m126.4 81.032h19.87l-12.161-33.755q-0.14364-0.4788-0.86184-0.86183-0.71819-0.38304-1.3885-0.38304-0.76607 0-1.4364 0.38304-0.62244 0.38304-0.76608 0.86183l-13.837 39.357h-6.368l14.795-41.751q0.33515-1.0055 0.95759-1.9152 0.62243-0.95759 1.5322-1.6758 0.95759-0.76607 2.2025-1.197 1.2928-0.43092 2.9206-0.43092 1.6279 0 2.8728 0.43092 1.2449 0.43092 2.1546 1.197 0.95759 0.71819 1.58 1.6758 0.62243 0.90971 1.0055 1.9152l14.795 41.751h-27.866zm0-1.7237v-1.8194l-3.0643 9.145h-5.7934l13.167-38.16q0.0958-0.28728 0.43092-0.4788 0.38304-0.2394 0.71819-0.2394 0.33516 0 0.7182 0.2394 0.38303 0.19152 0.47879 0.4788l10.917 30.834zm5.4583-17.763-3.8304 12.066h7.8044z"/>
				<path d="m178.97 86.634v-33.851q0-1.4364-0.38304-2.6813-0.33515-1.2449-1.1491-2.1546-0.76607-0.90971-2.0588-1.3885-1.2449-0.52668-3.0643-0.52668h-19.726v-6.368h19.104q3.4952 0 5.985 0.76607 2.5376 0.76607 4.1655 2.4897 1.6279 1.7237 2.394 4.5007 0.76607 2.7291 0.76607 6.7031v32.51zm-26.382-32.51v-6.368h19.104q1.6758 0 2.7291 0.4788 1.1012 0.43092 1.7237 1.2449 0.62244 0.81395 0.86184 1.9152 0.23939 1.1012 0.23939 2.3461v32.893h-5.985v-31.265q0-0.57456-0.38303-0.90971-0.33516-0.33516-0.90971-0.33516zm14.46 32.51h-6.7031v-30.978h6.7031zm-14.46 0v-30.978h6.0328v30.978z"/>
			</g>
			<g transform="matrix(.91187 0 0 .91187 9.9696 8.7978)" fill="#0f55e2" stroke-width=".86188" aria-label="MORRIS">
				<path d="m86.325 101.06-2.465-6.602c-0.04597-0.11492-0.14365-0.21834-0.29304-0.31028-0.14939-0.09193-0.31602-0.1379-0.49989-0.1379-0.16088 0-0.32752 0.04597-0.49989 0.1379-0.17238 0.09193-0.2758 0.19536-0.31028 0.31028l-4.9645 14.169h-2.2926l5.3264-15.031c0.09193-0.24133 0.2126-0.47116 0.36199-0.68951 0.14939-0.22984 0.33326-0.43094 0.55161-0.60332 0.22984-0.18387 0.49415-0.32752 0.79293-0.43094s0.64354-0.15514 1.0343-0.15514 0.72973 0.05171 1.017 0.15514c0.2873 0.10343 0.54012 0.24707 0.75846 0.43094 0.21834 0.17238 0.40221 0.37348 0.55161 0.60332 0.16088 0.21834 0.29879 0.44818 0.4137 0.68951l0.51713 1.0343 0.51713-1.0343c0.12641-0.24133 0.26431-0.47116 0.4137-0.68951 0.16088-0.22984 0.34475-0.43094 0.55161-0.60332 0.21834-0.18387 0.47116-0.32752 0.75846-0.43094s0.6263-0.15514 1.017-0.15514c0.37923 0 0.71824 0.05171 1.017 0.15514 0.31028 0.10343 0.57459 0.24707 0.79293 0.43094 0.22984 0.17238 0.41945 0.37348 0.56884 0.60332 0.16088 0.21834 0.28155 0.44818 0.36199 0.68951l5.3264 15.031h-2.2926l-4.9645-14.169c-0.03447-0.11492-0.1379-0.21834-0.31028-0.31028-0.17238-0.09193-0.33901-0.1379-0.49989-0.1379-0.18387 0-0.3505 0.04597-0.49989 0.1379-0.14939 0.09193-0.24707 0.19536-0.29304 0.31028zm0 5.7513-3.2579-6.8718-2.8615 8.6878h-2.2926l4.7231-13.738c0.02299-0.06895 0.08045-0.12641 0.17238-0.17238 0.09193-0.05746 0.17812-0.08619 0.25857-0.08619 0.08044 0 0.16088 0.02873 0.24133 0.08619 0.09193 0.04597 0.14939 0.10343 0.17238 0.17238l2.8442 7.8432 2.8442-7.8432c0.02299-0.06895 0.0747-0.12641 0.15514-0.17238 0.09193-0.05746 0.17812-0.08619 0.25856-0.08619 0.08044 0 0.16663 0.02873 0.25857 0.08619 0.09193 0.04597 0.14939 0.10343 0.17238 0.17238l4.7231 13.738h-2.2064l-2.9476-8.6878z"/>
				<path d="m101.53 108.63q-1.2411 0-2.1375-0.29304-0.89636-0.29304-1.4997-0.9136-0.58608-0.63779-0.87912-1.6203-0.2758-0.99979-0.2758-2.3788v-6.4986q0-1.4307 0.2758-2.4133 0.29304-0.99979 0.87912-1.6203 0.60332-0.62056 1.4997-0.89636 0.89636-0.2758 2.1375-0.2758h2.2064q1.2584 0 2.1547 0.2758 0.9136 0.2758 1.4997 0.89636t0.86188 1.6203q0.27581 0.98255 0.27581 2.4133v6.4986q0 1.379-0.27581 2.3788-0.2758 0.98255-0.86188 1.6203-0.58608 0.62056-1.4997 0.9136-0.89636 0.29304-2.1547 0.29304zm2.4478-2.2926q0.65504 0 1.1032-0.17238 0.44818-0.18961 0.72398-0.51713 0.29304-0.32752 0.41371-0.7757 0.1379-0.44818 0.1379-0.96531v-7.4639q0-0.51713-0.1379-0.96531-0.12067-0.44818-0.41371-0.7757-0.2758-0.32752-0.74122-0.49989-0.44818-0.18961-1.1032-0.18961h-2.6546q-0.65503 0-1.1204 0.18961-0.44818 0.17238-0.74122 0.49989-0.2758 0.32752-0.4137 0.7757-0.12066 0.44818-0.12066 0.96531v7.4639q0 0.51713 0.12066 0.96531 0.1379 0.44818 0.4137 0.7757 0.29304 0.32752 0.74122 0.51713 0.44818 0.17238 1.1032 0.17238h1.3445zm-2.465-0.62056q-0.60332 0-0.99978-0.10342-0.37923-0.12067-0.60332-0.37923-0.20685-0.25857-0.29304-0.65504-0.08619-0.4137-0.08619-1.017v-6.7744q0-0.44818 0.08619-0.84465t0.31028-0.68951q0.2241-0.29304 0.60332-0.44818 0.39647-0.17238 0.99979-0.17238h2.2064q0.60332 0 0.98255 0.17238 0.39646 0.15514 0.62055 0.44818t0.31028 0.68951q0.0862 0.39647 0.0862 0.84465v6.7744q0 0.60332-0.0862 1.017-0.0862 0.39647-0.31028 0.65504-0.20685 0.25856-0.60332 0.37923-0.37923 0.10342-0.98255 0.10342zm1.6721-2.2926q0.20685 0 0.25857-0.12067 0.069-0.12066 0.069-0.32751v-5.6023q0-0.20685-0.069-0.32752-0.0517-0.12066-0.25857-0.12066h-1.1032q-0.20686 0-0.27581 0.12066-0.0517 0.12066-0.0517 0.32752v5.6023q0 0.20685 0.0517 0.32751 0.069 0.12067 0.27581 0.12067z"/>
				<path d="m109.27 94.666h6.7399q1.086 0 1.7927 0.65503 0.72398 0.65503 0.72398 1.9823 0 0.56884-0.18961 1.0687-0.18962 0.48266-0.53437 0.84465-0.32752 0.36199-0.79294 0.56884-0.46541 0.20685-0.99978 0.20685h-0.56885l4.9128 8.6361h-2.465l-3.4131-5.9125v5.9125h-2.2926v-11.015h3.7406q0.1379 0 0.20685-0.10343 0.0862-0.10343 0.0862-0.22409 0-0.12066-0.0862-0.20685-0.069-0.10343-0.20685-0.10343h-4.3611v11.653h-2.2926zm7.2743 5.8953q0.49989-0.0345 0.96531-0.29304 0.48265-0.25857 0.84464-0.68951 0.362-0.43094 0.58609-0.99979 0.22409-0.58608 0.22409-1.2756 0-0.70674-0.22409-1.3101-0.22409-0.60332-0.6378-1.0343-0.4137-0.43094-0.99979-0.67227-0.56884-0.24133-1.2928-0.24133h-6.7399v-2.3271h6.7399q1.1377 0 2.1375 0.43094 0.99979 0.43094 1.741 1.1894 0.74122 0.75846 1.1549 1.7755 0.43095 1.017 0.43095 2.1892 0 1.4824-0.4999 2.5684-0.49989 1.0687-1.3618 1.7238l3.9302 7.033h-2.3443z"/>
				<path d="m122.58 94.666h6.7399q1.086 0 1.7927 0.65503 0.72399 0.65503 0.72399 1.9823 0 0.56884-0.18962 1.0687-0.18961 0.48266-0.53437 0.84465-0.32751 0.36199-0.79293 0.56884t-0.99979 0.20685h-0.56884l4.9127 8.6361h-2.465l-3.4131-5.9125v5.9125h-2.2926v-11.015h3.7406q0.1379 0 0.20686-0.10343 0.0862-0.10343 0.0862-0.22409 0-0.12066-0.0862-0.20685-0.069-0.10343-0.20686-0.10343h-4.3611v11.653h-2.2926zm7.2743 5.8953q0.49989-0.0345 0.96531-0.29304 0.48266-0.25857 0.84465-0.68951 0.36199-0.43094 0.58608-0.99979 0.22409-0.58608 0.22409-1.2756 0-0.70674-0.22409-1.3101-0.22409-0.60332-0.63779-1.0343-0.41371-0.43094-0.99979-0.67227-0.56884-0.24133-1.2928-0.24133h-6.7399v-2.3271h6.7399q1.1377 0 2.1375 0.43094 0.99978 0.43094 1.741 1.1894 0.74123 0.75846 1.1549 1.7755 0.43094 1.017 0.43094 2.1892 0 1.4824-0.49989 2.5684-0.49989 1.0687-1.3618 1.7238l3.9302 7.033h-2.3443z"/>
				<path d="m136.75 108.63v-16.705h2.2926v16.705zm2.9132 0v-16.705h2.2926v16.705z"/>
				<path d="m149.38 96.942q-0.1379 0-0.22409 0.08619-0.069 0.08619-0.069 0.20685 0 0.10343 0.0517 0.20685 0.0517 0.08619 0.15513 0.10343 0.0517 0.01724 0.39647 0.10343 0.36199 0.06895 0.81017 0.17238 0.44818 0.10343 0.89636 0.24133 0.46542 0.12066 0.70675 0.24133 0.51713 0.29304 1.017 0.70675 0.4999 0.4137 0.89636 0.99978 0.39647 0.56885 0.6378 1.3445 0.24133 0.75846 0.24133 1.741 0 1.1722-0.43095 2.1892-0.4137 0.99979-1.1377 1.741-0.72399 0.74122-1.7238 1.1722-0.98255 0.43094-2.1202 0.43094h-5.8436v-2.2926h5.8436q0.72398 0 1.3101-0.24133 0.60332-0.24133 1.0343-0.67227 0.43094-0.43094 0.65503-1.017 0.24133-0.60332 0.24133-1.3101 0-0.89636-0.32752-1.4652-0.32752-0.56885-0.81017-0.89636-0.48266-0.34476-1.0515-0.4999-0.55161-0.17237-1.017-0.2758-0.51714-0.10343-1.017-0.2758-0.48265-0.18962-0.86188-0.49989-0.37923-0.31028-0.62056-0.7757-0.22409-0.46542-0.22409-1.1549 0-0.65503 0.18961-1.1377 0.18962-0.49989 0.51713-0.82741 0.34476-0.32752 0.79294-0.48266 0.46542-0.17238 0.99978-0.17238h5.7057v2.2926zm-0.0862-2.9304q-0.70674 0-1.2928 0.24133-0.56885 0.24133-0.98255 0.67227-0.39647 0.43094-0.62056 1.0343-0.22409 0.58608-0.22409 1.2928 0 0.74122 0.25857 1.2928 0.25856 0.55161 0.65503 0.94807 0.4137 0.39647 0.9136 0.6378 0.49989 0.22409 0.98255 0.31028 0.46541 0.0862 1.017 0.24132 0.55161 0.1379 1.017 0.43095 0.46542 0.2758 0.7757 0.75845 0.31028 0.48266 0.31028 1.2239 0 0.65503-0.20685 1.1549-0.20685 0.48265-0.56885 0.81017-0.36199 0.32752-0.84464 0.49989-0.46542 0.15514-0.99979 0.15514h-5.8436v-2.2926h5.6367q0.1379 0 0.20685-0.0862 0.0862-0.10343 0.0862-0.20685 0-0.24133-0.20685-0.32752-0.0517-0.0172-0.41371-0.0862-0.36199-0.069-0.82741-0.17238-0.44818-0.10342-0.89636-0.22409-0.44818-0.1379-0.68951-0.2758-0.49989-0.2758-0.98255-0.68951-0.48265-0.4137-0.86188-0.98255-0.36199-0.58608-0.58608-1.3445-0.22409-0.7757-0.22409-1.7755 0-1.1549 0.4137-2.172 0.43094-1.017 1.1549-1.7582 0.72398-0.74122 1.7065-1.1722 0.99979-0.43094 2.1375-0.43094h5.7057v2.2926z"/>
			</g>
		</g>
	</g>
</svg>
