<?xml version="1.0" encoding="UTF-8" standalone="no"?>
<svg
   id="vlpa"
   version="1.1"
   viewBox="0 0 1082 1082"
   xml:space="preserve"
   sodipodi:docname="webgl.svg"
   width="1082"
   height="1082"
   inkscape:version="1.2.2 (b0a8486541, 2022-12-01)"
   xmlns:inkscape="http://www.inkscape.org/namespaces/inkscape"
   xmlns:sodipodi="http://sodipodi.sourceforge.net/DTD/sodipodi-0.dtd"
   xmlns="http://www.w3.org/2000/svg"
   xmlns:svg="http://www.w3.org/2000/svg"
   xmlns:rdf="http://www.w3.org/1999/02/22-rdf-syntax-ns#"
   xmlns:cc="http://creativecommons.org/ns#"
   xmlns:dc="http://purl.org/dc/elements/1.1/"><defs
   id="defs6814" /><sodipodi:namedview
   id="namedview6812"
   pagecolor="#ffffff"
   bordercolor="#666666"
   borderopacity="1.0"
   inkscape:showpageshadow="2"
   inkscape:pageopacity="0.0"
   inkscape:pagecheckerboard="0"
   inkscape:deskcolor="#d1d1d1"
   showgrid="false"
   inkscape:zoom="0.84103512"
   inkscape:cx="448.85165"
   inkscape:cy="479.76593"
   inkscape:window-width="2560"
   inkscape:window-height="1374"
   inkscape:window-x="1050"
   inkscape:window-y="43"
   inkscape:window-maximized="1"
   inkscape:current-layer="vlpa" /><title
   id="title6783">WebGL logo</title><desc
   id="desc6785">An open standard for hardware-accelerated web graphics by Khronos Group</desc><metadata
   id="metadata6787"><rdf:RDF><cc:Work
       rdf:about=""><dc:format>image/svg+xml</dc:format><dc:type
         rdf:resource="http://purl.org/dc/dcmitype/StillImage" /><dc:title>WebGL logo</dc:title></cc:Work></rdf:RDF></metadata>
<g
   transform="translate(-64.6,291.55)"
   fill="#990000"
   id="g6793">
	<polygon
   points="1100,342.7 1100,323.6 1092,323.6 1092,318.1 1114,318.1 1114,323.6 1106,323.6 1106,342.7 "
   id="polygon6789" />
	<polygon
   points="1128,342.7 1122,324 1122,324 1122,342.7 1116,342.7 1116,318.1 1126,318.1 1130,334.5 1134,318.1 1144,318.1 1144,342.7 1138,342.7 1138,324 1133,342.7 "
   id="polygon6791" />
</g>
<g
   transform="matrix(0.9958,0,0,1,-57.13,291.55)"
   fill="#990000"
   id="g6801">
	
		<path
   d="m 859.4,341.3 c -9,3.8 -18,5.7 -27.1,5.7 -14.4,0 -27.4,-2.5 -38.9,-7.5 -11.5,-5 -21.2,-11.9 -29.1,-20.7 -7.9,-8.8 -14,-19.1 -18.2,-31 -4.2,-11.9 -6.3,-24.7 -6.3,-38.4 0,-14.1 2.1,-27.1 6.3,-39.2 4.2,-12.1 10.2,-22.6 18.1,-31.5 7.9,-9 17.6,-16 29.1,-21.1 11.5,-5.1 24.4,-7.7 38.9,-7.7 9.7,0 19,1.5 28,4.4 9,2.9 17.2,7.2 24.5,12.8 7.3,5.6 13.3,12.6 18,20.9 4.7,8.3 7.6,17.8 8.7,28.5 H 872 c -2.5,-10.5 -7.2,-18.4 -14.2,-23.7 -7,-5.3 -15.5,-7.9 -25.6,-7.9 -9.3,0 -17.2,1.8 -23.7,5.4 -6.5,3.6 -11.8,8.4 -15.8,14.5 -4,6.1 -7,13 -8.8,20.7 -1.8,7.7 -2.8,15.7 -2.8,24 0,7.9 0.9,15.6 2.8,23.1 1.8,7.5 4.8,14.2 8.8,20.2 4,6 9.3,10.8 15.8,14.4 6.5,3.6 14.4,5.4 23.7,5.4 13.7,0 24.3,-3.5 31.8,-10.4 7.5,-6.9 11.8,-16.9 13.1,-30.1 H 835.5 V 241 h 78.9 v 101.7 h -26.3 l -4.2,-21.3 c -7.3,9.5 -15.5,16.1 -24.5,19.9 z"
   id="path6795" />
		<path
   d="m 981.5,154.6 v 153.1 h 91.7 v 34.9 h -133 v -188 z"
   id="path6797" />
	
	<path
   d="M 786.3,366 C 723.2,404.4 628.6,426.2 523.1,426.2 333,426.2 179,347.1 179,249.4 179,151.8 333.1,72.6 523.1,72.6 629,72.6 723.9,94.9 787,133.5 718.2,68.8 594.6,23.4 453.4,23.3 237,23.3 61.6,124.5 61.6,249.4 c 0,124.9 175.4,226.2 391.7,226.2 140.7,0 263.9,-45.3 333,-109.6 z"
   id="path6799" />
</g>
<g
   transform="translate(-61.6,291.55)"
   fill="#990000"
   id="g6809">
	<polygon
   points="297.9,344.6 343.2,183.8 387.9,344.6 420.2,344.6 475.9,139.9 439.6,139.9 403.3,296.9 359.5,139.9 326.3,139.9 282.5,296.9 246.2,139.9 211.9,139.9 265.7,344.6 "
   id="polygon6803" />
	<path
   d="m 566.5,226.1 c -5,-7.1 -11.3,-12.5 -18.7,-16.2 -7.6,-3.8 -16.4,-5.7 -26.2,-5.7 -11,0 -20.9,2 -29.5,5.9 -8.1,3.7 -15,9.2 -20.6,16.3 -10.3,13.1 -15.7,31.6 -15.7,53.5 0,9.7 1.4,18.9 4.1,27.1 2.7,8.3 6.8,15.6 12,21.7 11,12.8 26.7,19.6 45.4,19.6 9.8,0 17.8,-1 24.5,-3.1 5.8,-1.8 9.7,-4.2 12.9,-6.3 4.1,-2.7 7.8,-6 11.2,-9.8 2.8,-3.3 5.3,-6.9 7.5,-10.8 3.8,-7 5.7,-13.6 6.1,-17 l 0.3,-2.3 h -26.7 l -0.1,1.9 c -0.7,8.7 -12.1,24.2 -32.4,24.2 -29,0 -35.9,-21 -36.4,-39.5 h 97.2 v -2.1 c 0,-11.9 -1.2,-22.8 -3.6,-32.3 -2.7,-9.9 -6.4,-18.3 -11.3,-25.1 z m -48,2.1 c 21.5,0 33,11.6 35.1,35.4 H 484 c 1.1,-19.3 16.4,-35.4 34.5,-35.4 z"
   id="path6805" />
	<path
   d="m 715.7,245.7 c -2.6,-8.3 -6.4,-15.6 -11.3,-21.7 -5.1,-6.3 -11.3,-11.2 -18.4,-14.6 -7.4,-3.5 -15.7,-5.3 -24.7,-5.3 -8.3,0.1 -15.8,1.9 -22.4,5.4 -5.5,2.8 -10.4,6.8 -14.6,11.8 v -62.8 h -26.6 v 186 H 623 v -12.7 c 2.2,2.9 5.1,6 8.9,8.7 7.2,5.2 16.1,7.8 26.4,7.8 11.1,0 21.1,-2.5 29.5,-7.4 7.5,-4.4 13.9,-10.7 18.9,-18.7 4.4,-7 7.7,-15.3 9.9,-24.6 1.9,-8 2.9,-16.8 2.9,-25.4 0.1,-9.3 -1.2,-18.3 -3.8,-26.5 z m -23.9,30.2 c 0,14.6 -2.9,26.8 -8.5,35.4 -5.9,9.1 -14.5,13.7 -25.5,13.7 -15.9,0 -34.5,-11.1 -34.5,-42.5 0,-15 1.9,-26.6 5.7,-35.4 5.5,-12.7 14.8,-18.8 28.3,-18.8 14.4,0 24.1,5.6 29.5,17.3 4.4,9.6 5,21.3 5,30.3 z"
   id="path6807" />
</g>
</svg>
